<?xml version="1.0" encoding="UTF-8" standalone="no"?>
<!DOCTYPE svg PUBLIC "-//W3C//DTD SVG 1.1//EN" "http://www.w3.org/Graphics/SVG/1.1/DTD/svg11.dtd">
<svg version="1.1" xmlns="http://www.w3.org/2000/svg" xmlns:xlink="http://www.w3.org/1999/xlink" preserveAspectRatio="xMidYMid meet" viewBox="0 0 228.39 42.45" width="228.39" height="42.45"><defs><path d="M12.35 38.77C11.75 38.65 11.46 38.51 11.46 38.37C11.49 38.25 12.5 38.19 14.5 38.19C14.62 38.19 14.8 38.2 15.04 38.23C15.1 38.23 15.14 38.23 15.17 38.23C15.95 38.26 16.43 38.11 16.61 37.78C16.82 37.39 16.92 35.63 16.92 32.5C16.92 31.72 16.92 31.12 16.92 30.7C16.92 26.58 16.88 24.33 16.79 23.94C16.73 23.7 16.56 23.52 16.29 23.4C16 23.25 13.78 23.19 9.64 23.22C5.5 23.25 2.85 23.34 1.69 23.49C1.33 23.55 1.09 23.53 0.97 23.42C0.85 23.32 0.64 22.97 0.35 22.37C0.08 21.8 -0.04 21.48 0.01 21.41C0.05 21.33 0.36 21.34 0.93 21.43C2.33 21.64 3.5 21.77 4.42 21.81C5.35 21.86 7.45 21.88 10.74 21.88C15.07 21.91 17.49 21.85 18 21.7C18.33 21.61 18.59 21.31 18.8 20.8C18.89 20.59 18.94 20.44 18.94 20.36C18.94 20.09 18.52 20.07 17.68 20.31C16.94 20.55 16.45 20.64 16.23 20.58C16 20.52 15.89 20.3 15.89 19.91C15.89 19.07 15.54 18.44 14.84 18C14.14 17.57 13.34 17.5 12.44 17.8C11.61 18.04 11.05 18.15 10.76 18.12C10.48 18.09 10.34 17.88 10.34 17.49C10.34 16.92 10 16.52 9.33 16.28C8.66 16.04 7.98 16.04 7.29 16.28C6.6 16.52 6.23 16.92 6.17 17.49C6.08 18.29 5.45 18.8 4.29 19.01C3.66 19.1 3.29 19.04 3.17 18.83C3.05 18.62 3.02 18.06 3.08 17.13C3.32 14.44 3.15 11.35 2.58 7.86C2.46 7.2 2.46 6.86 2.58 6.83C2.7 6.8 3.27 6.99 4.29 7.41C5.96 8.1 7.29 8.45 8.27 8.46C9.26 8.48 10.1 8.15 10.78 7.5C11.14 7.14 11.41 6.98 11.59 7C11.77 7.03 12.26 7.36 13.07 7.99C13.75 8.53 14.17 8.87 14.32 9.02C14.53 9.26 14.49 9.47 14.19 9.65C13.77 9.89 13.49 10.91 13.34 12.72C13.19 14.52 13.28 15.77 13.6 16.46C13.62 16.49 13.68 16.64 13.78 16.9C14.24 16.9 14.49 16.9 14.55 16.9C14.63 16.9 14.74 16.9 14.86 16.9C15.72 16.97 16.28 16.84 16.52 16.55C16.72 16.19 16.83 14.66 16.83 11.98C16.83 11.56 16.83 11.25 16.83 11.04C16.83 8.29 16.81 6.69 16.76 6.24C16.72 5.8 16.53 5.5 16.2 5.35C15.9 5.2 13.76 5.14 9.77 5.17C5.79 5.2 3.21 5.29 2.05 5.44C1.69 5.5 1.46 5.48 1.35 5.39C1.25 5.3 1.04 4.96 0.75 4.36C0.48 3.82 0.34 3.5 0.34 3.38C0.34 3.26 0.55 3.23 0.97 3.29C2.73 3.62 6.02 3.8 10.83 3.82C11.18 3.82 11.68 3.82 12.31 3.82C15.17 3.85 16.87 3.82 17.39 3.71C17.91 3.61 18.41 3.23 18.89 2.57C19.04 2.36 19.16 2.2 19.25 2.08C19.58 1.6 19.8 1.35 19.92 1.32C20.04 1.29 20.29 1.44 20.68 1.76C22.57 3.26 23.52 4.2 23.55 4.59C23.55 4.91 23.04 5.09 22.03 5.12C21.94 5.12 21.8 5.12 21.62 5.12C20.94 5.15 20.53 5.29 20.41 5.53C20.21 5.85 20.09 7.42 20.06 10.23C20.06 10.89 20.06 11.39 20.06 11.75C20.03 15.49 19.94 17.59 19.79 18.07C19.7 18.4 19.65 18.7 19.65 18.97C19.68 19.47 19.83 19.61 20.1 19.37C20.19 19.28 20.3 19.27 20.44 19.35C20.57 19.42 20.86 19.65 21.31 20.04C22.98 21.56 23.82 22.48 23.82 22.77C23.82 23.04 23.3 23.19 22.25 23.22C21.56 23.25 21.12 23.3 20.91 23.36C20.7 23.42 20.52 23.57 20.37 23.8C20.25 23.95 20.18 26.54 20.15 31.55C20.12 35.53 20.07 37.9 20.01 38.68C19.95 39.45 19.77 40.05 19.47 40.47C19.23 40.83 18.64 41.2 17.68 41.59C16.19 42.25 15.44 42.26 15.44 41.63C15.44 40.98 15.17 40.4 14.61 39.89C14.06 39.38 13.31 39.01 12.35 38.77ZM2.81 37.56C2.75 37.35 2.75 36.9 2.81 36.21C3.05 33.11 2.9 29.69 2.36 25.95C2.36 25.93 2.35 25.86 2.32 25.78C2.23 25.3 2.24 25.04 2.36 25.01C2.48 24.98 2.95 25.13 3.75 25.46C3.99 25.55 4.18 25.63 4.33 25.69C4.47 25.74 5.12 26.01 6.31 26.49C7.3 26.52 7.85 26.53 7.96 26.54C8.92 26.54 9.55 26.49 9.85 26.4C10.14 26.31 10.52 26.04 10.97 25.6C11.29 25.24 11.55 25.08 11.73 25.13C11.91 25.17 12.4 25.51 13.21 26.13C14.07 26.79 14.55 27.21 14.64 27.39C14.76 27.57 14.61 27.73 14.19 27.88C13.86 28.03 13.67 28.45 13.61 29.13C13.55 29.82 13.56 31.33 13.65 33.66C13.66 33.8 13.67 34.5 13.7 35.76C13.48 35.95 13.36 36.06 13.34 36.08C12.62 36.59 11.94 36.83 11.3 36.82C10.66 36.8 10.34 36.53 10.34 35.99C10.34 35.51 10.2 35.19 9.91 35.02C9.63 34.86 9.05 34.78 8.19 34.78C7.23 34.78 6.63 34.86 6.4 35.02C6.16 35.19 6.05 35.6 6.08 36.26C6.08 36.33 6.08 36.9 6.08 36.97C5.25 37.69 4.47 38.05 3.75 38.05C3.54 38.05 3.38 38.02 3.26 37.96C3.02 37.9 2.87 37.77 2.81 37.56ZM9.84 27.93C9.66 27.81 9.12 27.75 8.21 27.75C7.3 27.75 6.75 27.81 6.57 27.93C6.18 28.17 5.99 29.05 5.99 30.59C5.99 32.13 6.18 33 6.57 33.21C6.75 33.33 7.3 33.4 8.21 33.41C9.12 33.43 9.66 33.38 9.84 33.26C10.26 33.02 10.47 32.13 10.47 30.59C10.47 29.05 10.26 28.17 9.84 27.93ZM9.75 9.78C9.55 9.66 9.02 9.61 8.19 9.62C7.35 9.64 6.84 9.72 6.66 9.87C6.28 10.11 6.08 10.92 6.08 12.29C6.08 13.66 6.28 14.47 6.66 14.71C6.84 14.86 7.35 14.94 8.19 14.96C9.02 14.97 9.55 14.92 9.75 14.8C10.17 14.56 10.38 13.72 10.38 12.29C10.38 10.86 10.17 10.02 9.75 9.78ZM34.22 27.88C35.92 32.45 38.22 35.83 41.11 38.01C41.74 38.51 41.74 38.87 41.11 39.08C40.61 39.26 40.11 39.6 39.64 40.11C39.16 40.62 38.84 41.13 38.7 41.63C38.55 42.05 38.22 41.99 37.71 41.45C35.05 38.53 33.11 33.59 31.89 26.63C31.53 24.48 31.23 23.4 30.99 23.4C30.78 23.37 30.54 24 30.27 25.28C29.41 29.13 28.29 32.3 26.91 34.78C25.54 37.26 23.69 39.47 21.36 41.41C20.82 41.86 20.51 42.1 20.44 42.13C20.36 42.16 20.24 42.11 20.06 41.99C19.91 41.84 19.86 41.69 19.92 41.52C19.98 41.36 20.19 41.08 20.55 40.69C24.28 36.48 26.57 30.87 27.4 23.85C27.64 21.97 27.81 19.52 27.9 16.5C27.99 13.48 27.96 11.81 27.81 11.48C27.72 11.33 27.63 11.21 27.54 11.12C27.18 10.89 26.58 11.45 25.75 12.83C24.91 14.2 24.03 15.44 23.1 16.54C22.18 17.65 21.6 18.16 21.36 18.07C21.21 17.95 21.15 17.82 21.2 17.69C21.24 17.55 21.46 17.1 21.85 16.32C24.15 11.81 25.72 6.75 26.55 1.13C26.61 0.68 26.69 0.42 26.78 0.33C26.84 0.24 27.65 0.42 29.22 0.86C30.79 1.31 31.59 1.59 31.62 1.71C31.65 1.8 31.58 1.92 31.41 2.07C31.25 2.22 31.08 2.33 30.9 2.39C30.57 2.54 30.31 2.76 30.12 3.06C29.92 3.36 29.66 3.98 29.33 4.94C29.27 5.12 29.18 5.39 29.06 5.75C28.94 6.1 28.83 6.43 28.73 6.71C28.62 6.99 28.54 7.21 28.48 7.36C28.06 8.38 28.01 8.97 28.32 9.15C28.64 9.33 29.9 9.44 32.11 9.46C32.34 9.46 33.49 9.46 35.56 9.46C35.85 9.33 36.02 9.25 36.05 9.24C36.32 9.12 36.75 8.79 37.35 8.25C37.83 7.78 38.1 7.54 38.16 7.54C38.25 7.54 38.83 8.08 39.9 9.15C40.98 10.23 41.52 10.79 41.52 10.85C41.52 10.91 41.4 11 41.16 11.12C40.92 11.24 40.74 11.3 40.62 11.3C40.32 11.3 39.59 12.17 38.43 13.9C36.04 17.54 34.66 19.37 34.3 19.37C34.18 19.37 34.1 19.34 34.06 19.3C34.01 19.25 33.99 19.17 33.99 19.05C33.99 18.93 34.02 18.77 34.08 18.56C34.14 18.35 34.23 18.05 34.35 17.66C34.8 16.44 35.15 15.32 35.42 14.3C35.96 12.51 36.15 11.47 36.01 11.17C35.86 10.87 35.11 10.72 33.77 10.72C33.6 10.72 32.31 10.72 32.15 10.72C31.97 10.93 31.78 11.12 31.57 11.3C31.57 11.39 31.57 11.84 31.57 12.65C32.2 19.76 33.08 24.84 34.22 27.88Z" id="mZywtxbf2"></path><path d="M67.84 37.54C67.53 37.52 66.92 37.71 66.03 38.1C61.43 40.01 55.9 41.32 49.45 42.04C48.14 42.19 47.43 42.2 47.35 42.08C47.26 42.02 47.21 41.96 47.21 41.9C47.21 41.73 48 41.49 49.59 41.19C55.02 40.11 59.43 38.77 62.8 37.16C63.94 36.62 64.55 36.19 64.64 35.88C64.73 35.57 64.37 35.08 63.56 34.42C61.53 32.84 59.74 30.88 58.19 28.55C57.5 27.57 57.03 27.01 56.78 26.87C56.52 26.74 55.8 26.66 54.6 26.63C51.8 26.63 49.87 26.72 48.82 26.9C48.5 26.96 48.28 26.94 48.17 26.85C48.07 26.76 47.87 26.45 47.57 25.91C47.24 25.28 47.06 24.93 47.03 24.84C47.03 24.75 47.12 24.72 47.3 24.75C49.78 25.26 55.29 25.51 63.83 25.51C63.91 25.51 64.28 25.51 64.95 25.51C65.14 25.32 65.24 25.22 65.27 25.2C65.68 24.78 65.64 23.33 65.13 20.85C65.07 20.58 65.06 20.42 65.09 20.36C65.11 20.24 65.73 20.25 66.92 20.4C68.69 20.64 69.68 20.64 69.9 20.4C70.13 20.16 70.3 18.98 70.42 16.86C70.75 10.32 70.61 5.05 70.02 1.05C69.9 0.42 69.88 0.08 69.97 0.02C70.03 -0.04 70.94 0.05 72.7 0.29C74.47 0.53 75.38 0.68 75.44 0.74C75.67 0.97 75.5 1.27 74.9 1.63C74.3 1.99 74 2.59 74 3.42C74 4.17 74.16 4.61 74.47 4.75C74.79 4.88 75.84 4.95 77.63 4.95C79.33 4.95 80.36 4.89 80.7 4.77C81.04 4.65 81.56 4.17 82.25 3.33C82.66 2.8 82.92 2.53 83.03 2.55C83.13 2.57 83.53 2.86 84.22 3.42C84.4 3.57 84.62 3.75 84.89 3.96C85.84 4.77 86.39 5.27 86.52 5.46C86.66 5.66 86.59 5.87 86.32 6.11C86.29 6.14 86.26 6.17 86.23 6.2C85.66 6.2 81.07 6.24 80.5 6.25C80.17 6.25 79.69 6.25 79.07 6.25C76.32 6.27 74.76 6.38 74.41 6.56C74.11 6.71 73.97 7.16 74 7.9C74 8.08 74 8.23 74 8.35C74 9.37 74.14 9.96 74.43 10.12C74.71 10.28 75.72 10.37 77.45 10.37C77.71 10.36 79.79 10.33 80.05 10.32C80.59 9.93 81.05 9.49 81.44 8.98C81.71 8.62 81.91 8.4 82.05 8.31C82.18 8.22 82.3 8.19 82.4 8.22C82.51 8.25 82.68 8.37 82.92 8.57C83.84 9.35 84.35 9.78 84.44 9.87C85.37 10.68 85.67 11.17 85.34 11.35C85.04 11.53 83.25 11.64 79.96 11.67C79.66 11.67 79.26 11.67 78.75 11.67C76.18 11.69 74.73 11.81 74.4 12.02C74.14 12.17 74 12.67 74 13.5C74 13.68 74 13.83 74 13.95C74 15.11 74.16 15.79 74.47 15.97C74.79 16.15 75.96 16.24 77.99 16.24C79.87 16.24 80.99 16.18 81.35 16.06C81.71 15.94 82.22 15.46 82.87 14.62C83.23 14.11 83.5 13.83 83.68 13.77C83.83 13.77 84.4 14.19 85.38 15.02C86.49 15.95 87.11 16.51 87.26 16.71C87.41 16.9 87.35 17.1 87.08 17.31C86.87 17.46 84.76 17.53 80.74 17.53C76.73 17.53 74.64 17.61 74.49 17.76C74.17 18.06 74.02 18.77 74.05 19.91C74.05 20.04 74.09 21.12 74.09 21.25C73.61 21.73 72.99 22.07 72.21 22.26C71.43 22.46 70.84 22.4 70.42 22.1C70.06 21.84 69.76 21.84 69.52 22.1C69.28 22.37 69.16 22.87 69.16 23.58C69.16 23.64 69.16 23.75 69.16 23.9C69.16 24.61 69.37 25.03 69.79 25.15C70.21 25.27 71.69 25.33 74.23 25.33C74.77 25.33 75.18 25.33 75.48 25.33C76.03 25.33 80.4 25.29 80.95 25.29C81.4 25.02 81.93 24.48 82.56 23.67C82.92 23.2 83.17 22.9 83.32 22.8C83.47 22.7 83.6 22.66 83.7 22.69C83.81 22.72 84.02 22.85 84.35 23.09C85.13 23.72 85.73 24.22 86.17 24.59C86.6 24.97 86.93 25.27 87.15 25.51C87.38 25.75 87.49 25.93 87.49 26.05C87.49 26.17 87.44 26.27 87.35 26.36C87.34 26.37 87.26 26.45 87.13 26.58C84.79 26.61 83.49 26.63 83.23 26.63C83.11 26.63 82.98 26.63 82.83 26.63C80.59 26.66 79.3 26.76 78.98 26.94C78.74 27.06 78.38 27.51 77.9 28.29C76.5 30.5 75.02 32.23 73.47 33.48C72.39 34.41 71.94 35.04 72.12 35.37C72.3 35.69 73.3 36.08 75.12 36.53C78.71 37.43 82.59 38.04 86.77 38.37C87.13 38.4 87.41 38.43 87.62 38.46C88.43 38.61 88.43 38.86 87.62 39.22C86.79 39.58 86.11 40.28 85.61 41.32C85.37 41.86 85.23 42.16 85.2 42.22C85.14 42.34 84.51 42.31 83.32 42.13C77.97 41.17 73.42 39.84 69.66 38.14C68.76 37.75 68.15 37.55 67.84 37.54ZM52.85 23.29C52.94 23.21 53.06 23.14 53.21 23.06C53.36 22.99 53.6 22.86 53.93 22.68C55.39 21.94 56.66 21.07 57.74 20.08C58.81 19.1 59.43 18.26 59.58 17.58C59.6 17.43 59.6 17.32 59.58 17.26C59.49 16.9 58.53 17.01 56.71 17.58C56.38 17.67 55.77 17.84 54.89 18.09C54.01 18.35 53.41 18.52 53.08 18.61C51.59 19.03 50.62 19.46 50.17 19.91C49.9 20.18 49.7 20.25 49.58 20.13C49.46 20.01 49.09 19.38 48.46 18.25C47.93 17.23 47.68 16.67 47.73 16.55C47.77 16.43 48.26 16.34 49.18 16.28C52.62 16.04 55.5 15.8 57.83 15.56C59.26 15.41 60.15 15.26 60.49 15.11C60.84 14.96 61.08 14.56 61.23 13.9C61.56 12.71 61.37 11.99 60.65 11.75C60.41 11.69 59.05 11.68 56.57 11.71C54.09 11.74 52.5 11.8 51.78 11.89C51.18 11.95 50.82 11.94 50.68 11.87C50.55 11.79 50.32 11.44 49.99 10.81C49.78 10.42 49.64 10.16 49.58 10.01C49.52 9.8 49.61 9.72 49.85 9.78C49.88 9.78 49.97 9.8 50.12 9.83C50.27 9.86 50.48 9.89 50.75 9.92C51.02 9.95 51.26 9.98 51.47 10.01C53.23 10.24 55.21 10.38 57.4 10.41C59.6 10.44 60.83 10.35 61.1 10.14C61.52 9.87 61.7 9.23 61.66 8.21C61.61 7.2 61.38 6.59 60.97 6.38C60.7 6.23 59.09 6.17 56.15 6.22C53.21 6.26 51.26 6.36 50.3 6.51C50.12 6.54 49.91 6.56 49.68 6.56C49.59 6.53 49.37 6.2 49.03 5.59C48.68 4.98 48.51 4.61 48.51 4.49C48.51 4.4 48.82 4.39 49.45 4.45C50.86 4.69 53.06 4.87 56.06 5.01C59.06 5.14 60.71 5.14 61.01 4.99C61.64 4.69 61.62 3.09 60.97 0.19C60.97 0.16 60.97 0.13 60.97 0.1C60.97 0.01 61.94 0.09 63.88 0.33C65.4 0.54 66.24 0.7 66.39 0.82C66.54 0.94 66.27 1.25 65.58 1.76C65.37 1.91 65.24 2.22 65.2 2.68C65.15 3.14 65.13 4.33 65.13 6.24C65.13 10.27 64.86 13.19 64.3 15C63.75 16.81 62.65 18.4 61.01 19.77C59.96 20.67 58.41 21.6 56.35 22.57C54.29 23.54 53.13 23.89 52.86 23.63C52.79 23.57 52.76 23.51 52.74 23.47C52.73 23.42 52.76 23.36 52.85 23.29ZM73.42 26.9C73.4 26.88 73.33 26.81 73.19 26.67C69.11 26.64 66.84 26.63 66.38 26.63C62.71 26.63 60.57 26.65 59.96 26.69C59.34 26.74 59.01 26.88 58.95 27.12C58.83 27.63 59.48 28.5 60.92 29.74C62.35 30.98 63.97 32.08 65.76 33.03C66.62 33.45 67.21 33.7 67.5 33.77C67.8 33.85 68.13 33.79 68.49 33.61C69.57 33.11 70.76 31.96 72.07 30.17C73.39 28.37 73.84 27.28 73.42 26.9Z" id="aliqkw2E7"></path><path d="M122.93 11.84C125.05 11.84 126.33 11.78 126.78 11.66C127.23 11.54 127.74 11.11 128.3 10.36C128.48 10.13 128.62 9.95 128.71 9.83C128.73 9.77 128.81 9.68 128.93 9.56C129.32 9.05 129.65 8.84 129.91 8.93C130.15 8.99 131.09 9.72 132.74 11.12C133.24 11.54 133.62 11.87 133.86 12.11C134.25 12.41 134.26 12.66 133.9 12.87C133.72 13.02 131.01 13.11 125.75 13.14C122.85 13.14 121.16 13.16 120.69 13.19C118.45 13.22 117.27 13.41 117.15 13.77C117.09 13.92 117.31 14.46 117.82 15.38C119.7 18.96 122.17 22.32 125.23 25.44C128.29 28.56 131.36 30.87 134.44 32.36C135.22 32.75 135.23 33.05 134.48 33.26C134.04 33.41 133.56 33.71 133.05 34.15C132.54 34.6 132.17 35.08 131.93 35.59C131.75 36.01 131.56 36.19 131.35 36.12C131.14 36.06 130.54 35.63 129.56 34.83C124.54 30.79 120.6 25.3 117.73 18.34C117.37 17.5 117.09 16.9 116.88 16.55C116.52 15.89 116.25 15.87 116.07 16.5C115.95 16.83 115.9 19.82 115.91 25.48C115.93 31.14 116 35.02 116.12 37.11C116.12 37.62 116.13 38.15 116.16 38.7C116.19 39.25 116.21 39.69 116.23 40C116.24 40.31 116.25 40.48 116.25 40.52C116.25 40.84 115.81 41.25 114.95 41.75C114.08 42.24 113.44 42.46 113.02 42.4C112.99 42.4 112.89 42.37 112.71 42.31C112.29 42.19 112.04 41.98 111.97 41.68C111.9 41.38 111.9 40.57 111.99 39.26C112.2 35.86 112.31 31.45 112.31 26.04C112.3 25.42 112.27 20.44 112.26 19.82C111.93 19.55 111.69 19.48 111.52 19.61C111.36 19.75 110.87 20.41 110.07 21.61C106.03 27.67 101.12 32.55 95.33 36.26C94.43 36.82 93.83 37.09 93.53 37.06C93.15 37 93.5 36.53 94.61 35.63C96.97 33.69 99.32 31.19 101.67 28.13C104.01 25.06 106.03 21.86 107.74 18.52C108.69 16.61 109.26 15.31 109.44 14.62C109.62 13.93 109.53 13.48 109.17 13.27C108.99 13.13 106.97 13.07 103.1 13.12C99.23 13.16 96.8 13.26 95.82 13.41C95.46 13.47 95.23 13.45 95.12 13.36C95.02 13.27 94.83 12.93 94.56 12.33C94.3 11.77 94.16 11.44 94.16 11.35C94.16 11.26 94.34 11.25 94.7 11.3C96.52 11.66 100.67 11.89 107.15 11.98C109.42 12.01 110.77 12 111.21 11.95C111.64 11.91 111.95 11.75 112.13 11.48C112.34 11.13 112.39 9.55 112.28 6.76C112.18 3.96 111.98 1.9 111.68 0.55C111.62 0.31 111.6 0.16 111.63 0.1C111.72 0.01 112.69 0.09 114.55 0.33C116.37 0.6 117.31 0.73 117.37 0.73C117.4 0.76 117.41 0.79 117.41 0.82C117.38 1.12 117.07 1.48 116.47 1.9C116.2 2.08 116.05 2.36 116 2.75C115.96 3.14 115.92 4.42 115.89 6.6C115.89 9.14 115.91 10.57 115.96 10.88C116 11.19 116.26 11.51 116.74 11.84C117.07 11.84 118.71 11.84 121.67 11.84C122.15 11.84 122.57 11.84 122.93 11.84Z" id="c5hAJ3ORg"></path><path d="M140.36 8.42C140.42 8.34 140.79 8.36 141.48 8.48C143.27 8.75 145.69 8.9 148.73 8.93C151.09 8.99 152.47 8.97 152.88 8.86C153.28 8.76 153.81 8.26 154.47 7.36C154.83 6.85 155.06 6.56 155.16 6.49C155.27 6.41 155.44 6.48 155.68 6.69C157.23 8 158.07 8.72 158.19 8.84C158.79 9.44 158.8 9.81 158.23 9.96C157.79 10.11 155.34 10.2 150.89 10.23C145.81 10.23 142.76 10.32 141.75 10.5C141.57 10.53 141.43 10.5 141.34 10.41C141.25 10.32 141.03 9.98 140.67 9.38C140.4 8.81 140.3 8.49 140.36 8.42ZM145.6 41.32C145.15 41.68 144.61 41.92 143.99 42.04C143.36 42.16 142.92 42.11 142.69 41.9C142.54 41.76 142.45 41.52 142.42 41.21C142.39 40.9 142.42 40.17 142.51 39.04C142.6 38.02 142.65 36.53 142.66 34.56C142.68 32.59 142.65 31.18 142.6 30.35C142.45 27.81 142.25 26.12 142.01 25.28C141.98 25.25 141.98 25.22 142.01 25.19C142.01 25.01 142.67 25.21 143.99 25.78C144.1 25.84 144.3 25.92 144.57 26.02C144.84 26.13 145.01 26.19 145.08 26.22C145.16 26.25 145.29 26.31 145.49 26.38C145.68 26.46 145.81 26.49 145.89 26.49C145.96 26.49 146.08 26.51 146.22 26.56C146.37 26.6 146.51 26.63 146.63 26.63C146.75 26.63 146.88 26.64 147.03 26.67C147.18 26.7 147.36 26.72 147.57 26.72C147.78 26.72 147.99 26.72 148.2 26.72C148.4 26.72 148.67 26.72 149 26.72C150.56 26.72 151.48 26.68 151.78 26.6C152.08 26.53 152.5 26.22 153.03 25.69C153.51 25.18 153.83 24.93 154 24.95C154.16 24.96 154.71 25.34 155.63 26.09C156.8 27.02 157.4 27.55 157.42 27.7C157.42 27.82 157.22 27.97 156.8 28.15C156.29 28.36 155.99 28.75 155.9 29.34C155.81 29.92 155.81 31.35 155.9 33.62C155.9 33.97 155.92 34.61 155.95 35.52C155.98 36.43 156.01 37.07 156.04 37.42C156.04 37.61 156.12 39.12 156.13 39.3C155.26 39.93 154.56 40.31 154.02 40.42C153.42 40.57 153.03 40.58 152.83 40.45C152.64 40.31 152.54 39.98 152.54 39.44C152.54 38.72 152.39 38.3 152.09 38.18C151.79 38.07 150.82 38 149.18 38C148.93 38 146.92 38 146.67 38C146.34 38.24 146.14 38.48 146.05 38.7C145.96 38.92 145.91 39.39 145.91 40.11C145.91 40.17 145.93 40.49 145.96 41.05C145.74 41.21 145.62 41.3 145.6 41.32ZM143.22 14.26C146.12 14.71 148.2 14.88 149.45 14.78C150.71 14.67 151.63 14.23 152.23 13.46C152.68 12.92 152.97 12.63 153.12 12.58C153.27 12.54 153.54 12.69 153.93 13.05C154.98 13.98 155.54 14.47 155.63 14.53C156.35 15.22 156.51 15.65 156.13 15.83C155.83 15.98 154.01 16.07 150.66 16.1C146.93 16.13 144.6 16.22 143.67 16.37C143.49 16.4 143.34 16.34 143.22 16.19C142.77 15.65 142.51 15.22 142.42 14.89C142.27 14.35 142.54 14.14 143.22 14.26ZM143.22 20.13C144.78 20.37 146.37 20.52 148.02 20.58C149.66 20.64 150.63 20.59 150.93 20.44C151.38 20.24 151.9 19.73 152.5 18.92C152.79 18.5 153.02 18.32 153.17 18.36C153.32 18.4 153.78 18.79 154.56 19.5C154.65 19.59 154.8 19.73 155.01 19.91C155.1 20 155.17 20.07 155.23 20.13C156.1 20.91 156.45 21.39 156.31 21.56C156.1 21.8 154.53 21.94 151.6 21.97C151.6 21.97 151.58 21.97 151.56 21.97L151.51 21.97L151.47 21.97L151.42 21.97L151.38 21.97L151.33 21.97L151.24 21.97L151.2 21.97L151.15 21.97L151.11 21.97L151.06 21.97L151.02 21.97L150.97 21.97L150.93 21.97L150.88 21.97L150.84 21.97L150.79 21.97L150.75 21.97L150.7 21.97L150.66 21.97C150.63 21.97 150.62 21.97 150.61 21.97C146.91 22 144.59 22.09 143.67 22.24C143.49 22.27 143.34 22.21 143.22 22.06C142.77 21.52 142.51 21.09 142.42 20.76C142.27 20.22 142.54 20.01 143.22 20.13ZM143.4 2.61C144.69 2.82 146.16 2.97 147.81 3.06C149.47 3.15 150.46 3.14 150.79 3.02C151.24 2.9 151.79 2.36 152.45 1.4C152.81 0.9 153.03 0.63 153.12 0.6C153.21 0.57 153.54 0.82 154.11 1.36C155.18 2.28 155.74 2.76 155.77 2.79C156.57 3.51 156.8 3.96 156.44 4.14C156.11 4.32 154.26 4.42 150.88 4.45C147.12 4.48 144.77 4.57 143.85 4.72C143.67 4.75 143.52 4.69 143.4 4.54C142.95 4 142.68 3.57 142.59 3.24C142.45 2.7 142.71 2.49 143.4 2.61ZM152.63 32.32C152.63 32.11 152.63 31.81 152.63 31.42C152.63 29.63 152.52 28.59 152.3 28.31C152.07 28.02 151.27 27.88 149.9 27.88C149.63 27.88 149.42 27.88 149.27 27.88C149.12 27.88 148.91 27.88 148.64 27.88C147.27 27.88 146.47 28.02 146.25 28.31C146.02 28.59 145.91 29.63 145.91 31.42C145.91 31.81 145.91 32.11 145.91 32.32C145.91 32.53 145.91 32.83 145.91 33.21C145.91 33.3 145.91 33.36 145.91 33.39C145.91 35.1 146.03 36.08 146.27 36.35C146.51 36.59 147.27 36.71 148.55 36.71C148.85 36.71 149.09 36.71 149.27 36.71C150.88 36.71 151.78 36.65 151.96 36.53C152.29 36.38 152.48 36.11 152.54 35.72C152.6 35.33 152.63 34.2 152.63 32.32ZM162.8 8.73C164.62 5.79 165.86 3.2 166.52 0.96C166.64 0.6 166.73 0.42 166.79 0.42C166.85 0.39 167.66 0.56 169.23 0.93C170.8 1.31 171.61 1.52 171.67 1.58C171.82 1.73 171.67 1.9 171.22 2.08C170.98 2.2 170.83 2.36 170.78 2.57C170.71 2.81 170.71 3 170.75 3.15C170.8 3.3 170.98 3.63 171.31 4.14C172.36 5.78 173.75 7.39 175.5 8.97C177.25 10.56 179.11 11.9 181.08 13.01C181.56 13.28 181.87 13.48 182.02 13.61C182.17 13.75 182.21 13.87 182.15 13.99C182.09 14.11 181.92 14.26 181.62 14.44C180.78 14.95 180.17 15.62 179.78 16.46C179.66 16.76 179.57 16.92 179.51 16.95C179.42 17.04 179.06 16.8 178.44 16.23C175.09 13.27 172.55 9.8 170.82 5.79C170.43 4.9 170.24 4.42 170.24 4.36C170.24 4.24 170.15 4.13 169.97 4.02C169.79 3.92 169.64 3.88 169.52 3.91C169.28 3.97 168.94 4.38 168.49 5.12C165.68 10.02 161.87 14.11 157.07 17.4C156.32 17.87 155.89 18.05 155.77 17.93C155.68 17.82 156.05 17.31 156.89 16.41C159.01 14.23 160.98 11.67 162.8 8.73ZM159.13 40.83C166.48 37.93 172.18 33.56 176.24 27.7C176.69 27.05 176.96 26.72 177.05 26.72C177.17 26.72 177.91 27.12 179.27 27.93C180.63 28.73 181.32 29.17 181.35 29.23C181.35 29.35 181.24 29.44 181.04 29.52C180.83 29.59 180.62 29.61 180.41 29.58C180.2 29.55 179.94 29.67 179.62 29.92C179.31 30.17 178.66 30.81 177.68 31.82C172.6 36.93 166.16 40.37 158.37 42.13C157.92 42.22 157.65 42.26 157.56 42.26C157.38 42.29 157.26 42.23 157.2 42.08C157.14 41.87 157.19 41.71 157.36 41.59C157.52 41.47 158.11 41.22 159.13 40.83ZM159.98 31.02C164.64 28.33 168.58 24.97 171.81 20.94C172.4 20.16 172.75 19.72 172.86 19.62C172.96 19.51 173.05 19.47 173.11 19.5C173.25 19.57 173.92 19.96 175.1 20.69C176.28 21.42 176.88 21.82 176.91 21.88C176.94 21.91 176.96 21.94 176.96 21.97C176.93 22.18 176.69 22.28 176.24 22.28C175.76 22.28 175.08 22.7 174.18 23.54C172 25.57 169.55 27.35 166.83 28.87C165.61 29.59 164.11 30.34 162.33 31.13C160.55 31.92 159.59 32.26 159.44 32.14C159.23 32.08 159.13 31.88 159.13 31.56C159.13 31.5 159.41 31.32 159.98 31.02ZM169.03 13.54C169.51 12.95 169.79 12.65 169.88 12.65C169.97 12.65 170.62 13.03 171.83 13.79C173.04 14.55 173.66 14.96 173.69 15.02C173.72 15.14 173.67 15.24 173.53 15.31C173.4 15.39 173.22 15.43 173.02 15.43C172.54 15.43 171.79 15.84 170.78 16.68C168.8 18.32 166.51 19.88 163.88 21.34C161.25 22.8 159.77 23.37 159.44 23.04C159.2 22.8 159.53 22.39 160.43 21.79C163.71 19.55 166.58 16.8 169.03 13.54Z" id="eg7BUJcoQ"></path><path d="M190.06 31.69C190.44 28.26 190.62 22.42 190.62 14.17C190.62 9.63 190.62 7.35 190.62 7.32C190.65 5.35 190.8 4.33 191.07 4.27C191.17 4.3 191.92 4.55 192.01 4.58C193.09 4.91 194.17 4.88 195.26 4.47C196.35 4.07 198.3 2.99 201.11 1.22C202.09 0.6 202.62 0.31 202.68 0.37C202.85 0.46 203.5 1 204.62 1.99C205.74 2.97 206.3 3.49 206.3 3.55C206.3 3.79 205.96 3.88 205.27 3.82C204.47 3.73 203.51 3.84 202.41 4.14C199.57 4.91 197.46 5.45 196.09 5.75C195.02 5.99 194.4 6.23 194.23 6.49C194.07 6.74 193.99 7.6 193.99 9.06C193.99 9.18 193.99 9.36 193.99 9.6C193.99 10.86 194.13 11.59 194.41 11.8C194.69 12.01 195.69 12.11 197.39 12.11C197.66 12.11 197.87 12.11 198.02 12.11C199.93 12.11 201.06 12.06 201.42 11.97C201.72 11.88 202.15 11.54 202.72 10.94C202.81 10.86 203.57 10.18 203.66 10.09C203.87 10.21 204.51 10.7 205.59 11.57C206.66 12.44 207.26 12.93 207.38 13.05C207.41 13.11 207.36 13.2 207.25 13.32C207.13 13.44 206.92 13.57 206.62 13.72C206.11 13.99 205.82 14.64 205.74 15.67C205.67 16.7 205.72 19.22 205.9 23.22C205.99 25.31 206.01 26.48 205.95 26.71C205.89 26.86 205.63 27.04 205.18 27.25C203.18 28.27 202.18 28.12 202.18 26.8C202.18 26.06 202.01 25.62 201.67 25.5C201.32 25.39 200.12 25.33 198.06 25.33C197.88 25.33 197.61 25.33 197.25 25.33C195.52 25.33 194.51 25.42 194.21 25.59C193.94 25.77 193.74 26.36 193.63 27.34C193.6 27.52 193.58 27.67 193.58 27.79C192.89 33.38 191.28 37.89 188.74 41.32C188.53 41.62 188.35 41.85 188.2 42.01C188.05 42.18 187.93 42.29 187.82 42.35C187.72 42.41 187.63 42.42 187.55 42.39C187.48 42.36 187.41 42.29 187.35 42.17C187.26 42.08 187.37 41.7 187.67 41.01C188.89 38.23 189.69 35.12 190.06 31.69ZM202.27 18.79C202.27 16.46 202.27 15.26 202.27 15.2C202.21 14.25 201.93 13.68 201.42 13.5C201.21 13.44 200.11 13.41 198.11 13.41C197.84 13.41 197.46 13.41 196.99 13.41C195.43 13.38 194.53 13.54 194.28 13.88C194.02 14.22 193.91 15.43 193.94 17.49C193.94 18.11 193.94 18.61 193.94 18.97C193.97 21 193.98 22.06 193.98 22.15C194.01 23.16 194.27 23.76 194.75 23.94C194.95 24 195.98 24.06 197.84 24.12C198.16 24.13 200.74 24.2 201.06 24.21C201.21 24.21 201.41 24.15 201.65 24.03C201.97 23.88 202.16 23.6 202.21 23.18C202.25 22.76 202.27 21.3 202.27 18.79ZM218.58 15.52C220.79 15.52 222.07 15.41 222.43 15.2C222.64 15.08 223.06 14.62 223.69 13.81C223.93 13.46 224.1 13.21 224.2 13.08C224.31 12.94 224.43 12.87 224.56 12.85C224.7 12.84 224.8 12.85 224.87 12.9C224.95 12.94 225.1 13.07 225.34 13.28C225.55 13.46 225.73 13.61 225.88 13.72C227.58 15.16 228.42 16.02 228.39 16.32C228.33 16.62 227.46 16.79 225.79 16.82C224.6 16.85 223.86 16.89 223.57 16.95C223.29 17.01 223.09 17.19 222.97 17.49C222.88 17.67 222.84 20.27 222.84 25.31C222.84 30.34 222.86 33.69 222.93 35.36C222.93 35.72 222.94 36.36 222.97 37.29C223 38.22 223.03 38.86 223.06 39.22C223.07 39.41 223.14 40.95 223.15 41.14C222.67 41.53 222.09 41.87 221.4 42.15C220.71 42.44 220.13 42.52 219.66 42.4C219.21 42.31 218.95 42.11 218.89 41.79C218.83 41.48 218.85 40.64 218.94 39.26C219.15 35.74 219.25 31.11 219.25 25.37C219.25 21.31 219.24 19.07 219.21 18.65C219.12 17.58 218.82 16.98 218.31 16.86C218.22 16.83 217.41 16.82 215.89 16.82C214.28 16.85 213.36 16.96 213.14 17.15C212.91 17.35 212.76 18.15 212.67 19.55C212.37 24.54 211.45 28.79 209.91 32.3C208.37 35.81 206.12 38.8 203.17 41.28C202.66 41.67 202.35 41.89 202.25 41.95C202.14 42.01 202.02 41.98 201.87 41.86C201.69 41.68 201.87 41.25 202.41 40.56C205.78 36.35 207.92 31.15 208.81 24.97C209.2 22.19 209.38 18.34 209.35 13.41C209.32 8.48 209.1 5.23 208.68 3.64C208.68 3.58 208.68 3.54 208.68 3.51C208.68 3.36 209.39 3.51 210.83 3.96C212.11 4.35 212.96 4.55 213.38 4.56C213.8 4.58 214.44 4.4 215.31 4.05C218.38 2.76 220.77 1.58 222.48 0.51C222.69 0.36 222.83 0.28 222.92 0.28C223.01 0.28 223.72 0.89 225.05 2.1C226.38 3.31 227.05 3.94 227.05 4C227.05 4.24 226.72 4.33 226.06 4.27C225.19 4.18 224.63 4.15 224.38 4.18C224.13 4.21 223.39 4.36 222.16 4.63C218.4 5.4 215.92 5.88 214.72 6.06C213.71 6.21 213.13 6.45 213 6.78C212.86 7.11 212.78 8.41 212.75 10.67C212.75 12.98 212.78 14.27 212.82 14.57C212.86 14.87 213.13 15.18 213.6 15.51C213.88 15.51 215.24 15.51 217.68 15.51C218.04 15.51 218.34 15.52 218.58 15.52Z" id="daRDBVobH"></path><path d="M69.49 321.02C69.01 320.45 68.62 319.79 68.33 319.05C68.04 318.32 67.88 317.57 67.83 316.79C67.78 316.02 67.85 315.24 68.05 314.47C68.24 313.71 68.54 313 68.95 312.37C69.36 311.73 69.91 311.18 70.6 310.7C71.3 310.23 72.09 309.9 72.98 309.71C73.81 309.55 74.68 309.53 75.58 309.64C76.48 309.75 77.28 309.98 77.96 310.32C78.13 310.4 78.23 310.47 78.25 310.51C78.29 310.58 78.31 311.06 78.32 311.94C78.32 311.98 78.32 312.03 78.32 312.08C78.35 312.85 78.33 313.27 78.29 313.34C78.25 313.38 78.11 313.39 77.85 313.39C77.58 313.39 77.41 313.37 77.37 313.31C77.32 313.25 77.25 312.96 77.14 312.44C76.98 311.64 76.83 311.15 76.69 310.96C76.55 310.78 76.21 310.63 75.65 310.51C74.77 310.31 73.94 310.34 73.16 310.62C72.38 310.89 71.73 311.35 71.21 311.97C70.69 312.59 70.31 313.39 70.06 314.35C69.81 315.31 69.75 316.34 69.88 317.43C70.08 319.2 70.73 320.52 71.82 321.39C72.9 322.26 74.26 322.53 75.88 322.2C76.06 322.17 76.18 322.14 76.24 322.13C76.53 322.05 76.71 321.89 76.8 321.65C76.89 321.36 76.91 320.36 76.85 318.65C76.85 318.6 76.85 318.54 76.85 318.47C76.84 317.98 76.78 317.69 76.67 317.61C76.59 317.53 76.26 317.46 75.67 317.42C75.22 317.38 74.96 317.35 74.9 317.31C74.83 317.28 74.8 317.17 74.8 317C74.8 316.98 74.81 316.89 74.82 316.72C76.3 316.71 77.12 316.71 77.28 316.71C78.87 316.71 79.7 316.73 79.78 316.78C79.83 316.8 79.85 316.88 79.85 317.02C79.85 317.18 79.83 317.28 79.79 317.31C79.75 317.35 79.62 317.38 79.4 317.4C79.27 317.41 79.2 317.42 79.19 317.42C78.95 317.45 78.8 317.56 78.74 317.75C78.66 317.99 78.61 319.01 78.6 320.82C78.6 320.93 78.6 321.88 78.6 322C78.17 322.33 77.47 322.62 76.48 322.85C75.5 323.09 74.61 323.18 73.81 323.12C72.91 323.06 72.09 322.84 71.34 322.46C70.6 322.08 69.98 321.6 69.49 321.02Z" id="fd0fF1Bnu"></path><path d="M84.75 321.53C84.44 321.12 84.18 320.66 83.99 320.15C83.79 319.65 83.69 319.13 83.68 318.59C83.68 318.06 83.72 317.53 83.82 317.01C83.92 316.48 84.11 315.99 84.39 315.53C84.66 315.08 84.99 314.68 85.37 314.34C85.74 314.01 86.2 313.76 86.74 313.59C87.29 313.42 87.88 313.37 88.51 313.42C89.95 313.55 91.04 314.22 91.81 315.43C92.57 316.64 92.79 318.02 92.45 319.58C92.2 320.73 91.62 321.63 90.72 322.29C89.83 322.95 88.81 323.21 87.68 323.08C87.05 323.02 86.48 322.84 85.97 322.57C85.47 322.29 85.06 321.94 84.75 321.53ZM90.7 316.86C90.61 316.3 90.43 315.82 90.17 315.39C89.91 314.97 89.62 314.66 89.29 314.46C88.96 314.25 88.6 314.14 88.22 314.11C87.84 314.08 87.48 314.15 87.14 314.31C86.81 314.47 86.5 314.74 86.22 315.12C85.95 315.51 85.74 315.97 85.62 316.51C85.39 317.71 85.35 318.78 85.52 319.69C85.69 320.61 86.06 321.32 86.63 321.82C87.2 322.32 87.88 322.48 88.65 322.32C89.49 322.16 90.09 321.56 90.48 320.53C90.87 319.49 90.94 318.27 90.7 316.86Z" id="autslQJVM"></path><path d="M96.69 327.01C96.72 326.97 96.91 326.92 97.27 326.85C97.32 326.84 97.41 326.83 97.52 326.82C97.63 326.82 97.7 326.81 97.73 326.8C97.94 326.76 98.08 326.62 98.15 326.36C98.23 326.02 98.27 324.59 98.27 322.1C98.27 321.53 98.27 321.08 98.27 320.76C98.27 320.46 98.27 320.04 98.27 319.51C98.27 317.35 98.24 316.09 98.18 315.72C98.11 315.36 97.9 315.16 97.53 315.14C97.41 315.14 97.32 315.14 97.27 315.12C96.97 315.09 96.79 315.05 96.73 315.02C96.67 314.98 96.64 314.9 96.64 314.76C96.64 314.63 96.7 314.53 96.81 314.46C96.93 314.39 97.33 314.23 98.01 313.96C98.81 313.65 99.28 313.49 99.42 313.48C99.56 313.48 99.64 313.63 99.66 313.93C99.69 314.26 99.77 314.45 99.88 314.49C99.99 314.53 100.19 314.43 100.47 314.2C101.09 313.74 101.72 313.47 102.37 313.4C103.01 313.32 103.6 313.43 104.12 313.72C104.64 314.01 105.1 314.43 105.51 314.97C105.92 315.52 106.19 316.19 106.32 316.96C106.45 317.73 106.44 318.57 106.3 319.46C106 321.04 105.23 322.14 104 322.76C102.77 323.38 101.57 323.26 100.4 322.41C100.15 322.22 99.99 322.16 99.92 322.23C99.84 322.35 99.8 323.08 99.8 324.44C99.8 324.55 99.8 324.7 99.8 324.89C99.8 324.92 99.8 324.94 99.8 324.96C99.81 325.87 99.86 326.4 99.95 326.55C100.03 326.67 100.28 326.75 100.68 326.81C100.77 326.82 100.85 326.83 100.91 326.85C101.3 326.89 101.53 326.94 101.58 327C101.61 327.05 101.62 327.13 101.61 327.24C101.6 327.36 101.59 327.44 101.57 327.47C101.52 327.52 100.71 327.54 99.13 327.54C97.55 327.54 96.74 327.52 96.69 327.47C96.66 327.44 96.64 327.36 96.64 327.23C96.64 327.1 96.66 327.03 96.69 327.01ZM104.65 319.37C104.74 318.71 104.76 318.05 104.71 317.39C104.65 316.72 104.47 316.13 104.16 315.59C103.85 315.06 103.46 314.7 102.97 314.52C102.51 314.34 101.94 314.36 101.26 314.57C100.59 314.78 100.14 315.08 99.92 315.47C99.92 315.48 99.89 315.53 99.85 315.61L99.85 321.01C99.9 321.11 99.93 321.17 99.94 321.18C100.04 321.38 100.27 321.57 100.61 321.75C100.95 321.94 101.29 322.06 101.64 322.11C101.74 322.13 101.92 322.12 102.18 322.11C102.44 322.09 102.63 322.07 102.73 322.04C103.23 321.91 103.65 321.59 103.99 321.09C104.33 320.59 104.55 320.02 104.65 319.37Z" id="e73pRBfLkN"></path><path d="M110.49 322.29C110.5 322.29 110.57 322.27 110.58 322.27C110.63 322.26 110.69 322.25 110.77 322.24C110.85 322.22 110.93 322.21 111.01 322.2C111.46 322.14 111.72 322.06 111.78 321.96C111.85 321.86 111.89 321.47 111.91 320.81C111.94 319.89 111.94 317.91 111.93 314.88C111.92 311.85 111.9 310.31 111.88 310.25C111.81 310.1 111.5 310 110.96 309.94C110.66 309.92 110.48 309.89 110.43 309.85C110.38 309.82 110.35 309.73 110.35 309.59C110.35 309.45 110.41 309.36 110.53 309.31C110.64 309.25 111.09 309.12 111.86 308.9C111.98 308.86 112.14 308.82 112.35 308.76C112.35 308.76 112.35 308.76 112.36 308.76L112.38 308.76L112.4 308.74L112.42 308.74C112.43 308.74 112.43 308.74 112.43 308.74C112.99 308.58 113.32 308.54 113.42 308.62C113.5 308.7 113.54 309.04 113.53 309.64C113.51 309.86 113.51 310.04 113.51 310.16C113.5 310.6 113.49 310.96 113.49 311.24C113.45 313.32 113.49 314.48 113.63 314.71C113.71 314.85 113.9 314.79 114.2 314.55C115.15 313.8 116.1 313.42 117.06 313.42C118.02 313.41 118.69 313.78 119.08 314.52C119.28 314.91 119.41 315.31 119.45 315.72C119.49 316.13 119.52 317.21 119.55 318.94C119.55 320.04 119.55 320.62 119.56 320.67C119.57 321.48 119.64 321.95 119.77 322.06C119.83 322.1 120.04 322.14 120.4 322.2C120.65 322.25 120.8 322.29 120.86 322.32C120.91 322.36 120.93 322.44 120.93 322.58C120.93 322.71 120.92 322.78 120.88 322.79C120.81 322.85 120.08 322.88 118.69 322.88C117.37 322.88 116.65 322.86 116.54 322.83C116.49 322.8 116.46 322.72 116.46 322.58C116.46 322.44 116.49 322.36 116.54 322.32C116.6 322.29 116.76 322.25 117.03 322.2C117.09 322.19 117.16 322.18 117.26 322.17C117.6 322.13 117.8 322.01 117.85 321.81C117.91 321.61 117.93 320.91 117.93 319.72C117.93 319.4 117.93 319.14 117.93 318.96C117.93 317.41 117.92 316.48 117.9 316.18C117.87 315.88 117.8 315.61 117.67 315.35C117.38 314.82 116.84 314.58 116.05 314.63C115.26 314.68 114.53 315.01 113.86 315.61C113.68 315.77 113.58 315.93 113.56 316.09C113.54 316.26 113.52 316.89 113.51 317.99C113.51 319.03 113.51 319.66 113.51 319.89C113.51 321.08 113.58 321.77 113.73 321.96C113.8 322.06 114.02 322.14 114.38 322.2C114.68 322.25 114.84 322.28 114.86 322.29C114.88 322.3 114.9 322.39 114.9 322.55C114.9 322.71 114.88 322.81 114.86 322.84C114.83 322.86 114.1 322.88 112.68 322.88C111.25 322.88 110.52 322.86 110.49 322.84C110.47 322.82 110.46 322.73 110.46 322.57C110.46 322.4 110.47 322.31 110.49 322.29Z" id="a48Rws8ER"></path><path d="M125.44 320.48C125.17 319.8 125.04 319.07 125.05 318.27C125.06 317.48 125.22 316.74 125.51 316.06C125.81 315.38 126.27 314.79 126.9 314.29C127.53 313.79 128.27 313.51 129.13 313.42C129.96 313.34 130.72 313.5 131.4 313.9C132.08 314.3 132.58 314.86 132.88 315.59C133.19 316.32 133.25 317.1 133.07 317.92C133.07 317.93 133.07 317.94 133.07 317.97C133.05 318.07 132.92 318.13 132.66 318.15C132.4 318.17 131.52 318.18 130.01 318.18C128.13 318.18 127.12 318.2 126.98 318.25C126.92 318.27 126.87 318.34 126.82 318.45C126.78 318.58 126.79 318.83 126.86 319.19C126.93 319.56 127.02 319.89 127.13 320.19C127.41 320.87 127.86 321.38 128.49 321.71C129.11 322.04 129.78 322.14 130.51 322.01C131.23 321.88 131.86 321.55 132.41 321C132.59 320.82 132.72 320.73 132.8 320.73C132.87 320.73 132.97 320.79 133.08 320.92C132.76 321.65 132.22 322.21 131.45 322.61C130.69 323.01 129.86 323.17 128.97 323.08C128.12 323.01 127.38 322.72 126.77 322.24C126.16 321.75 125.71 321.17 125.44 320.48ZM130.34 314.34C129.73 314.06 129.12 314.06 128.51 314.34C127.91 314.63 127.45 315.14 127.15 315.87C126.99 316.25 126.89 316.59 126.87 316.89C126.84 317.18 126.89 317.35 127.01 317.4C127.14 317.44 127.78 317.47 128.93 317.48C130.08 317.5 130.73 317.48 130.9 317.43C131.46 317.27 131.68 316.79 131.53 316C131.39 315.21 130.99 314.66 130.34 314.34Z" id="b3h1xX6151"></path><path d="M137.57 322.29C137.57 322.29 137.63 322.27 137.64 322.27C137.68 322.26 137.75 322.25 137.83 322.24C137.91 322.22 137.99 322.21 138.07 322.2C138.1 322.2 138.16 322.2 138.23 322.18C138.61 322.14 138.83 321.98 138.89 321.72C138.96 321.45 138.99 320.54 138.99 318.99C138.99 318.75 138.99 318.56 138.99 318.44C138.99 317.51 138.99 316.97 138.99 316.81C138.98 315.94 138.9 315.44 138.75 315.3C138.67 315.23 138.42 315.17 138 315.12C137.4 315.05 137.21 314.85 137.43 314.52C137.44 314.48 137.87 314.3 138.73 313.96C139.58 313.63 140.04 313.46 140.1 313.46C140.16 313.46 140.22 313.49 140.28 313.55C140.35 313.62 140.38 313.68 140.38 313.74C140.38 313.83 140.4 314.06 140.44 314.43C140.48 314.8 140.5 315.01 140.52 315.07C140.54 315.14 140.56 315.2 140.59 315.25C140.68 315.4 140.87 315.26 141.18 314.83C141.6 314.22 142.09 313.8 142.64 313.57C143.19 313.35 143.71 313.35 144.19 313.58C144.48 313.71 144.67 313.86 144.74 314.05C144.82 314.24 144.81 314.47 144.71 314.76C144.59 315.13 144.32 315.35 143.92 315.41C143.51 315.47 143.12 315.36 142.75 315.07C142.53 314.92 142.36 314.85 142.23 314.86C142.11 314.86 141.94 314.96 141.75 315.16C141.2 315.7 140.84 316.36 140.64 317.12C140.59 317.3 140.58 318.12 140.59 319.56C140.6 321.01 140.63 321.77 140.67 321.85C140.73 321.96 140.82 322.03 140.94 322.06C141.06 322.1 141.39 322.16 141.92 322.25C141.94 322.25 142.03 322.27 142.2 322.29C142.21 322.44 142.22 322.53 142.22 322.55C142.22 322.69 142.2 322.78 142.18 322.82C142.16 322.86 141.39 322.88 139.88 322.88C138.37 322.88 137.6 322.86 137.57 322.84C137.54 322.82 137.53 322.73 137.53 322.57C137.53 322.4 137.54 322.31 137.57 322.29Z" id="ekxwTlwke"></path><path d="M158.05 315.47C157.82 314.68 157.63 314 157.47 313.44C157.32 312.88 157.18 312.42 157.06 312.07C156.94 311.71 156.84 311.44 156.77 311.23C156.7 311.03 156.62 310.89 156.54 310.8C156.45 310.71 156.38 310.66 156.32 310.64C156.26 310.62 156.16 310.62 156.02 310.62C155.92 310.62 155.84 310.61 155.78 310.6C155.42 310.57 155.22 310.53 155.17 310.5C155.11 310.47 155.09 310.37 155.09 310.2C155.09 310.18 155.1 310.07 155.11 309.89C156.65 309.88 157.5 309.87 157.67 309.87C159.29 309.87 160.15 309.9 160.26 309.96C160.29 309.97 160.31 310.05 160.31 310.2C160.31 310.36 160.28 310.46 160.23 310.49C160.18 310.53 159.99 310.56 159.67 310.6C159.37 310.62 159.19 310.64 159.15 310.65C158.83 310.7 158.67 310.81 158.64 310.98C158.62 311.14 158.75 311.75 159.04 312.82C159.54 314.7 159.89 316 160.08 316.72C160.56 318.48 160.85 319.41 160.97 319.53C161.05 319.61 161.15 319.53 161.26 319.29C161.33 319.14 161.78 317.76 162.61 315.17C163.43 312.57 163.85 311.23 163.87 311.14C163.88 310.95 163.83 310.83 163.73 310.77C163.62 310.71 163.32 310.66 162.82 310.6C162.43 310.55 162.21 310.51 162.15 310.49C162.09 310.46 162.06 310.36 162.06 310.2C162.06 310.06 162.08 309.98 162.11 309.96C162.22 309.9 163.07 309.87 164.66 309.87C166.27 309.87 167.13 309.9 167.23 309.96C167.26 309.97 167.28 310.05 167.28 310.2C167.28 310.36 167.25 310.46 167.2 310.49C167.14 310.51 166.9 310.56 166.48 310.62C165.92 310.67 165.59 310.76 165.5 310.86C165.4 310.96 165.43 311.22 165.56 311.64C166.8 315.56 167.54 317.86 167.77 318.55C168 319.24 168.15 319.58 168.24 319.58C168.29 319.58 168.33 319.56 168.36 319.53C168.44 319.43 168.86 317.94 169.62 315.07C169.7 314.77 169.81 314.37 169.95 313.88C170.16 313.1 170.32 312.49 170.44 312.06C170.55 311.62 170.6 311.3 170.58 311.1C170.57 310.9 170.52 310.79 170.45 310.75C170.37 310.71 170.21 310.67 169.97 310.65C169.83 310.64 169.73 310.63 169.66 310.62C169.27 310.56 169.06 310.52 169.01 310.49C168.97 310.47 168.94 310.37 168.94 310.2C168.95 310.18 168.95 310.07 168.96 309.89C170.25 309.88 170.97 309.87 171.11 309.87C172.45 309.87 173.18 309.89 173.28 309.94C173.33 309.96 173.35 310.05 173.35 310.2C173.35 310.36 173.32 310.46 173.27 310.49C173.22 310.53 173.04 310.56 172.74 310.6C172.3 310.64 172.02 310.7 171.89 310.75C171.75 310.81 171.66 310.92 171.6 311.08C171.53 311.21 170.99 313.19 169.97 317.03C169.79 317.69 169.57 318.53 169.29 319.55C168.76 321.52 168.45 322.62 168.35 322.82C168.3 322.97 168.22 323.03 168.11 323C168.05 322.99 168.01 322.98 167.97 322.98C167.75 322.98 167.62 322.97 167.58 322.95C167.54 322.92 167.49 322.81 167.44 322.62C166.85 320.75 166.2 318.76 165.49 316.62C164.79 314.49 164.41 313.39 164.35 313.32C164.34 313.31 164.33 313.29 164.31 313.27C164.23 313.17 164.16 313.17 164.11 313.25C163.98 313.44 163.39 315.21 162.35 318.57C161.51 321.3 161.04 322.77 160.95 322.98C160.91 322.98 160.64 322.98 160.6 322.98C160.37 322.98 160.24 322.96 160.2 322.93C160.18 322.91 159.61 320.93 158.49 317C158.38 316.63 158.24 316.12 158.05 315.47Z" id="a2mOEXGXuF"></path><path d="M176.74 321.53C176.43 321.12 176.18 320.66 175.98 320.15C175.78 319.65 175.68 319.13 175.68 318.59C175.67 318.06 175.72 317.53 175.82 317.01C175.91 316.48 176.1 315.99 176.38 315.53C176.66 315.08 176.98 314.68 177.36 314.34C177.73 314.01 178.19 313.76 178.74 313.59C179.28 313.42 179.87 313.37 180.51 313.42C181.94 313.55 183.04 314.22 183.8 315.43C184.57 316.64 184.78 318.02 184.44 319.58C184.19 320.73 183.61 321.63 182.72 322.29C181.82 322.95 180.81 323.21 179.67 323.08C179.04 323.02 178.47 322.84 177.97 322.57C177.46 322.29 177.06 321.94 176.74 321.53ZM182.69 316.86C182.6 316.3 182.42 315.82 182.17 315.39C181.9 314.97 181.61 314.66 181.28 314.46C180.95 314.25 180.6 314.14 180.21 314.11C179.83 314.08 179.47 314.15 179.14 314.31C178.8 314.47 178.5 314.74 178.22 315.12C177.94 315.51 177.74 315.97 177.61 316.51C177.38 317.71 177.35 318.78 177.52 319.69C177.69 320.61 178.06 321.32 178.63 321.82C179.2 322.32 179.87 322.48 180.65 322.32C181.48 322.16 182.09 321.56 182.48 320.53C182.86 319.49 182.94 318.27 182.69 316.86Z" id="b28BCL8o2c"></path><path d="M190.07 321.53C189.76 321.12 189.51 320.66 189.31 320.15C189.11 319.65 189.01 319.13 189.01 318.59C189 318.06 189.05 317.53 189.15 317.01C189.24 316.48 189.43 315.99 189.71 315.53C189.99 315.08 190.31 314.68 190.69 314.34C191.06 314.01 191.52 313.76 192.07 313.59C192.61 313.42 193.2 313.37 193.84 313.42C195.27 313.55 196.37 314.22 197.13 315.43C197.9 316.64 198.11 318.02 197.77 319.58C197.52 320.73 196.94 321.63 196.05 322.29C195.15 322.95 194.14 323.21 193 323.08C192.37 323.02 191.8 322.84 191.3 322.57C190.79 322.29 190.39 321.94 190.07 321.53ZM196.02 316.86C195.93 316.3 195.75 315.82 195.5 315.39C195.23 314.97 194.94 314.66 194.61 314.46C194.28 314.25 193.93 314.14 193.54 314.11C193.16 314.08 192.8 314.15 192.47 314.31C192.13 314.47 191.83 314.74 191.55 315.12C191.27 315.51 191.07 315.97 190.94 316.51C190.71 317.71 190.68 318.78 190.85 319.69C191.02 320.61 191.39 321.32 191.96 321.82C192.53 322.32 193.2 322.48 193.98 322.32C194.81 322.16 195.42 321.56 195.81 320.53C196.19 319.49 196.27 318.27 196.02 316.86Z" id="b4oRtW2ziE"></path><path d="M208.36 314.05C208.64 314.25 208.82 314.32 208.9 314.26C208.98 314.17 209.02 313.54 209.02 312.37C209.02 312.3 209.02 312.25 209.02 312.21C209.02 312.11 209.02 311.97 209.02 311.8C209.02 310.85 208.98 310.31 208.9 310.18C208.83 310.07 208.62 310 208.26 309.98C208.19 309.96 208.13 309.96 208.09 309.96C207.75 309.93 207.55 309.91 207.5 309.87C207.44 309.84 207.41 309.74 207.41 309.59C207.41 309.44 207.45 309.35 207.54 309.31C207.63 309.27 208.09 309.13 208.94 308.9C209.05 308.87 209.21 308.82 209.42 308.76C209.47 308.75 209.51 308.74 209.54 308.73C210.1 308.58 210.42 308.54 210.51 308.62C210.6 308.7 210.63 309.05 210.62 309.65C210.61 309.87 210.6 310.04 210.6 310.17C210.57 311.58 210.55 313.87 210.57 317.05C210.58 320.23 210.61 321.85 210.65 321.91C210.71 322 210.79 322.06 210.9 322.1C211 322.13 211.24 322.17 211.61 322.22C211.88 322.25 212.05 322.29 212.09 322.32C212.14 322.36 212.16 322.44 212.16 322.58C212.16 322.73 212.11 322.82 212.01 322.85C211.9 322.88 211.45 322.92 210.65 322.97C209.85 323.02 209.4 323.04 209.3 323.03C209.19 323.01 209.14 322.91 209.13 322.72C209.09 322.38 209.03 322.18 208.94 322.12C208.86 322.07 208.68 322.15 208.41 322.36C207.92 322.77 207.33 323.02 206.66 323.09C205.96 323.16 205.31 323.05 204.73 322.77C204.14 322.5 203.68 322.11 203.34 321.6C203 321.1 202.73 320.53 202.53 319.9C202.32 319.27 202.25 318.62 202.31 317.94C202.37 317.27 202.5 316.63 202.72 316.04C202.93 315.44 203.28 314.92 203.76 314.47C204.24 314.02 204.8 313.7 205.45 313.53C206.56 313.25 207.52 313.41 208.33 314.02C208.34 314.03 208.35 314.04 208.36 314.05ZM208.94 321.01C208.97 320.91 208.99 320.03 209.01 318.36C209.02 316.69 209.01 315.77 208.97 315.61C208.91 315.31 208.65 315.03 208.18 314.78C207.71 314.52 207.24 314.4 206.77 314.4C205.95 314.4 205.3 314.71 204.82 315.33C204.34 315.94 204.07 316.82 204.01 317.95C203.93 319.42 204.24 320.55 204.94 321.34C205.64 322.14 206.52 322.36 207.59 322.01C207.89 321.93 208.16 321.79 208.42 321.6C208.67 321.4 208.84 321.2 208.94 321.01Z" id="bXVuodSEF"></path><path d="M223.32 316.36C223.32 314.89 223.68 313.6 224.39 312.48C225.11 311.37 226.08 310.56 227.32 310.05C228.55 309.55 229.89 309.43 231.33 309.7C231.76 309.78 232.23 309.91 232.74 310.1C233.26 310.29 233.54 310.44 233.59 310.55C233.61 310.58 233.62 311.04 233.62 311.93C233.62 312.82 233.61 313.29 233.6 313.32C233.58 313.34 233.41 313.36 233.1 313.36C232.79 313.36 232.63 313.34 232.61 313.32C232.59 313.3 232.53 312.99 232.43 312.38C232.27 311.63 232.17 311.19 232.12 311.06C232.07 310.92 231.93 310.81 231.71 310.72C230.83 310.37 229.98 310.29 229.14 310.48C228.3 310.66 227.54 311.12 226.87 311.84C226.19 312.56 225.74 313.42 225.51 314.43C225.21 315.7 225.17 316.87 225.39 317.93C225.62 319 226 319.89 226.55 320.61C227.09 321.34 227.8 321.84 228.69 322.12C229.57 322.41 230.52 322.4 231.54 322.12C231.92 322.01 232.16 321.89 232.24 321.75C232.33 321.61 232.44 321.18 232.58 320.45C232.7 319.86 232.78 319.53 232.83 319.46C232.87 319.39 233.03 319.36 233.31 319.36C233.55 319.36 233.7 319.38 233.76 319.43C233.8 319.48 233.81 319.93 233.8 320.76C233.8 321.54 233.78 321.98 233.76 322.08C233.74 322.18 233.63 322.28 233.45 322.37C232.25 322.96 230.88 323.21 229.36 323.12C227.54 323.01 226.08 322.33 224.98 321.08C223.87 319.84 223.32 318.27 223.32 316.36Z" id="a2C1txhVje"></path><path d="M238.47 322.2C238.93 322.14 239.2 322.06 239.27 321.96C239.34 321.85 239.38 321.5 239.41 320.88C239.43 319.99 239.43 318.01 239.42 314.94C239.41 311.87 239.4 310.31 239.37 310.25C239.3 310.1 239 310 238.45 309.94C238.15 309.92 237.98 309.89 237.92 309.85C237.87 309.82 237.85 309.73 237.85 309.59C237.85 309.45 237.9 309.36 238.02 309.31C238.13 309.26 238.59 309.12 239.39 308.9C240.13 308.7 240.52 308.6 240.55 308.59C240.84 308.54 241.01 308.62 241.05 308.81C241.08 308.91 241.07 309.46 241.04 310.46C241.02 310.97 241.02 312.71 241.02 315.69C241.02 318.67 241.02 320.45 241.04 321.04C241.06 321.56 241.11 321.87 241.18 321.97C241.26 322.07 241.53 322.14 241.99 322.2C242.29 322.25 242.5 322.33 242.61 322.45C242.72 322.57 242.7 322.7 242.56 322.84C242.52 322.88 241.74 322.89 240.22 322.89C238.71 322.88 237.93 322.86 237.9 322.83C237.86 322.79 237.84 322.71 237.84 322.58C237.85 322.46 237.86 322.37 237.9 322.32C237.91 322.29 238.1 322.25 238.47 322.2Z" id="a1BIfzd1GU"></path><path d="M246.55 322.29C246.6 322.28 247.03 322.21 247.08 322.2C247.12 322.2 247.17 322.2 247.24 322.18C247.64 322.14 247.88 321.98 247.94 321.71C248 321.44 248.04 320.52 248.04 318.98C248.04 318.74 248.04 318.57 248.04 318.44C248.04 317.4 248.04 316.79 248.04 316.62C248.01 315.83 247.92 315.37 247.74 315.23C247.65 315.16 247.36 315.11 246.87 315.07C246.63 315.06 246.49 315.04 246.46 315.01C246.42 314.98 246.41 314.89 246.41 314.74C246.41 314.59 246.45 314.49 246.55 314.45C246.64 314.4 247.08 314.23 247.88 313.95C248.67 313.67 249.1 313.52 249.18 313.49C249.33 313.46 249.47 313.49 249.6 313.58C249.6 313.99 249.61 317.25 249.62 317.66C249.62 317.95 249.62 318.33 249.62 318.82C249.62 320.47 249.64 321.43 249.68 321.71C249.73 321.98 249.9 322.13 250.21 322.17C250.31 322.18 250.39 322.19 250.45 322.2C250.52 322.21 250.59 322.22 250.67 322.23C250.74 322.25 250.8 322.26 250.85 322.27C250.85 322.27 250.91 322.29 250.92 322.29C250.94 322.31 250.95 322.4 250.95 322.56C250.95 322.73 250.94 322.82 250.92 322.84C250.88 322.86 250.15 322.88 248.73 322.88C247.31 322.88 246.58 322.86 246.55 322.84C246.52 322.82 246.51 322.73 246.51 322.57C246.51 322.4 246.52 322.31 246.55 322.29ZM247.62 309.53C247.75 309.21 247.99 308.99 248.33 308.86C248.74 308.72 249.12 308.77 249.48 309.01C249.84 309.25 250.02 309.57 250.02 309.97C250.02 310.37 249.84 310.69 249.5 310.93C249.16 311.17 248.79 311.23 248.4 311.1C248.04 310.99 247.79 310.77 247.65 310.47C247.5 310.16 247.49 309.85 247.62 309.53Z" id="d3xX2w6O0L"></path><path d="M255.64 322.2C255.68 322.2 255.72 322.2 255.78 322.18C256.18 322.14 256.4 321.98 256.47 321.71C256.53 321.43 256.56 320.52 256.56 318.97C256.56 318.73 256.56 318.55 256.56 318.42C256.56 317.52 256.56 316.99 256.56 316.82C256.55 315.94 256.47 315.44 256.32 315.3C256.24 315.23 255.99 315.17 255.58 315.12C254.97 315.05 254.78 314.85 255 314.52C255.02 314.48 255.45 314.3 256.3 313.96C257.16 313.63 257.62 313.46 257.67 313.46C257.72 313.46 257.78 313.49 257.85 313.55C257.92 313.61 257.95 313.66 257.95 313.7C257.95 313.86 257.96 314.01 257.97 314.14C258.04 314.78 258.24 314.98 258.58 314.73C259.05 314.34 259.48 314.06 259.86 313.88C260.76 313.44 261.58 313.31 262.31 313.49C263.03 313.68 263.53 314.14 263.8 314.88C263.92 315.24 264 315.6 264.02 315.97C264.05 316.34 264.07 317.33 264.09 318.94C264.09 320.03 264.1 320.6 264.11 320.67C264.12 321.48 264.2 321.95 264.33 322.06C264.38 322.1 264.59 322.14 264.96 322.2C265.23 322.25 265.38 322.28 265.42 322.31C265.46 322.34 265.48 322.43 265.48 322.56C265.48 322.7 265.46 322.78 265.43 322.81C265.35 322.85 264.62 322.88 263.26 322.88C263.11 322.88 262.91 322.88 262.65 322.88C261.84 322.88 261.37 322.87 261.23 322.85C261.09 322.83 261.03 322.76 261.04 322.63C261.04 322.6 261.04 322.58 261.04 322.56C261.04 322.42 261.06 322.33 261.09 322.3C261.13 322.28 261.29 322.25 261.6 322.2C261.64 322.19 261.71 322.18 261.8 322.17C262.09 322.13 262.28 322.06 262.36 321.94C262.45 321.77 262.5 321.07 262.5 319.86C262.5 319.56 262.5 319.32 262.5 319.15C262.5 318.33 262.49 317.69 262.48 317.25C262.47 316.8 262.45 316.41 262.41 316.05C262.38 315.7 262.32 315.45 262.23 315.29C262.14 315.13 262.04 315.01 261.92 314.92C261.81 314.82 261.65 314.75 261.44 314.69C260.96 314.56 260.36 314.64 259.64 314.92C258.91 315.21 258.45 315.55 258.25 315.94C258.24 315.95 258.21 316.01 258.16 316.11C258.16 317.8 258.16 318.74 258.16 318.92C258.16 320.02 258.17 320.61 258.18 320.69C258.19 321.49 258.26 321.95 258.39 322.06C258.45 322.1 258.65 322.14 259.01 322.2C259.27 322.25 259.42 322.29 259.47 322.32C259.52 322.36 259.55 322.44 259.55 322.58C259.55 322.71 259.53 322.78 259.5 322.79C259.43 322.85 258.7 322.88 257.31 322.88C255.89 322.88 255.16 322.86 255.12 322.83C255.09 322.79 255.07 322.71 255.07 322.58C255.07 322.46 255.09 322.37 255.12 322.32C255.13 322.3 255.31 322.26 255.64 322.2Z" id="a1ECqFQfU"></path><path d="M269.48 322.29C269.53 322.28 269.96 322.21 270.01 322.2C270.05 322.2 270.1 322.2 270.17 322.18C270.57 322.14 270.81 321.98 270.87 321.71C270.93 321.44 270.97 320.52 270.97 318.98C270.97 318.74 270.97 318.57 270.97 318.44C270.97 317.4 270.97 316.79 270.97 316.62C270.94 315.83 270.85 315.37 270.67 315.23C270.58 315.16 270.29 315.11 269.8 315.07C269.56 315.06 269.42 315.04 269.39 315.01C269.35 314.98 269.34 314.89 269.34 314.74C269.34 314.59 269.38 314.49 269.48 314.45C269.57 314.4 270.01 314.23 270.81 313.95C271.6 313.67 272.03 313.52 272.11 313.49C272.26 313.46 272.4 313.49 272.53 313.58C272.53 313.99 272.54 317.25 272.55 317.66C272.55 317.95 272.55 318.33 272.55 318.82C272.55 320.47 272.57 321.43 272.61 321.71C272.66 321.98 272.83 322.13 273.14 322.17C273.24 322.18 273.32 322.19 273.38 322.2C273.45 322.21 273.52 322.22 273.6 322.23C273.67 322.25 273.73 322.26 273.78 322.27C273.78 322.27 273.84 322.29 273.85 322.29C273.87 322.31 273.88 322.4 273.88 322.56C273.88 322.73 273.87 322.82 273.85 322.84C273.81 322.86 273.08 322.88 271.66 322.88C270.24 322.88 269.51 322.86 269.48 322.84C269.45 322.82 269.44 322.73 269.44 322.57C269.44 322.4 269.45 322.31 269.48 322.29ZM270.55 309.53C270.68 309.21 270.92 308.99 271.26 308.86C271.67 308.72 272.05 308.77 272.41 309.01C272.77 309.25 272.95 309.57 272.95 309.97C272.95 310.37 272.78 310.69 272.43 310.93C272.09 311.17 271.73 311.23 271.33 311.1C270.97 310.99 270.72 310.77 270.58 310.47C270.43 310.16 270.42 309.85 270.55 309.53Z" id="aKzyX09FD"></path><path d="M278.48 320.59C278.2 319.93 278.05 319.22 278.04 318.45C278.03 317.68 278.15 316.95 278.41 316.27C278.67 315.59 279.1 314.99 279.68 314.47C280.27 313.95 280.98 313.62 281.8 313.48C282.69 313.32 283.52 313.42 284.29 313.8C285.06 314.17 285.57 314.71 285.84 315.42C285.98 315.79 285.96 316.09 285.77 316.31C285.59 316.54 285.3 316.62 284.92 316.55C284.65 316.49 284.47 316.39 284.37 316.24C284.26 316.1 284.14 315.76 283.98 315.21C283.86 314.74 283.72 314.44 283.59 314.33C283.45 314.21 283.15 314.15 282.68 314.15C281.67 314.15 280.88 314.6 280.33 315.48C279.77 316.36 279.57 317.48 279.74 318.84C279.86 319.88 280.26 320.7 280.92 321.3C281.59 321.9 282.35 322.16 283.21 322.07C284.07 321.98 284.83 321.55 285.49 320.78C285.62 320.64 285.74 320.59 285.85 320.64C285.96 320.68 285.98 320.79 285.93 320.97C285.64 321.69 285.13 322.24 284.41 322.62C283.68 323.01 282.87 323.16 281.97 323.08C281.14 323.02 280.42 322.75 279.81 322.28C279.21 321.81 278.76 321.25 278.48 320.59Z" id="cSqzcE2uU"></path></defs><g><g><g><g><use xlink:href="#mZywtxbf2" opacity="1" fill="#2d1915" fill-opacity="1"></use><g><use xlink:href="#mZywtxbf2" opacity="1" fill-opacity="0" stroke="#000000" stroke-width="1" stroke-opacity="0"></use></g></g><g><use xlink:href="#aliqkw2E7" opacity="1" fill="#2d1915" fill-opacity="1"></use><g><use xlink:href="#aliqkw2E7" opacity="1" fill-opacity="0" stroke="#000000" stroke-width="1" stroke-opacity="0"></use></g></g><g><use xlink:href="#c5hAJ3ORg" opacity="1" fill="#2d1915" fill-opacity="1"></use><g><use xlink:href="#c5hAJ3ORg" opacity="1" fill-opacity="0" stroke="#000000" stroke-width="1" stroke-opacity="0"></use></g></g><g><use xlink:href="#eg7BUJcoQ" opacity="1" fill="#2d1915" fill-opacity="1"></use><g><use xlink:href="#eg7BUJcoQ" opacity="1" fill-opacity="0" stroke="#000000" stroke-width="1" stroke-opacity="0"></use></g></g><g><use xlink:href="#daRDBVobH" opacity="1" fill="#2d1915" fill-opacity="1"></use><g><use xlink:href="#daRDBVobH" opacity="1" fill-opacity="0" stroke="#000000" stroke-width="1" stroke-opacity="0"></use></g></g></g><g><use xlink:href="#fd0fF1Bnu" opacity="1" fill="#2d1915" fill-opacity="1"></use><g><use xlink:href="#fd0fF1Bnu" opacity="1" fill-opacity="0" stroke="#000000" stroke-width="1" stroke-opacity="0"></use></g></g><g><use xlink:href="#autslQJVM" opacity="1" fill="#2d1915" fill-opacity="1"></use><g><use xlink:href="#autslQJVM" opacity="1" fill-opacity="0" stroke="#000000" stroke-width="1" stroke-opacity="0"></use></g></g><g><use xlink:href="#e73pRBfLkN" opacity="1" fill="#2d1915" fill-opacity="1"></use><g><use xlink:href="#e73pRBfLkN" opacity="1" fill-opacity="0" stroke="#000000" stroke-width="1" stroke-opacity="0"></use></g></g><g><use xlink:href="#a48Rws8ER" opacity="1" fill="#2d1915" fill-opacity="1"></use><g><use xlink:href="#a48Rws8ER" opacity="1" fill-opacity="0" stroke="#000000" stroke-width="1" stroke-opacity="0"></use></g></g><g><use xlink:href="#b3h1xX6151" opacity="1" fill="#2d1915" fill-opacity="1"></use><g><use xlink:href="#b3h1xX6151" opacity="1" fill-opacity="0" stroke="#000000" stroke-width="1" stroke-opacity="0"></use></g></g><g><use xlink:href="#ekxwTlwke" opacity="1" fill="#2d1915" fill-opacity="1"></use><g><use xlink:href="#ekxwTlwke" opacity="1" fill-opacity="0" stroke="#000000" stroke-width="1" stroke-opacity="0"></use></g></g><g><use xlink:href="#a2mOEXGXuF" opacity="1" fill="#2d1915" fill-opacity="1"></use><g><use xlink:href="#a2mOEXGXuF" opacity="1" fill-opacity="0" stroke="#000000" stroke-width="1" stroke-opacity="0"></use></g></g><g><use xlink:href="#b28BCL8o2c" opacity="1" fill="#2d1915" fill-opacity="1"></use><g><use xlink:href="#b28BCL8o2c" opacity="1" fill-opacity="0" stroke="#000000" stroke-width="1" stroke-opacity="0"></use></g></g><g><use xlink:href="#b4oRtW2ziE" opacity="1" fill="#2d1915" fill-opacity="1"></use><g><use xlink:href="#b4oRtW2ziE" opacity="1" fill-opacity="0" stroke="#000000" stroke-width="1" stroke-opacity="0"></use></g></g><g><use xlink:href="#bXVuodSEF" opacity="1" fill="#2d1915" fill-opacity="1"></use><g><use xlink:href="#bXVuodSEF" opacity="1" fill-opacity="0" stroke="#000000" stroke-width="1" stroke-opacity="0"></use></g></g><g><use xlink:href="#a2C1txhVje" opacity="1" fill="#2d1915" fill-opacity="1"></use><g><use xlink:href="#a2C1txhVje" opacity="1" fill-opacity="0" stroke="#000000" stroke-width="1" stroke-opacity="0"></use></g></g><g><use xlink:href="#a1BIfzd1GU" opacity="1" fill="#2d1915" fill-opacity="1"></use><g><use xlink:href="#a1BIfzd1GU" opacity="1" fill-opacity="0" stroke="#000000" stroke-width="1" stroke-opacity="0"></use></g></g><g><use xlink:href="#d3xX2w6O0L" opacity="1" fill="#2d1915" fill-opacity="1"></use><g><use xlink:href="#d3xX2w6O0L" opacity="1" fill-opacity="0" stroke="#000000" stroke-width="1" stroke-opacity="0"></use></g></g><g><use xlink:href="#a1ECqFQfU" opacity="1" fill="#2d1915" fill-opacity="1"></use><g><use xlink:href="#a1ECqFQfU" opacity="1" fill-opacity="0" stroke="#000000" stroke-width="1" stroke-opacity="0"></use></g></g><g><use xlink:href="#aKzyX09FD" opacity="1" fill="#2d1915" fill-opacity="1"></use><g><use xlink:href="#aKzyX09FD" opacity="1" fill-opacity="0" stroke="#000000" stroke-width="1" stroke-opacity="0"></use></g></g><g><use xlink:href="#cSqzcE2uU" opacity="1" fill="#2d1915" fill-opacity="1"></use><g><use xlink:href="#cSqzcE2uU" opacity="1" fill-opacity="0" stroke="#000000" stroke-width="1" stroke-opacity="0"></use></g></g></g></g></svg>