<?xml version="1.0" encoding="UTF-8" standalone="no"?>
<!DOCTYPE svg PUBLIC "-//W3C//DTD SVG 1.1//EN" "http://www.w3.org/Graphics/SVG/1.1/DTD/svg11.dtd">
<svg version="1.1" xmlns="http://www.w3.org/2000/svg" xmlns:xlink="http://www.w3.org/1999/xlink" preserveAspectRatio="xMidYMid meet" viewBox="0 0 408.05 42.45" width="408.05" height="42.45"><defs><path d="M294.35 172.77C293.75 172.65 293.45 172.51 293.45 172.37C293.48 172.25 294.5 172.19 296.5 172.19C296.62 172.19 296.8 172.2 297.04 172.23C297.1 172.23 297.14 172.23 297.17 172.23C297.95 172.26 298.43 172.11 298.61 171.78C298.81 171.39 298.92 169.63 298.92 166.5C298.92 165.72 298.92 165.12 298.92 164.7C298.92 160.58 298.87 158.33 298.78 157.94C298.72 157.7 298.56 157.52 298.29 157.4C297.99 157.25 295.77 157.19 291.64 157.22C287.5 157.25 284.85 157.34 283.69 157.49C283.33 157.55 283.09 157.53 282.97 157.42C282.85 157.32 282.64 156.97 282.34 156.37C282.07 155.8 281.96 155.48 282.01 155.41C282.05 155.33 282.36 155.34 282.92 155.43C284.33 155.64 285.49 155.77 286.42 155.81C287.34 155.86 289.45 155.88 292.74 155.88C297.07 155.91 299.49 155.85 299.99 155.7C300.32 155.61 300.59 155.31 300.8 154.8C300.89 154.59 300.94 154.44 300.94 154.36C300.94 154.09 300.52 154.07 299.68 154.31C298.93 154.55 298.45 154.64 298.23 154.58C298 154.52 297.89 154.3 297.89 153.91C297.89 153.07 297.54 152.44 296.84 152C296.13 151.57 295.34 151.5 294.44 151.8C293.6 152.04 293.04 152.15 292.76 152.12C292.48 152.09 292.33 151.88 292.33 151.49C292.33 150.92 292 150.52 291.33 150.28C290.65 150.04 289.97 150.04 289.29 150.28C288.6 150.52 288.23 150.92 288.17 151.49C288.08 152.29 287.45 152.8 286.28 153.01C285.66 153.1 285.28 153.04 285.16 152.83C285.04 152.62 285.01 152.06 285.07 151.13C285.31 148.44 285.15 145.35 284.58 141.86C284.46 141.2 284.46 140.86 284.58 140.83C284.7 140.8 285.27 140.99 286.28 141.41C287.96 142.1 289.29 142.45 290.27 142.46C291.26 142.48 292.09 142.15 292.78 141.5C293.14 141.14 293.41 140.98 293.59 141C293.76 141.03 294.26 141.36 295.06 141.99C295.75 142.53 296.17 142.87 296.32 143.02C296.53 143.26 296.48 143.47 296.18 143.65C295.77 143.89 295.48 144.91 295.33 146.72C295.18 148.52 295.27 149.77 295.6 150.46C295.61 150.49 295.67 150.64 295.78 150.9C296.24 150.9 296.49 150.9 296.54 150.9C296.63 150.9 296.74 150.9 296.86 150.9C297.72 150.97 298.27 150.84 298.51 150.55C298.72 150.19 298.83 148.66 298.83 145.98C298.83 145.56 298.83 145.25 298.83 145.04C298.83 142.29 298.8 140.69 298.76 140.24C298.71 139.8 298.53 139.5 298.2 139.35C297.9 139.2 295.76 139.14 291.77 139.17C287.78 139.2 285.21 139.29 284.04 139.44C283.68 139.5 283.45 139.48 283.35 139.39C283.24 139.3 283.04 138.96 282.74 138.36C282.47 137.82 282.34 137.5 282.34 137.38C282.34 137.26 282.55 137.23 282.97 137.29C284.73 137.62 288.01 137.8 292.82 137.82C293.18 137.82 293.68 137.82 294.3 137.82C297.17 137.85 298.86 137.82 299.39 137.71C299.91 137.61 300.41 137.23 300.89 136.57C301.04 136.36 301.16 136.2 301.25 136.08C301.57 135.6 301.8 135.35 301.92 135.32C302.04 135.29 302.29 135.44 302.68 135.76C304.56 137.26 305.52 138.2 305.55 138.59C305.55 138.91 305.04 139.09 304.02 139.12C303.93 139.12 303.8 139.12 303.62 139.12C302.93 139.15 302.53 139.29 302.41 139.53C302.2 139.85 302.08 141.42 302.05 144.23C302.05 144.89 302.05 145.39 302.05 145.75C302.02 149.49 301.93 151.59 301.78 152.07C301.69 152.4 301.65 152.7 301.65 152.97C301.68 153.47 301.83 153.61 302.1 153.37C302.19 153.28 302.3 153.27 302.43 153.35C302.57 153.42 302.86 153.65 303.31 154.04C304.98 155.56 305.82 156.48 305.82 156.77C305.82 157.04 305.29 157.19 304.25 157.22C303.56 157.25 303.11 157.3 302.91 157.36C302.7 157.42 302.52 157.57 302.37 157.8C302.25 157.95 302.17 160.54 302.14 165.55C302.11 169.53 302.07 171.9 302.01 172.68C301.95 173.45 301.77 174.05 301.47 174.47C301.23 174.83 300.63 175.2 299.68 175.59C298.19 176.25 297.44 176.26 297.44 175.63C297.44 174.98 297.16 174.4 296.61 173.89C296.06 173.38 295.3 173.01 294.35 172.77ZM284.81 171.56C284.75 171.35 284.75 170.9 284.81 170.21C285.05 167.11 284.9 163.69 284.36 159.95C284.36 159.93 284.34 159.86 284.31 159.78C284.23 159.3 284.24 159.04 284.36 159.01C284.48 158.98 284.94 159.13 285.75 159.46C285.99 159.55 286.18 159.63 286.33 159.69C286.46 159.74 287.12 160.01 288.3 160.49C289.3 160.52 289.85 160.53 289.96 160.54C290.92 160.54 291.54 160.49 291.84 160.4C292.14 160.31 292.51 160.04 292.96 159.6C293.29 159.24 293.54 159.08 293.72 159.13C293.9 159.17 294.4 159.51 295.2 160.13C296.07 160.79 296.55 161.21 296.64 161.39C296.76 161.57 296.61 161.73 296.19 161.88C295.86 162.03 295.67 162.45 295.61 163.13C295.55 163.82 295.56 165.33 295.65 167.66C295.65 167.8 295.67 168.5 295.7 169.76C295.48 169.95 295.36 170.06 295.34 170.08C294.62 170.59 293.94 170.83 293.3 170.82C292.66 170.8 292.34 170.53 292.34 169.99C292.34 169.51 292.19 169.19 291.91 169.02C291.63 168.86 291.05 168.78 290.18 168.78C289.23 168.78 288.63 168.86 288.39 169.02C288.15 169.19 288.05 169.6 288.08 170.26C288.08 170.33 288.08 170.9 288.08 170.97C287.24 171.69 286.47 172.05 285.75 172.05C285.54 172.05 285.37 172.02 285.26 171.96C285.02 171.9 284.87 171.77 284.81 171.56ZM291.84 161.93C291.66 161.81 291.12 161.75 290.21 161.75C289.29 161.75 288.75 161.81 288.57 161.93C288.18 162.17 287.99 163.05 287.99 164.59C287.99 166.13 288.18 167 288.57 167.21C288.75 167.33 289.29 167.4 290.21 167.41C291.12 167.43 291.66 167.38 291.84 167.26C292.26 167.02 292.47 166.13 292.47 164.59C292.47 163.05 292.26 162.17 291.84 161.93ZM291.75 143.78C291.54 143.66 291.02 143.61 290.18 143.62C289.35 143.64 288.84 143.72 288.66 143.87C288.27 144.11 288.08 144.92 288.08 146.29C288.08 147.66 288.27 148.47 288.66 148.71C288.84 148.86 289.35 148.94 290.18 148.96C291.02 148.97 291.54 148.92 291.75 148.8C292.17 148.56 292.38 147.72 292.38 146.29C292.38 144.86 292.17 144.02 291.75 143.78ZM316.21 161.88C317.92 166.45 320.21 169.83 323.11 172.01C323.74 172.51 323.74 172.87 323.11 173.08C322.6 173.26 322.11 173.6 321.63 174.11C321.15 174.62 320.84 175.13 320.69 175.63C320.54 176.05 320.21 175.99 319.71 175.45C317.05 172.53 315.11 167.59 313.88 160.63C313.52 158.48 313.23 157.4 312.99 157.4C312.78 157.37 312.54 158 312.27 159.28C311.4 163.13 310.28 166.3 308.91 168.78C307.53 171.26 305.68 173.47 303.35 175.41C302.82 175.86 302.51 176.1 302.44 176.13C302.36 176.16 302.23 176.11 302.05 175.99C301.91 175.84 301.86 175.69 301.92 175.52C301.98 175.36 302.19 175.08 302.55 174.69C306.28 170.48 308.57 164.87 309.4 157.85C309.64 155.97 309.8 153.52 309.89 150.5C309.98 147.48 309.95 145.81 309.81 145.48C309.72 145.33 309.63 145.21 309.54 145.12C309.18 144.89 308.58 145.45 307.74 146.83C306.91 148.2 306.03 149.44 305.1 150.54C304.18 151.65 303.59 152.16 303.35 152.07C303.2 151.95 303.15 151.82 303.2 151.69C303.24 151.55 303.46 151.1 303.85 150.32C306.15 145.81 307.71 140.75 308.55 135.13C308.61 134.68 308.68 134.42 308.77 134.33C308.83 134.24 309.65 134.42 311.22 134.86C312.78 135.31 313.58 135.59 313.61 135.71C313.64 135.8 313.58 135.92 313.41 136.07C313.25 136.22 313.08 136.33 312.9 136.39C312.57 136.54 312.31 136.76 312.11 137.06C311.92 137.36 311.66 137.98 311.33 138.94C311.27 139.12 311.18 139.39 311.06 139.75C310.94 140.1 310.83 140.43 310.72 140.71C310.62 140.99 310.54 141.21 310.48 141.36C310.06 142.38 310.01 142.97 310.32 143.15C310.63 143.33 311.89 143.44 314.11 143.46C314.34 143.46 315.49 143.46 317.56 143.46C317.85 143.33 318.02 143.25 318.05 143.24C318.32 143.12 318.75 142.79 319.35 142.25C319.83 141.78 320.09 141.54 320.15 141.54C320.24 141.54 320.83 142.08 321.9 143.15C322.98 144.23 323.51 144.79 323.51 144.85C323.51 144.91 323.39 145 323.16 145.12C322.92 145.24 322.74 145.3 322.62 145.3C322.32 145.3 321.59 146.17 320.42 147.9C318.03 151.54 316.66 153.37 316.3 153.37C316.18 153.37 316.1 153.34 316.05 153.3C316.01 153.25 315.99 153.17 315.99 153.05C315.99 152.93 316.02 152.77 316.08 152.56C316.14 152.35 316.23 152.05 316.35 151.66C316.79 150.44 317.15 149.32 317.42 148.3C317.96 146.51 318.15 145.47 318 145.17C317.85 144.87 317.11 144.72 315.76 144.72C315.6 144.72 314.31 144.72 314.15 144.72C313.97 144.93 313.78 145.12 313.57 145.3C313.57 145.39 313.57 145.84 313.57 146.65C314.2 153.76 315.08 158.84 316.21 161.88Z" id="cMzGtHYm3"></path><path d="M349.84 171.54C349.52 171.52 348.92 171.71 348.02 172.1C343.42 174.01 337.9 175.32 331.45 176.04C330.13 176.19 329.43 176.2 329.34 176.08C329.25 176.02 329.21 175.96 329.21 175.9C329.21 175.73 330 175.49 331.58 175.19C337.02 174.11 341.42 172.77 344.8 171.16C345.93 170.62 346.55 170.19 346.64 169.88C346.73 169.57 346.37 169.08 345.56 168.42C343.53 166.84 341.74 164.88 340.19 162.55C339.5 161.57 339.03 161.01 338.77 160.87C338.52 160.74 337.79 160.66 336.6 160.63C333.79 160.63 331.87 160.72 330.82 160.9C330.49 160.96 330.28 160.94 330.17 160.85C330.07 160.76 329.86 160.45 329.57 159.91C329.24 159.28 329.06 158.93 329.03 158.84C329.03 158.75 329.12 158.72 329.3 158.75C331.78 159.26 337.29 159.51 345.83 159.51C345.9 159.51 346.28 159.51 346.95 159.51C347.14 159.32 347.24 159.22 347.26 159.2C347.68 158.78 347.64 157.33 347.13 154.85C347.07 154.58 347.05 154.42 347.08 154.36C347.11 154.24 347.73 154.25 348.92 154.4C350.68 154.64 351.67 154.64 351.9 154.4C352.12 154.16 352.3 152.98 352.42 150.86C352.74 144.32 352.61 139.05 352.01 135.05C351.89 134.42 351.88 134.08 351.97 134.02C352.03 133.96 352.94 134.05 354.7 134.29C356.46 134.53 357.37 134.68 357.43 134.74C357.67 134.97 357.49 135.27 356.9 135.63C356.3 135.99 356 136.59 356 137.42C356 138.17 356.16 138.61 356.47 138.75C356.78 138.88 357.84 138.95 359.63 138.95C361.33 138.95 362.35 138.89 362.7 138.77C363.04 138.65 363.55 138.17 364.24 137.33C364.66 136.8 364.92 136.53 365.03 136.55C365.13 136.57 365.53 136.86 366.21 137.42C366.39 137.57 366.62 137.75 366.89 137.96C367.84 138.77 368.39 139.27 368.52 139.46C368.66 139.66 368.59 139.87 368.32 140.11C368.29 140.14 368.26 140.17 368.23 140.2C367.66 140.2 363.07 140.24 362.5 140.25C362.17 140.25 361.69 140.25 361.06 140.25C358.31 140.27 356.76 140.38 356.4 140.56C356.1 140.71 355.97 141.16 356 141.9C356 142.08 356 142.23 356 142.35C356 143.37 356.14 143.96 356.43 144.12C356.71 144.28 357.72 144.37 359.45 144.37C359.71 144.36 361.79 144.33 362.05 144.32C362.59 143.93 363.05 143.49 363.44 142.98C363.71 142.62 363.91 142.4 364.04 142.31C364.18 142.22 364.3 142.19 364.4 142.22C364.5 142.25 364.68 142.37 364.92 142.57C365.84 143.35 366.35 143.78 366.44 143.87C367.36 144.68 367.66 145.17 367.33 145.35C367.03 145.53 365.24 145.64 361.96 145.67C361.66 145.67 361.26 145.67 360.75 145.67C358.18 145.69 356.73 145.81 356.4 146.02C356.13 146.17 356 146.67 356 147.5C356 147.68 356 147.83 356 147.95C356 149.11 356.16 149.79 356.47 149.97C356.78 150.15 357.95 150.24 359.99 150.24C361.87 150.24 362.99 150.18 363.35 150.06C363.71 149.94 364.21 149.46 364.87 148.62C365.23 148.11 365.5 147.83 365.68 147.77C365.83 147.77 366.39 148.19 367.38 149.02C368.48 149.95 369.11 150.51 369.26 150.71C369.41 150.9 369.35 151.1 369.08 151.31C368.87 151.46 366.76 151.53 362.74 151.53C358.72 151.53 356.64 151.61 356.49 151.76C356.16 152.06 356.01 152.77 356.04 153.91C356.05 154.04 356.08 155.12 356.09 155.25C355.61 155.73 354.98 156.07 354.21 156.26C353.43 156.46 352.83 156.4 352.42 156.1C352.06 155.84 351.76 155.84 351.52 156.1C351.28 156.37 351.16 156.87 351.16 157.58C351.16 157.64 351.16 157.75 351.16 157.9C351.16 158.61 351.37 159.03 351.79 159.15C352.21 159.27 353.69 159.33 356.22 159.33C356.76 159.33 357.18 159.33 357.48 159.33C358.03 159.33 362.4 159.29 362.95 159.29C363.39 159.02 363.93 158.48 364.56 157.67C364.92 157.2 365.17 156.9 365.32 156.8C365.47 156.7 365.6 156.66 365.7 156.69C365.8 156.72 366.02 156.85 366.35 157.09C367.13 157.72 367.73 158.22 368.16 158.59C368.6 158.97 368.93 159.27 369.15 159.51C369.37 159.75 369.49 159.93 369.49 160.05C369.49 160.17 369.44 160.27 369.35 160.36C369.34 160.37 369.26 160.45 369.13 160.58C366.79 160.61 365.49 160.63 365.23 160.63C365.11 160.63 364.97 160.63 364.83 160.63C362.59 160.66 361.3 160.76 360.97 160.94C360.73 161.06 360.37 161.51 359.9 162.29C358.49 164.5 357.01 166.23 355.46 167.48C354.39 168.41 353.94 169.04 354.12 169.37C354.3 169.69 355.3 170.08 357.12 170.53C360.7 171.43 364.59 172.04 368.77 172.37C369.13 172.4 369.41 172.43 369.62 172.46C370.43 172.61 370.43 172.86 369.62 173.22C368.78 173.58 368.11 174.28 367.6 175.32C367.36 175.86 367.23 176.16 367.2 176.22C367.14 176.34 366.51 176.31 365.32 176.13C359.97 175.17 355.42 173.84 351.65 172.14C350.76 171.75 350.15 171.55 349.84 171.54ZM334.85 157.29C334.94 157.21 335.06 157.14 335.21 157.06C335.36 156.99 335.6 156.86 335.93 156.68C337.39 155.94 338.66 155.07 339.73 154.08C340.81 153.1 341.42 152.26 341.57 151.58C341.6 151.43 341.6 151.32 341.57 151.26C341.48 150.9 340.53 151.01 338.71 151.58C338.38 151.67 337.77 151.84 336.89 152.09C336.01 152.35 335.41 152.52 335.08 152.61C333.58 153.03 332.61 153.46 332.16 153.91C331.9 154.18 331.7 154.25 331.58 154.13C331.46 154.01 331.09 153.38 330.46 152.25C329.92 151.23 329.68 150.67 329.72 150.55C329.77 150.43 330.25 150.34 331.18 150.28C334.61 150.04 337.5 149.8 339.82 149.56C341.26 149.41 342.15 149.26 342.49 149.11C342.83 148.96 343.08 148.56 343.23 147.9C343.56 146.71 343.36 145.99 342.65 145.75C342.41 145.69 341.05 145.68 338.57 145.71C336.09 145.74 334.49 145.8 333.78 145.89C333.18 145.95 332.81 145.94 332.68 145.87C332.54 145.79 332.31 145.44 331.98 144.81C331.78 144.42 331.64 144.16 331.58 144.01C331.52 143.8 331.61 143.72 331.85 143.78C331.88 143.78 331.97 143.8 332.12 143.83C332.27 143.86 332.48 143.89 332.75 143.92C333.02 143.95 333.25 143.98 333.46 144.01C335.23 144.24 337.2 144.38 339.4 144.41C341.59 144.44 342.83 144.35 343.1 144.14C343.51 143.87 343.7 143.23 343.66 142.21C343.61 141.2 343.38 140.59 342.96 140.38C342.69 140.23 341.09 140.17 338.15 140.22C335.21 140.26 333.26 140.36 332.3 140.51C332.12 140.54 331.91 140.56 331.67 140.56C331.58 140.53 331.37 140.2 331.02 139.59C330.68 138.98 330.51 138.61 330.51 138.49C330.51 138.4 330.82 138.39 331.45 138.45C332.85 138.69 335.05 138.87 338.06 139.01C341.06 139.14 342.71 139.14 343.01 138.99C343.63 138.69 343.62 137.09 342.96 134.19C342.96 134.16 342.96 134.13 342.96 134.1C342.96 134.01 343.93 134.09 345.87 134.33C347.4 134.54 348.23 134.7 348.38 134.82C348.53 134.94 348.26 135.25 347.58 135.76C347.37 135.91 347.24 136.22 347.2 136.68C347.15 137.14 347.13 138.33 347.13 140.24C347.13 144.27 346.85 147.19 346.3 149C345.75 150.81 344.65 152.4 343.01 153.77C341.96 154.67 340.41 155.6 338.35 156.57C336.29 157.54 335.12 157.89 334.85 157.63C334.79 157.57 334.75 157.51 334.74 157.47C334.72 157.42 334.76 157.36 334.85 157.29ZM355.42 160.9C355.4 160.88 355.33 160.81 355.19 160.67C351.11 160.64 348.84 160.63 348.38 160.63C344.71 160.63 342.56 160.65 341.95 160.69C341.34 160.74 341 160.88 340.94 161.12C340.82 161.63 341.48 162.5 342.92 163.74C344.35 164.98 345.96 166.08 347.75 167.03C348.62 167.45 349.2 167.7 349.5 167.77C349.8 167.85 350.13 167.79 350.49 167.61C351.56 167.11 352.76 165.96 354.07 164.17C355.38 162.37 355.83 161.28 355.42 160.9Z" id="c9hKxgKeyp"></path><path d="M404.92 145.84C407.04 145.84 408.33 145.78 408.78 145.66C409.23 145.54 409.73 145.11 410.3 144.36C410.48 144.13 410.61 143.95 410.7 143.83C410.73 143.77 410.81 143.68 410.93 143.56C411.31 143.05 411.64 142.84 411.91 142.93C412.15 142.99 413.09 143.72 414.73 145.12C415.24 145.54 415.61 145.87 415.85 146.11C416.24 146.41 416.26 146.66 415.9 146.87C415.72 147.02 413 147.11 407.75 147.14C404.85 147.14 403.16 147.16 402.68 147.19C400.44 147.22 399.26 147.41 399.14 147.77C399.08 147.92 399.31 148.46 399.82 149.38C401.7 152.96 404.17 156.32 407.23 159.44C410.29 162.56 413.36 164.87 416.44 166.36C417.21 166.75 417.23 167.05 416.48 167.26C416.03 167.41 415.56 167.71 415.05 168.15C414.54 168.6 414.17 169.08 413.93 169.59C413.75 170.01 413.55 170.19 413.35 170.12C413.14 170.06 412.54 169.63 411.55 168.83C406.53 164.79 402.59 159.3 399.73 152.34C399.37 151.5 399.08 150.9 398.87 150.55C398.52 149.89 398.25 149.87 398.07 150.5C397.95 150.83 397.89 153.82 397.91 159.48C397.93 165.14 397.99 169.02 398.11 171.11C398.11 171.62 398.13 172.15 398.16 172.7C398.19 173.25 398.21 173.69 398.22 174C398.24 174.31 398.25 174.48 398.25 174.52C398.25 174.84 397.81 175.25 396.95 175.75C396.08 176.24 395.44 176.46 395.02 176.4C394.99 176.4 394.88 176.37 394.71 176.31C394.29 176.19 394.04 175.98 393.97 175.68C393.89 175.38 393.9 174.57 393.99 173.26C394.2 169.86 394.3 165.45 394.3 160.04C394.3 159.42 394.26 154.44 394.26 153.82C393.93 153.55 393.68 153.48 393.52 153.61C393.35 153.75 392.87 154.41 392.06 155.61C388.03 161.67 383.12 166.55 377.32 170.26C376.43 170.82 375.83 171.09 375.53 171.06C375.14 171 375.5 170.53 376.61 169.63C378.97 167.69 381.32 165.19 383.66 162.13C386.01 159.06 388.03 155.86 389.73 152.52C390.69 150.61 391.26 149.31 391.44 148.62C391.61 147.93 391.53 147.48 391.17 147.27C390.99 147.13 388.96 147.07 385.1 147.12C381.23 147.16 378.8 147.26 377.82 147.41C377.46 147.47 377.23 147.45 377.12 147.36C377.02 147.27 376.83 146.93 376.56 146.33C376.29 145.77 376.16 145.44 376.16 145.35C376.16 145.26 376.34 145.25 376.7 145.3C378.52 145.66 382.67 145.89 389.15 145.98C391.42 146.01 392.77 146 393.21 145.95C393.64 145.91 393.94 145.75 394.12 145.48C394.33 145.13 394.39 143.55 394.28 140.76C394.18 137.96 393.97 135.9 393.68 134.55C393.62 134.31 393.6 134.16 393.63 134.1C393.72 134.01 394.69 134.09 396.54 134.33C398.36 134.6 399.31 134.73 399.37 134.73C399.39 134.76 399.41 134.79 399.41 134.82C399.38 135.12 399.07 135.48 398.47 135.9C398.2 136.08 398.04 136.36 398 136.75C397.95 137.14 397.92 138.42 397.89 140.6C397.89 143.14 397.91 144.57 397.95 144.88C398 145.19 398.26 145.51 398.74 145.84C399.07 145.84 400.71 145.84 403.67 145.84C404.15 145.84 404.56 145.84 404.92 145.84Z" id="g7SQXO3rEp"></path><path d="M422.35 142.42C422.41 142.34 422.79 142.36 423.47 142.48C425.27 142.75 427.68 142.9 430.73 142.93C433.09 142.99 434.47 142.97 434.88 142.86C435.28 142.76 435.81 142.26 436.47 141.36C436.82 140.85 437.06 140.56 437.16 140.49C437.26 140.41 437.44 140.48 437.68 140.69C439.23 142 440.07 142.72 440.18 142.84C440.78 143.44 440.8 143.81 440.23 143.96C439.78 144.11 437.33 144.2 432.88 144.23C427.8 144.23 424.76 144.32 423.74 144.5C423.56 144.53 423.43 144.5 423.34 144.41C423.25 144.32 423.02 143.98 422.67 143.38C422.4 142.81 422.29 142.49 422.35 142.42ZM427.59 175.32C427.15 175.68 426.61 175.92 425.98 176.04C425.35 176.16 424.92 176.11 424.68 175.9C424.53 175.76 424.44 175.52 424.41 175.21C424.38 174.9 424.41 174.17 424.5 173.04C424.59 172.02 424.64 170.53 424.66 168.56C424.67 166.59 424.65 165.18 424.59 164.35C424.44 161.81 424.25 160.12 424.01 159.28C423.98 159.25 423.98 159.22 424.01 159.19C424.01 159.01 424.67 159.21 425.98 159.78C426.1 159.84 426.3 159.92 426.56 160.02C426.83 160.13 427 160.19 427.08 160.22C427.15 160.25 427.29 160.31 427.48 160.38C427.68 160.46 427.81 160.49 427.89 160.49C427.96 160.49 428.07 160.51 428.22 160.56C428.37 160.6 428.51 160.63 428.62 160.63C428.74 160.63 428.88 160.64 429.03 160.67C429.18 160.7 429.36 160.72 429.57 160.72C429.77 160.72 429.98 160.72 430.19 160.72C430.4 160.72 430.67 160.72 431 160.72C432.55 160.72 433.48 160.68 433.78 160.6C434.07 160.53 434.49 160.22 435.03 159.69C435.51 159.18 435.83 158.93 435.99 158.95C436.16 158.96 436.7 159.34 437.63 160.09C438.79 161.02 439.39 161.55 439.42 161.7C439.42 161.82 439.21 161.97 438.79 162.15C438.29 162.36 437.99 162.75 437.9 163.34C437.81 163.92 437.81 165.35 437.9 167.62C437.9 167.97 437.91 168.61 437.94 169.52C437.97 170.43 438 171.07 438.03 171.42C438.04 171.61 438.11 173.12 438.12 173.3C437.26 173.93 436.55 174.31 436.02 174.42C435.42 174.57 435.02 174.58 434.83 174.45C434.64 174.31 434.54 173.98 434.54 173.44C434.54 172.72 434.39 172.3 434.09 172.18C433.79 172.07 432.82 172 431.18 172C430.93 172 428.92 172 428.67 172C428.34 172.24 428.13 172.48 428.04 172.7C427.95 172.92 427.91 173.39 427.91 174.11C427.91 174.17 427.93 174.49 427.95 175.05C427.74 175.21 427.62 175.3 427.59 175.32ZM425.22 148.26C428.12 148.71 430.19 148.88 431.45 148.78C432.7 148.67 433.63 148.23 434.23 147.46C434.67 146.92 434.97 146.63 435.12 146.58C435.27 146.54 435.54 146.69 435.93 147.05C436.97 147.98 437.54 148.47 437.63 148.53C438.35 149.22 438.51 149.65 438.12 149.83C437.82 149.98 436 150.07 432.66 150.1C428.92 150.13 426.59 150.22 425.67 150.37C425.49 150.4 425.34 150.34 425.22 150.19C424.77 149.65 424.5 149.22 424.41 148.89C424.26 148.35 424.53 148.14 425.22 148.26ZM425.22 154.13C426.77 154.37 428.37 154.52 430.01 154.58C431.66 154.64 432.63 154.59 432.93 154.44C433.37 154.24 433.9 153.73 434.49 152.92C434.79 152.5 435.02 152.32 435.17 152.36C435.32 152.4 435.78 152.79 436.55 153.5C436.64 153.59 436.79 153.73 437 153.91C437.09 154 437.17 154.07 437.23 154.13C438.09 154.91 438.45 155.39 438.3 155.56C438.09 155.8 436.53 155.94 433.6 155.97C433.6 155.97 433.58 155.97 433.55 155.97L433.51 155.97L433.46 155.97L433.42 155.97L433.37 155.97L433.33 155.97L433.24 155.97L433.19 155.97L433.15 155.97L433.1 155.97L433.06 155.97L433.01 155.97L432.97 155.97L432.92 155.97L432.88 155.97L432.84 155.97L432.79 155.97L432.75 155.97L432.7 155.97L432.66 155.97C432.63 155.97 432.61 155.97 432.61 155.97C428.91 156 426.59 156.09 425.67 156.24C425.49 156.27 425.34 156.21 425.22 156.06C424.77 155.52 424.5 155.09 424.41 154.76C424.26 154.22 424.53 154.01 425.22 154.13ZM425.4 136.61C426.68 136.82 428.15 136.97 429.81 137.06C431.47 137.15 432.46 137.14 432.79 137.02C433.24 136.9 433.79 136.36 434.45 135.4C434.81 134.9 435.03 134.63 435.12 134.6C435.21 134.57 435.54 134.82 436.11 135.36C437.18 136.28 437.73 136.76 437.76 136.79C438.57 137.51 438.79 137.96 438.43 138.14C438.11 138.32 436.25 138.42 432.88 138.45C429.12 138.48 426.77 138.57 425.85 138.72C425.67 138.75 425.52 138.69 425.4 138.54C424.95 138 424.68 137.57 424.59 137.24C424.44 136.7 424.71 136.49 425.4 136.61ZM434.63 166.32C434.63 166.11 434.63 165.81 434.63 165.42C434.63 163.63 434.52 162.59 434.29 162.31C434.07 162.02 433.27 161.88 431.9 161.88C431.63 161.88 431.42 161.88 431.27 161.88C431.12 161.88 430.91 161.88 430.64 161.88C429.27 161.88 428.47 162.02 428.24 162.31C428.02 162.59 427.91 163.63 427.91 165.42C427.91 165.81 427.91 166.11 427.91 166.32C427.91 166.53 427.91 166.83 427.91 167.21C427.91 167.3 427.91 167.36 427.91 167.39C427.91 169.1 428.03 170.08 428.27 170.35C428.51 170.59 429.27 170.71 430.55 170.71C430.85 170.71 431.09 170.71 431.27 170.71C432.88 170.71 433.78 170.65 433.96 170.53C434.28 170.38 434.48 170.11 434.54 169.72C434.6 169.33 434.63 168.2 434.63 166.32ZM444.8 142.73C446.62 139.79 447.86 137.2 448.52 134.96C448.63 134.6 448.72 134.42 448.79 134.42C448.85 134.39 449.66 134.56 451.23 134.93C452.79 135.31 453.61 135.52 453.67 135.58C453.82 135.73 453.67 135.9 453.22 136.08C452.98 136.2 452.83 136.36 452.77 136.57C452.71 136.81 452.71 137 452.75 137.15C452.8 137.3 452.98 137.63 453.31 138.14C454.36 139.78 455.75 141.39 457.5 142.97C459.25 144.56 461.11 145.9 463.08 147.01C463.55 147.28 463.87 147.48 464.02 147.61C464.17 147.75 464.21 147.87 464.15 147.99C464.09 148.11 463.91 148.26 463.61 148.44C462.78 148.95 462.17 149.62 461.78 150.46C461.66 150.76 461.57 150.92 461.51 150.95C461.42 151.04 461.06 150.8 460.43 150.23C457.09 147.27 454.55 143.8 452.82 139.79C452.43 138.9 452.23 138.42 452.23 138.36C452.23 138.24 452.14 138.13 451.97 138.02C451.79 137.92 451.64 137.88 451.52 137.91C451.28 137.97 450.94 138.38 450.49 139.12C447.68 144.02 443.87 148.11 439.06 151.4C438.32 151.87 437.88 152.05 437.76 151.93C437.67 151.82 438.05 151.31 438.88 150.41C441 148.23 442.98 145.67 444.8 142.73ZM441.12 174.83C448.47 171.93 454.18 167.56 458.24 161.7C458.69 161.05 458.96 160.72 459.04 160.72C459.16 160.72 459.9 161.12 461.26 161.93C462.62 162.73 463.32 163.17 463.35 163.23C463.35 163.35 463.24 163.44 463.03 163.52C462.82 163.59 462.61 163.61 462.41 163.58C462.2 163.55 461.93 163.67 461.62 163.92C461.31 164.17 460.66 164.81 459.67 165.82C454.6 170.93 448.16 174.37 440.36 176.13C439.92 176.22 439.65 176.26 439.56 176.26C439.38 176.29 439.26 176.23 439.2 176.08C439.14 175.87 439.19 175.71 439.35 175.59C439.52 175.47 440.11 175.22 441.12 174.83ZM441.98 165.02C446.64 162.33 450.58 158.97 453.8 154.94C454.4 154.16 454.75 153.72 454.86 153.62C454.96 153.51 455.04 153.47 455.1 153.5C455.25 153.57 455.92 153.96 457.1 154.69C458.28 155.42 458.88 155.82 458.91 155.88C458.94 155.91 458.96 155.94 458.96 155.97C458.93 156.18 458.69 156.28 458.24 156.28C457.76 156.28 457.07 156.7 456.18 157.54C454 159.57 451.55 161.35 448.83 162.87C447.6 163.59 446.1 164.34 444.33 165.13C442.55 165.92 441.59 166.26 441.44 166.14C441.23 166.08 441.12 165.88 441.12 165.56C441.12 165.5 441.41 165.32 441.98 165.02ZM451.03 147.54C451.5 146.95 451.79 146.65 451.88 146.65C451.97 146.65 452.62 147.03 453.83 147.79C455.04 148.55 455.66 148.96 455.69 149.02C455.71 149.14 455.66 149.24 455.53 149.31C455.39 149.39 455.22 149.43 455.01 149.43C454.53 149.43 453.79 149.84 452.77 150.68C450.8 152.32 448.5 153.88 445.87 155.34C443.25 156.8 441.77 157.37 441.44 157.04C441.2 156.8 441.53 156.39 442.42 155.79C445.71 153.55 448.58 150.8 451.03 147.54Z" id="f7uZojcvt"></path><path d="M472.06 165.69C472.43 162.26 472.62 156.42 472.62 148.17C472.62 143.63 472.62 141.35 472.62 141.32C472.65 139.35 472.8 138.33 473.07 138.27C473.16 138.3 473.92 138.55 474.01 138.58C475.08 138.91 476.17 138.88 477.26 138.47C478.35 138.07 480.3 136.99 483.1 135.22C484.09 134.6 484.61 134.31 484.67 134.37C484.85 134.46 485.5 135 486.62 135.99C487.74 136.97 488.3 137.49 488.3 137.55C488.3 137.79 487.96 137.88 487.27 137.82C486.46 137.73 485.51 137.84 484.4 138.14C481.57 138.91 479.46 139.45 478.09 139.75C477.01 139.99 476.39 140.23 476.23 140.49C476.06 140.74 475.98 141.6 475.98 143.06C475.98 143.18 475.98 143.36 475.98 143.6C475.98 144.86 476.12 145.59 476.41 145.8C476.69 146.01 477.68 146.11 479.39 146.11C479.66 146.11 479.86 146.11 480.01 146.11C481.92 146.11 483.06 146.06 483.42 145.97C483.72 145.88 484.15 145.54 484.72 144.94C484.81 144.86 485.56 144.18 485.66 144.09C485.87 144.21 486.51 144.7 487.59 145.57C488.66 146.44 489.26 146.93 489.38 147.05C489.41 147.11 489.36 147.2 489.24 147.32C489.12 147.44 488.91 147.57 488.62 147.72C488.11 147.99 487.82 148.64 487.74 149.67C487.67 150.7 487.72 153.22 487.9 157.22C487.99 159.31 488 160.48 487.94 160.71C487.88 160.86 487.63 161.04 487.18 161.25C485.18 162.27 484.18 162.12 484.18 160.8C484.18 160.06 484.01 159.62 483.66 159.5C483.32 159.39 482.12 159.33 480.06 159.33C479.88 159.33 479.61 159.33 479.25 159.33C477.52 159.33 476.5 159.42 476.2 159.59C475.94 159.77 475.74 160.36 475.62 161.34C475.59 161.52 475.58 161.67 475.58 161.79C474.89 167.38 473.28 171.89 470.74 175.32C470.53 175.62 470.35 175.85 470.2 176.01C470.05 176.18 469.92 176.29 469.82 176.35C469.72 176.41 469.63 176.42 469.55 176.39C469.48 176.36 469.41 176.29 469.35 176.17C469.26 176.08 469.37 175.7 469.66 175.01C470.89 172.23 471.69 169.12 472.06 165.69ZM484.27 152.79C484.27 150.46 484.27 149.26 484.27 149.2C484.21 148.25 483.93 147.68 483.42 147.5C483.21 147.44 482.1 147.41 480.1 147.41C479.83 147.41 479.46 147.41 478.98 147.41C477.43 147.38 476.53 147.54 476.27 147.88C476.02 148.22 475.91 149.43 475.94 151.49C475.94 152.11 475.94 152.61 475.94 152.97C475.97 155 475.98 156.06 475.98 156.15C476.01 157.16 476.26 157.76 476.74 157.94C476.95 158 477.98 158.06 479.83 158.12C480.16 158.13 482.74 158.2 483.06 158.21C483.21 158.21 483.4 158.15 483.64 158.03C483.97 157.88 484.16 157.6 484.2 157.18C484.25 156.76 484.27 155.3 484.27 152.79ZM500.58 149.52C502.79 149.52 504.07 149.41 504.43 149.2C504.64 149.08 505.06 148.62 505.68 147.81C505.92 147.46 506.09 147.21 506.2 147.08C506.3 146.94 506.42 146.87 506.56 146.85C506.69 146.84 506.8 146.85 506.87 146.9C506.94 146.94 507.1 147.07 507.34 147.28C507.55 147.46 507.73 147.61 507.88 147.72C509.58 149.16 510.42 150.02 510.39 150.32C510.33 150.62 509.46 150.79 507.79 150.82C506.59 150.85 505.85 150.89 505.57 150.95C505.29 151.01 505.09 151.19 504.97 151.49C504.88 151.67 504.83 154.27 504.83 159.31C504.83 164.34 504.86 167.69 504.92 169.36C504.92 169.72 504.94 170.36 504.97 171.29C505 172.22 505.03 172.86 505.06 173.22C505.07 173.41 505.14 174.95 505.15 175.14C504.67 175.53 504.09 175.87 503.4 176.15C502.71 176.44 502.13 176.52 501.65 176.4C501.2 176.31 500.95 176.11 500.89 175.79C500.83 175.48 500.85 174.64 500.94 173.26C501.14 169.74 501.25 165.11 501.25 159.37C501.25 155.31 501.23 153.07 501.2 152.65C501.11 151.58 500.81 150.98 500.31 150.86C500.22 150.83 499.41 150.82 497.89 150.82C496.28 150.85 495.36 150.96 495.13 151.15C494.91 151.35 494.75 152.15 494.66 153.55C494.36 158.54 493.44 162.79 491.91 166.3C490.37 169.81 488.12 172.8 485.16 175.28C484.66 175.67 484.35 175.89 484.25 175.95C484.14 176.01 484.01 175.98 483.87 175.86C483.69 175.68 483.87 175.25 484.4 174.56C487.78 170.35 489.91 165.15 490.81 158.97C491.2 156.19 491.38 152.34 491.35 147.41C491.32 142.48 491.09 139.23 490.67 137.64C490.67 137.58 490.67 137.54 490.67 137.51C490.67 137.36 491.39 137.51 492.82 137.96C494.11 138.35 494.96 138.55 495.38 138.56C495.8 138.58 496.44 138.4 497.31 138.05C500.38 136.76 502.77 135.58 504.47 134.51C504.68 134.36 504.83 134.28 504.92 134.28C505.01 134.28 505.72 134.89 507.05 136.1C508.38 137.31 509.04 137.94 509.04 138C509.04 138.24 508.71 138.33 508.06 138.27C507.19 138.18 506.63 138.15 506.38 138.18C506.12 138.21 505.38 138.36 504.16 138.63C500.4 139.4 497.92 139.88 496.72 140.06C495.71 140.21 495.13 140.45 495 140.78C494.86 141.11 494.78 142.41 494.75 144.67C494.75 146.98 494.77 148.27 494.82 148.57C494.86 148.87 495.12 149.18 495.6 149.51C495.87 149.51 497.23 149.51 499.68 149.51C500.04 149.51 500.34 149.52 500.58 149.52Z" id="d21DTKY4R0"></path><path d="M3.76 27.87C2.67 26.57 1.8 25.1 1.16 23.46C0.51 21.81 0.13 20.13 0.03 18.39C-0.07 16.66 0.09 14.93 0.52 13.21C0.94 11.49 1.61 9.92 2.54 8.49C3.45 7.07 4.69 5.83 6.24 4.77C7.8 3.7 9.57 2.97 11.56 2.55C13.43 2.19 15.37 2.13 17.39 2.38C19.4 2.63 21.18 3.14 22.7 3.92C23.09 4.1 23.31 4.24 23.36 4.34C23.44 4.49 23.49 5.56 23.52 7.53C23.52 7.63 23.52 7.73 23.52 7.84C23.57 9.57 23.54 10.51 23.44 10.67C23.36 10.75 23.04 10.79 22.47 10.79C21.85 10.79 21.49 10.72 21.38 10.59C21.28 10.46 21.11 9.82 20.88 8.65C20.52 6.87 20.18 5.77 19.87 5.35C19.56 4.94 18.78 4.6 17.54 4.34C15.57 3.88 13.71 3.96 11.97 4.58C10.22 5.2 8.76 6.21 7.6 7.6C6.43 9 5.57 10.78 5.02 12.92C4.46 15.07 4.32 17.37 4.61 19.83C5.08 23.79 6.52 26.74 8.96 28.68C11.39 30.62 14.42 31.23 18.04 30.51C18.46 30.43 18.73 30.38 18.86 30.35C19.51 30.17 19.92 29.81 20.1 29.27C20.31 28.62 20.35 26.38 20.22 22.55C20.22 22.45 20.22 22.32 20.22 22.16C20.19 21.05 20.06 20.4 19.83 20.22C19.65 20.04 18.9 19.9 17.58 19.8C16.57 19.72 15.99 19.64 15.85 19.56C15.71 19.49 15.64 19.25 15.64 18.86C15.64 18.82 15.65 18.61 15.68 18.24C18.99 18.22 20.82 18.21 21.19 18.2C24.74 18.2 26.6 18.25 26.78 18.36C26.89 18.41 26.94 18.59 26.94 18.9C26.94 19.26 26.89 19.48 26.8 19.56C26.71 19.64 26.42 19.7 25.93 19.76C25.64 19.78 25.49 19.8 25.46 19.8C24.92 19.87 24.58 20.12 24.45 20.53C24.27 21.08 24.17 23.37 24.14 27.4C24.14 27.67 24.14 29.78 24.14 30.04C23.18 30.8 21.61 31.44 19.4 31.96C17.2 32.49 15.21 32.7 13.43 32.57C11.41 32.43 9.56 31.94 7.89 31.09C6.22 30.23 4.85 29.16 3.76 27.87Z" id="a1qDvLVlxe"></path><path d="M34.42 29.01C33.72 28.09 33.15 27.06 32.71 25.92C32.27 24.78 32.05 23.62 32.03 22.43C32.02 21.24 32.12 20.05 32.34 18.87C32.56 17.7 32.98 16.6 33.61 15.57C34.23 14.55 34.96 13.67 35.8 12.92C36.64 12.17 37.67 11.6 38.88 11.23C40.1 10.85 41.42 10.73 42.84 10.86C46.05 11.14 48.51 12.64 50.22 15.34C51.93 18.05 52.41 21.15 51.66 24.64C51.09 27.2 49.8 29.22 47.79 30.69C45.79 32.17 43.52 32.76 40.98 32.48C39.56 32.33 38.28 31.94 37.16 31.32C36.03 30.7 35.12 29.93 34.42 29.01ZM47.74 18.54C47.53 17.3 47.14 16.21 46.55 15.27C45.97 14.32 45.31 13.62 44.57 13.17C43.83 12.71 43.04 12.46 42.19 12.39C41.33 12.33 40.53 12.47 39.78 12.84C39.03 13.2 38.34 13.81 37.72 14.66C37.1 15.51 36.65 16.55 36.36 17.77C35.84 20.46 35.77 22.83 36.15 24.89C36.52 26.95 37.35 28.53 38.63 29.65C39.91 30.76 41.42 31.14 43.16 30.77C45.02 30.41 46.38 29.07 47.25 26.76C48.12 24.44 48.28 21.7 47.74 18.54Z" id="bsJLZcFQ5"></path><path d="M56.67 41.25C56.72 41.18 57.15 41.06 57.95 40.91C58.08 40.88 58.27 40.86 58.51 40.85C58.75 40.84 58.92 40.81 59 40.79C59.46 40.71 59.77 40.39 59.93 39.82C60.11 39.04 60.2 35.86 60.2 30.27C60.2 29 60.2 28 60.2 27.28C60.2 26.61 60.2 25.67 60.2 24.49C60.2 19.65 60.13 16.82 59.99 16C59.84 15.19 59.36 14.75 58.53 14.7C58.27 14.7 58.08 14.69 57.95 14.66C57.28 14.59 56.88 14.51 56.75 14.43C56.62 14.35 56.55 14.16 56.55 13.84C56.55 13.56 56.68 13.34 56.94 13.18C57.2 13.03 58.09 12.66 59.62 12.06C61.4 11.36 62.45 11 62.76 10.99C63.07 10.98 63.26 11.31 63.31 11.98C63.39 12.73 63.54 13.15 63.79 13.24C64.04 13.33 64.48 13.12 65.13 12.6C66.5 11.57 67.91 10.96 69.37 10.79C70.81 10.63 72.12 10.87 73.28 11.51C74.45 12.16 75.49 13.1 76.41 14.33C77.33 15.56 77.93 17.04 78.21 18.77C78.5 20.5 78.49 22.37 78.18 24.36C77.5 27.91 75.79 30.37 73.03 31.76C70.28 33.14 67.59 32.88 64.98 30.96C64.41 30.55 64.04 30.42 63.89 30.57C63.71 30.83 63.62 32.48 63.62 35.5C63.62 35.76 63.62 36.1 63.62 36.51C63.62 36.59 63.62 36.64 63.62 36.67C63.64 38.71 63.76 39.9 63.97 40.24C64.15 40.5 64.69 40.69 65.6 40.82C65.8 40.85 65.97 40.87 66.1 40.9C66.98 41 67.49 41.12 67.61 41.25C67.67 41.35 67.69 41.53 67.67 41.79C67.66 42.05 67.63 42.22 67.58 42.3C67.47 42.4 65.66 42.45 62.12 42.45C58.59 42.45 56.77 42.4 56.67 42.3C56.59 42.23 56.55 42.04 56.55 41.76C56.55 41.47 56.59 41.31 56.67 41.25ZM74.47 24.16C74.69 22.69 74.73 21.22 74.61 19.73C74.48 18.24 74.07 16.9 73.38 15.71C72.7 14.52 71.81 13.72 70.72 13.3C69.69 12.92 68.41 12.96 66.9 13.42C65.39 13.89 64.38 14.56 63.89 15.44C63.88 15.46 63.83 15.56 63.74 15.75L63.74 27.82C63.85 28.06 63.92 28.19 63.93 28.21C64.16 28.65 64.66 29.08 65.43 29.49C66.19 29.91 66.96 30.18 67.74 30.31C67.97 30.34 68.38 30.33 68.96 30.29C69.54 30.25 69.95 30.2 70.18 30.15C71.29 29.84 72.23 29.13 72.99 28.02C73.76 26.91 74.25 25.62 74.47 24.16Z" id="dtAfRu674"></path><path d="M83.07 30.7C83.09 30.69 83.25 30.66 83.26 30.66C83.37 30.63 83.51 30.61 83.69 30.58C83.87 30.55 84.05 30.53 84.24 30.5C85.25 30.37 85.82 30.19 85.96 29.96C86.1 29.73 86.2 28.87 86.25 27.4C86.3 25.32 86.32 20.9 86.29 14.12C86.27 7.34 86.23 3.88 86.17 3.75C86.02 3.42 85.33 3.19 84.12 3.05C83.44 3 83.05 2.94 82.93 2.86C82.82 2.78 82.76 2.59 82.76 2.28C82.76 1.97 82.89 1.75 83.15 1.64C83.4 1.52 84.4 1.22 86.13 0.73C86.39 0.65 86.76 0.54 87.22 0.41C87.22 0.41 87.24 0.41 87.26 0.41L87.3 0.41L87.34 0.37L87.38 0.37C87.4 0.37 87.41 0.37 87.42 0.37C88.66 0.01 89.4 -0.08 89.63 0.1C89.81 0.28 89.89 1.05 89.86 2.39C89.84 2.88 89.83 3.27 89.83 3.56C89.8 4.54 89.79 5.34 89.79 5.96C89.68 10.62 89.79 13.21 90.1 13.73C90.28 14.04 90.7 13.92 91.38 13.38C93.5 11.7 95.63 10.85 97.78 10.84C99.93 10.82 101.43 11.64 102.29 13.3C102.75 14.18 103.03 15.08 103.12 16C103.21 16.92 103.28 19.32 103.34 23.2C103.34 25.66 103.35 26.95 103.38 27.08C103.4 28.89 103.56 29.93 103.84 30.19C103.97 30.27 104.44 30.37 105.24 30.5C105.81 30.6 106.15 30.69 106.27 30.77C106.39 30.85 106.44 31.04 106.44 31.35C106.44 31.64 106.4 31.8 106.33 31.82C106.17 31.95 104.54 32.01 101.43 32.01C98.46 32.01 96.85 31.97 96.62 31.9C96.49 31.85 96.43 31.67 96.43 31.35C96.43 31.04 96.49 30.85 96.62 30.77C96.75 30.69 97.11 30.6 97.71 30.5C97.84 30.47 98 30.45 98.21 30.42C98.99 30.35 99.43 30.08 99.55 29.63C99.67 29.18 99.72 27.62 99.72 24.95C99.72 24.23 99.72 23.66 99.72 23.24C99.72 19.77 99.7 17.7 99.65 17.03C99.6 16.36 99.43 15.74 99.14 15.17C98.49 13.98 97.28 13.44 95.51 13.56C93.74 13.67 92.1 14.4 90.6 15.75C90.21 16.11 89.99 16.47 89.94 16.83C89.89 17.2 89.85 18.61 89.82 21.07C89.82 23.4 89.82 24.82 89.82 25.34C89.82 28 89.99 29.54 90.33 29.96C90.48 30.19 90.96 30.37 91.76 30.5C92.44 30.6 92.8 30.67 92.85 30.69C92.9 30.72 92.93 30.91 92.93 31.28C92.93 31.64 92.9 31.86 92.85 31.93C92.77 31.99 91.14 32.01 87.96 32.01C84.78 32.01 83.14 31.99 83.07 31.93C83.02 31.89 82.99 31.68 82.99 31.32C82.99 30.96 83.02 30.75 83.07 30.7Z" id="a1J0c70GZf"></path><path d="M112.05 26.66C111.44 25.13 111.15 23.48 111.18 21.71C111.2 19.94 111.55 18.29 112.21 16.76C112.87 15.23 113.9 13.91 115.31 12.8C116.72 11.69 118.39 11.04 120.3 10.86C122.17 10.68 123.86 11.03 125.39 11.93C126.92 12.82 128.02 14.08 128.71 15.71C129.39 17.34 129.53 19.08 129.12 20.91C129.12 20.94 129.12 20.98 129.12 21.03C129.09 21.26 128.79 21.4 128.2 21.44C127.62 21.48 125.65 21.49 122.28 21.49C118.06 21.49 115.8 21.55 115.49 21.65C115.36 21.7 115.24 21.86 115.14 22.11C115.03 22.4 115.06 22.95 115.22 23.76C115.37 24.58 115.58 25.32 115.84 26C116.46 27.52 117.47 28.66 118.87 29.39C120.26 30.13 121.77 30.36 123.39 30.07C125.01 29.79 126.42 29.04 127.64 27.82C128.05 27.41 128.35 27.2 128.52 27.2C128.69 27.2 128.9 27.34 129.16 27.63C128.43 29.26 127.21 30.52 125.5 31.41C123.8 32.3 121.95 32.66 119.95 32.48C118.03 32.3 116.39 31.67 115.02 30.58C113.65 29.49 112.66 28.19 112.05 26.66ZM123.02 12.92C121.65 12.27 120.28 12.27 118.92 12.92C117.56 13.56 116.55 14.7 115.87 16.33C115.51 17.19 115.3 17.94 115.23 18.61C115.17 19.27 115.28 19.65 115.56 19.75C115.84 19.85 117.28 19.92 119.85 19.95C122.43 19.97 123.9 19.93 124.26 19.83C125.53 19.47 126 18.4 125.68 16.62C125.35 14.85 124.47 13.62 123.02 12.92Z" id="b2CadTeYA1"></path><path d="M134.7 30.7C134.72 30.69 134.84 30.66 134.86 30.66C134.96 30.63 135.1 30.61 135.28 30.58C135.47 30.55 135.65 30.53 135.83 30.5C135.91 30.5 136.02 30.49 136.18 30.46C137.03 30.36 137.53 30.01 137.67 29.41C137.81 28.82 137.89 26.79 137.89 23.32C137.89 22.78 137.89 22.36 137.89 22.07C137.89 20 137.89 18.79 137.89 18.43C137.86 16.49 137.68 15.36 137.34 15.05C137.16 14.89 136.61 14.76 135.67 14.66C134.33 14.5 133.9 14.05 134.39 13.3C134.42 13.22 135.39 12.81 137.3 12.06C139.22 11.31 140.24 10.93 140.37 10.93C140.5 10.93 140.64 11 140.78 11.15C140.92 11.29 141 11.42 141 11.56C141 11.76 141.04 12.28 141.13 13.11C141.22 13.94 141.28 14.42 141.31 14.54C141.36 14.7 141.41 14.83 141.46 14.93C141.67 15.27 142.11 14.96 142.78 14C143.74 12.63 144.83 11.69 146.06 11.19C147.29 10.68 148.45 10.69 149.54 11.21C150.18 11.49 150.59 11.84 150.76 12.26C150.93 12.67 150.91 13.2 150.7 13.85C150.42 14.67 149.82 15.16 148.92 15.3C148.01 15.44 147.14 15.19 146.32 14.54C145.82 14.21 145.43 14.05 145.15 14.06C144.87 14.07 144.5 14.3 144.06 14.74C142.85 15.96 142.02 17.42 141.58 19.13C141.48 19.54 141.44 21.37 141.46 24.6C141.49 27.83 141.55 29.54 141.66 29.72C141.79 29.96 141.98 30.11 142.26 30.19C142.53 30.27 143.26 30.41 144.45 30.62C144.49 30.62 144.7 30.65 145.07 30.69C145.1 31.04 145.11 31.24 145.11 31.28C145.11 31.59 145.09 31.79 145.04 31.9C144.98 31.97 143.27 32.01 139.89 32.01C136.51 32.01 134.79 31.99 134.71 31.93C134.65 31.89 134.63 31.68 134.63 31.32C134.63 30.96 134.65 30.75 134.7 30.7Z" id="h3MfUdlgbX"></path><path d="M169.1 15.44C168.58 13.66 168.15 12.13 167.8 10.88C167.45 9.63 167.14 8.6 166.87 7.81C166.6 7.03 166.38 6.4 166.23 5.95C166.07 5.5 165.9 5.17 165.7 4.98C165.51 4.78 165.35 4.67 165.22 4.63C165.09 4.59 164.87 4.57 164.56 4.57C164.32 4.57 164.14 4.56 164.01 4.53C163.21 4.46 162.75 4.39 162.64 4.32C162.52 4.26 162.46 4.03 162.46 3.64C162.46 3.59 162.48 3.36 162.5 2.94C165.95 2.91 167.86 2.9 168.25 2.9C171.87 2.9 173.8 2.96 174.03 3.09C174.11 3.12 174.15 3.3 174.15 3.64C174.15 4 174.09 4.22 173.97 4.3C173.86 4.37 173.44 4.45 172.71 4.53C172.04 4.58 171.65 4.62 171.55 4.64C170.85 4.75 170.47 4.99 170.42 5.38C170.37 5.75 170.67 7.12 171.31 9.5C172.42 13.72 173.2 16.63 173.64 18.23C174.7 22.17 175.36 24.26 175.62 24.52C175.8 24.7 176.02 24.52 176.28 23.98C176.44 23.64 177.44 20.57 179.29 14.76C181.14 8.95 182.08 5.94 182.11 5.73C182.13 5.32 182.03 5.05 181.8 4.92C181.56 4.79 180.89 4.66 179.78 4.53C178.9 4.43 178.39 4.34 178.26 4.28C178.13 4.22 178.07 4 178.07 3.64C178.07 3.33 178.11 3.15 178.19 3.1C178.42 2.97 180.32 2.9 183.89 2.9C187.49 2.9 189.41 2.97 189.64 3.1C189.72 3.12 189.76 3.3 189.76 3.64C189.76 4 189.69 4.22 189.56 4.28C189.43 4.34 188.9 4.44 187.97 4.57C186.7 4.7 185.96 4.88 185.76 5.11C185.55 5.35 185.6 5.93 185.91 6.86C188.68 15.63 190.33 20.79 190.84 22.33C191.36 23.87 191.71 24.64 191.89 24.64C192.02 24.64 192.11 24.6 192.16 24.52C192.34 24.29 193.29 20.96 195 14.54C195.18 13.87 195.42 12.98 195.73 11.87C196.2 10.14 196.56 8.77 196.82 7.79C197.08 6.81 197.19 6.1 197.15 5.66C197.11 5.22 197.01 4.95 196.84 4.86C196.67 4.77 196.32 4.7 195.77 4.65C195.46 4.62 195.23 4.6 195.07 4.57C194.22 4.44 193.74 4.35 193.63 4.3C193.53 4.25 193.48 4.03 193.48 3.64C193.48 3.59 193.49 3.36 193.52 2.94C196.41 2.91 198.01 2.9 198.33 2.9C201.34 2.9 202.95 2.95 203.18 3.05C203.29 3.1 203.34 3.3 203.34 3.64C203.34 4 203.28 4.22 203.16 4.3C203.05 4.37 202.65 4.45 201.98 4.53C201 4.63 200.36 4.75 200.06 4.88C199.76 5.01 199.55 5.25 199.42 5.61C199.26 5.9 198.05 10.34 195.77 18.93C195.38 20.4 194.88 22.28 194.26 24.56C193.07 28.99 192.37 31.43 192.16 31.9C192.03 32.23 191.85 32.36 191.62 32.28C191.48 32.26 191.38 32.25 191.3 32.25C190.81 32.25 190.52 32.22 190.43 32.17C190.34 32.12 190.23 31.87 190.1 31.43C188.78 27.26 187.33 22.79 185.75 18.02C184.17 13.24 183.32 10.78 183.19 10.62C183.16 10.6 183.14 10.56 183.11 10.5C182.93 10.3 182.78 10.29 182.65 10.46C182.36 10.88 181.05 14.85 178.73 22.38C176.83 28.49 175.79 31.78 175.58 32.24C175.5 32.24 174.88 32.24 174.8 32.24C174.29 32.24 173.99 32.2 173.91 32.12C173.86 32.08 172.58 27.66 170.07 18.86C169.84 18.03 169.51 16.89 169.1 15.44Z" id="b68wozB2Bg"></path><path d="M206.45 29.01C205.75 28.09 205.18 27.06 204.74 25.92C204.3 24.78 204.07 23.62 204.06 22.43C204.05 21.24 204.15 20.05 204.37 18.87C204.59 17.7 205.01 16.6 205.63 15.57C206.25 14.55 206.99 13.67 207.83 12.92C208.67 12.17 209.7 11.6 210.91 11.23C212.13 10.85 213.45 10.73 214.87 10.86C218.08 11.14 220.54 12.64 222.25 15.34C223.96 18.05 224.44 21.15 223.69 24.64C223.12 27.2 221.83 29.22 219.82 30.69C217.82 32.17 215.55 32.76 213.01 32.48C211.59 32.33 210.31 31.94 209.19 31.32C208.06 30.7 207.15 29.93 206.45 29.01ZM219.77 18.54C219.56 17.3 219.17 16.21 218.59 15.27C218 14.32 217.34 13.62 216.61 13.17C215.87 12.71 215.07 12.46 214.22 12.39C213.36 12.33 212.56 12.47 211.81 12.84C211.06 13.2 210.38 13.81 209.75 14.66C209.13 15.51 208.68 16.55 208.4 17.77C207.88 20.46 207.81 22.83 208.18 24.89C208.56 26.95 209.39 28.53 210.67 29.65C211.95 30.76 213.45 31.14 215.19 30.77C217.05 30.41 218.42 29.07 219.28 26.76C220.15 24.44 220.31 21.7 219.77 18.54Z" id="d1x3Uq2ekR"></path><path d="M231.8 29.01C231.1 28.09 230.54 27.06 230.09 25.92C229.65 24.78 229.43 23.62 229.41 22.43C229.4 21.24 229.5 20.05 229.73 18.87C229.95 17.7 230.37 16.6 230.99 15.57C231.61 14.55 232.34 13.67 233.18 12.92C234.02 12.17 235.05 11.6 236.26 11.23C237.48 10.85 238.8 10.73 240.23 10.86C243.44 11.14 245.89 12.64 247.6 15.34C249.31 18.05 249.79 21.15 249.04 24.64C248.47 27.2 247.18 29.22 245.18 30.69C243.17 32.17 240.9 32.76 238.36 32.48C236.94 32.33 235.67 31.94 234.54 31.32C233.41 30.7 232.5 29.93 231.8 29.01ZM245.12 18.54C244.91 17.3 244.52 16.21 243.94 15.27C243.35 14.32 242.69 13.62 241.96 13.17C241.22 12.71 240.42 12.46 239.57 12.39C238.72 12.33 237.91 12.47 237.16 12.84C236.41 13.2 235.73 13.81 235.1 14.66C234.48 15.51 234.03 16.55 233.75 17.77C233.23 20.46 233.16 22.83 233.53 24.89C233.91 26.95 234.74 28.53 236.02 29.65C237.3 30.76 238.81 31.14 240.54 30.77C242.4 30.41 243.77 29.07 244.63 26.76C245.5 24.44 245.66 21.7 245.12 18.54Z" id="a48Vapysy"></path><path d="M268.26 12.26C268.88 12.7 269.28 12.85 269.46 12.72C269.64 12.52 269.73 11.11 269.73 8.49C269.73 8.34 269.73 8.22 269.73 8.14C269.73 7.91 269.73 7.6 269.73 7.21C269.73 5.09 269.64 3.89 269.46 3.6C269.31 3.34 268.83 3.19 268.03 3.14C267.87 3.11 267.74 3.1 267.64 3.1C266.88 3.04 266.45 2.98 266.32 2.9C266.19 2.83 266.12 2.62 266.12 2.28C266.12 1.95 266.22 1.73 266.41 1.64C266.61 1.55 267.65 1.25 269.54 0.73C269.8 0.65 270.16 0.55 270.63 0.42C270.73 0.39 270.82 0.37 270.9 0.34C272.14 0 272.86 -0.07 273.07 0.11C273.25 0.29 273.33 1.05 273.3 2.4C273.28 2.89 273.26 3.28 273.26 3.56C273.19 6.72 273.16 11.86 273.19 18.98C273.21 26.09 273.28 29.72 273.38 29.84C273.51 30.05 273.69 30.19 273.92 30.27C274.16 30.35 274.69 30.44 275.52 30.54C276.14 30.62 276.5 30.7 276.6 30.77C276.71 30.85 276.76 31.05 276.76 31.36C276.76 31.69 276.64 31.89 276.41 31.96C276.18 32.02 275.16 32.11 273.38 32.21C271.59 32.34 270.58 32.39 270.35 32.35C270.12 32.31 269.99 32.08 269.96 31.67C269.88 30.89 269.75 30.45 269.55 30.33C269.36 30.21 268.96 30.39 268.37 30.85C267.26 31.78 265.95 32.33 264.45 32.48C262.87 32.64 261.42 32.41 260.12 31.78C258.81 31.16 257.78 30.29 257.01 29.16C256.25 28.04 255.64 26.77 255.19 25.36C254.74 23.95 254.57 22.49 254.7 20.97C254.83 19.46 255.13 18.03 255.61 16.7C256.09 15.37 256.87 14.2 257.94 13.19C259.02 12.18 260.28 11.48 261.73 11.09C264.22 10.47 266.37 10.83 268.18 12.18C268.21 12.21 268.23 12.23 268.26 12.26ZM269.54 27.82C269.62 27.62 269.67 25.64 269.7 21.9C269.72 18.16 269.7 16.11 269.62 15.75C269.49 15.08 268.9 14.46 267.85 13.89C266.8 13.32 265.75 13.03 264.69 13.03C262.85 13.03 261.39 13.73 260.32 15.11C259.25 16.49 258.65 18.46 258.51 20.99C258.33 24.28 259.03 26.81 260.59 28.58C262.16 30.35 264.13 30.85 266.51 30.08C267.19 29.9 267.81 29.58 268.37 29.15C268.95 28.71 269.33 28.26 269.54 27.82Z" id="c1f2A4qtaF"></path><path d="M290.27 17.42C290.27 14.13 291.07 11.24 292.68 8.74C294.28 6.25 296.46 4.43 299.22 3.31C301.98 2.18 304.97 1.92 308.21 2.51C309.17 2.7 310.22 3 311.37 3.42C312.53 3.85 313.15 4.18 313.26 4.41C313.31 4.49 313.33 5.53 313.33 7.52C313.33 9.51 313.32 10.55 313.29 10.63C313.24 10.68 312.87 10.7 312.17 10.7C311.47 10.7 311.11 10.68 311.08 10.63C311.03 10.58 310.89 9.88 310.66 8.53C310.32 6.85 310.09 5.86 309.98 5.56C309.86 5.26 309.55 5.01 309.06 4.8C307.1 4.02 305.18 3.84 303.3 4.26C301.42 4.67 299.73 5.69 298.21 7.31C296.7 8.92 295.68 10.86 295.17 13.11C294.49 15.96 294.41 18.57 294.91 20.95C295.42 23.33 296.28 25.33 297.5 26.95C298.71 28.57 300.31 29.69 302.29 30.33C304.27 30.96 306.4 30.96 308.68 30.31C309.53 30.08 310.06 29.8 310.25 29.49C310.45 29.19 310.7 28.21 311.01 26.58C311.27 25.26 311.45 24.52 311.55 24.37C311.65 24.21 312.02 24.14 312.64 24.14C313.18 24.14 313.52 24.19 313.65 24.29C313.73 24.42 313.75 25.42 313.73 27.28C313.73 29.01 313.7 30 313.65 30.23C313.6 30.46 313.36 30.68 312.95 30.89C310.26 32.21 307.2 32.76 303.78 32.56C299.72 32.3 296.45 30.78 293.98 28C291.51 25.22 290.27 21.69 290.27 17.42Z" id="a6eiVO4r"></path><path d="M319.7 30.5C320.73 30.37 321.33 30.19 321.48 29.96C321.64 29.73 321.74 28.92 321.8 27.55C321.85 25.56 321.86 21.13 321.84 14.26C321.81 7.39 321.77 3.89 321.72 3.76C321.56 3.42 320.88 3.19 319.66 3.06C318.99 3.01 318.59 2.94 318.48 2.86C318.36 2.79 318.3 2.59 318.3 2.28C318.3 1.97 318.43 1.76 318.69 1.64C318.95 1.52 319.97 1.22 321.76 0.73C323.41 0.29 324.28 0.06 324.36 0.03C325.01 -0.07 325.38 0.09 325.48 0.54C325.54 0.74 325.53 1.97 325.44 4.22C325.42 5.36 325.41 9.26 325.41 15.93C325.41 22.59 325.42 26.58 325.44 27.9C325.5 29.07 325.61 29.76 325.77 29.98C325.94 30.2 326.54 30.37 327.58 30.5C328.25 30.61 328.71 30.8 328.96 31.07C329.2 31.34 329.17 31.63 328.86 31.94C328.76 32.02 327.01 32.05 323.62 32.04C320.23 32.02 318.49 31.98 318.42 31.9C318.34 31.82 318.3 31.64 318.3 31.36C318.3 31.07 318.34 30.88 318.42 30.77C318.44 30.7 318.87 30.61 319.7 30.5Z" id="a3btNxz9t"></path><path d="M333.29 30.7C333.41 30.68 334.37 30.52 334.49 30.5C334.57 30.5 334.69 30.49 334.84 30.46C335.74 30.36 336.27 30 336.41 29.39C336.55 28.79 336.63 26.75 336.63 23.28C336.63 22.76 336.63 22.36 336.63 22.08C336.63 19.75 336.63 18.39 336.63 18C336.58 16.24 336.36 15.21 335.97 14.9C335.76 14.74 335.11 14.63 334.03 14.55C333.48 14.52 333.17 14.48 333.09 14.41C333.02 14.35 332.98 14.15 332.98 13.81C332.98 13.47 333.08 13.25 333.29 13.15C333.49 13.05 334.49 12.67 336.28 12.02C338.04 11.4 339.01 11.06 339.19 11.01C339.53 10.93 339.84 11 340.12 11.21C340.12 12.12 340.16 19.42 340.16 20.33C340.16 20.98 340.16 21.84 340.16 22.93C340.16 26.63 340.21 28.79 340.32 29.39C340.42 30 340.81 30.35 341.48 30.42C341.71 30.45 341.9 30.47 342.03 30.5C342.18 30.53 342.34 30.55 342.51 30.58C342.68 30.6 342.82 30.63 342.92 30.65C342.93 30.66 343.06 30.69 343.07 30.69C343.13 30.75 343.15 30.95 343.15 31.31C343.15 31.68 343.13 31.89 343.07 31.93C343 31.99 341.37 32.01 338.18 32.01C335 32.01 333.37 31.99 333.29 31.93C333.24 31.89 333.21 31.68 333.21 31.32C333.21 30.96 333.24 30.75 333.29 30.7ZM335.7 2.14C335.98 1.43 336.51 0.93 337.29 0.65C338.19 0.34 339.05 0.45 339.85 0.98C340.66 1.51 341.06 2.23 341.06 3.13C341.06 4.01 340.67 4.73 339.91 5.27C339.14 5.81 338.32 5.94 337.44 5.66C336.64 5.4 336.08 4.93 335.75 4.24C335.43 3.55 335.41 2.86 335.7 2.14Z" id="l8cUcZSi8"></path><path d="M349.17 30.5C349.25 30.5 349.35 30.49 349.48 30.46C350.36 30.36 350.87 30 351.01 29.39C351.16 28.79 351.23 26.75 351.23 23.28C351.23 22.74 351.23 22.32 351.23 22.04C351.23 20.02 351.23 18.83 351.23 18.47C351.2 16.5 351.02 15.36 350.69 15.05C350.5 14.9 349.95 14.77 349.02 14.66C347.67 14.51 347.24 14.05 347.73 13.3C347.76 13.23 348.73 12.81 350.65 12.06C352.56 11.31 353.59 10.93 353.71 10.93C353.82 10.93 353.95 11 354.1 11.13C354.26 11.26 354.34 11.38 354.34 11.48C354.34 11.84 354.35 12.17 354.38 12.45C354.53 13.9 354.98 14.34 355.74 13.77C356.8 12.92 357.75 12.28 358.61 11.87C360.62 10.89 362.45 10.6 364.08 11.01C365.71 11.42 366.83 12.46 367.42 14.12C367.7 14.92 367.87 15.74 367.92 16.57C367.98 17.39 368.03 19.61 368.08 23.2C368.08 25.64 368.09 26.93 368.12 27.09C368.15 28.9 368.31 29.93 368.62 30.19C368.73 30.27 369.19 30.37 370.02 30.5C370.62 30.61 370.96 30.69 371.05 30.75C371.14 30.82 371.19 31.01 371.19 31.32C371.19 31.63 371.15 31.81 371.07 31.86C370.89 31.96 369.27 32.01 366.22 32.01C365.88 32.01 365.43 32.01 364.86 32.01C363.05 32.01 361.99 31.99 361.68 31.96C361.37 31.92 361.22 31.76 361.25 31.47C361.25 31.39 361.25 31.34 361.25 31.32C361.25 30.98 361.29 30.79 361.37 30.73C361.44 30.68 361.82 30.6 362.49 30.5C362.6 30.48 362.75 30.45 362.96 30.43C363.61 30.35 364.02 30.18 364.2 29.92C364.41 29.53 364.51 27.98 364.51 25.26C364.51 24.59 364.51 24.06 364.51 23.67C364.51 21.83 364.5 20.42 364.47 19.42C364.45 18.42 364.4 17.53 364.32 16.74C364.24 15.95 364.11 15.38 363.91 15.03C363.72 14.68 363.49 14.41 363.23 14.2C362.97 13.99 362.61 13.82 362.14 13.69C361.08 13.41 359.74 13.58 358.11 14.22C356.47 14.85 355.44 15.61 355 16.49C354.99 16.51 354.92 16.64 354.8 16.88C354.8 20.65 354.8 22.75 354.8 23.17C354.8 25.63 354.82 26.95 354.84 27.13C354.87 28.91 355.03 29.94 355.31 30.19C355.44 30.27 355.91 30.37 356.71 30.5C357.28 30.61 357.62 30.7 357.74 30.78C357.86 30.85 357.91 31.05 357.91 31.36C357.91 31.65 357.87 31.8 357.79 31.82C357.64 31.96 356.01 32.02 352.9 32.02C349.72 32.02 348.09 31.98 348.01 31.9C347.93 31.82 347.89 31.65 347.89 31.36C347.88 31.07 347.92 30.88 348 30.77C348.03 30.72 348.42 30.63 349.17 30.5Z" id="axBcKXhKA"></path><path d="M375.65 30.7C375.77 30.68 376.73 30.52 376.85 30.5C376.93 30.5 377.04 30.49 377.2 30.46C378.1 30.36 378.63 30 378.77 29.39C378.91 28.79 378.98 26.75 378.98 23.28C378.98 22.76 378.98 22.36 378.98 22.08C378.98 19.75 378.98 18.39 378.98 18C378.93 16.24 378.71 15.21 378.32 14.9C378.11 14.74 377.47 14.63 376.38 14.55C375.84 14.52 375.53 14.48 375.45 14.41C375.37 14.35 375.33 14.15 375.33 13.81C375.33 13.47 375.44 13.25 375.65 13.15C375.85 13.05 376.85 12.67 378.63 12.02C380.39 11.4 381.36 11.06 381.55 11.01C381.88 10.93 382.19 11 382.48 11.21C382.48 12.12 382.51 19.42 382.52 20.33C382.52 20.98 382.52 21.84 382.52 22.93C382.52 26.63 382.57 28.79 382.67 29.39C382.78 30 383.16 30.35 383.84 30.42C384.07 30.45 384.25 30.47 384.38 30.5C384.54 30.53 384.7 30.55 384.87 30.58C385.03 30.6 385.17 30.63 385.28 30.65C385.29 30.66 385.41 30.69 385.43 30.69C385.48 30.75 385.51 30.95 385.51 31.31C385.51 31.68 385.48 31.89 385.43 31.93C385.35 31.99 383.72 32.01 380.54 32.01C377.35 32.01 375.72 31.99 375.65 31.93C375.59 31.89 375.57 31.68 375.57 31.32C375.57 30.96 375.59 30.75 375.65 30.7ZM378.05 2.14C378.34 1.43 378.87 0.93 379.65 0.65C380.55 0.34 381.41 0.45 382.21 0.98C383.01 1.51 383.41 2.23 383.41 3.13C383.41 4.01 383.03 4.73 382.27 5.27C381.5 5.81 380.68 5.94 379.8 5.66C379 5.4 378.43 4.93 378.11 4.24C377.79 3.55 377.77 2.86 378.05 2.14Z" id="b6huJEwClL"></path><path d="M391.31 26.89C390.68 25.42 390.34 23.82 390.32 22.1C390.29 20.38 390.57 18.75 391.16 17.23C391.74 15.7 392.69 14.35 394.01 13.19C395.33 12.02 396.91 11.28 398.75 10.97C400.74 10.61 402.6 10.85 404.31 11.69C406.03 12.53 407.19 13.74 407.79 15.32C408.1 16.15 408.05 16.82 407.64 17.32C407.22 17.83 406.59 18 405.73 17.85C405.14 17.72 404.72 17.49 404.49 17.17C404.25 16.84 403.97 16.07 403.63 14.86C403.35 13.8 403.05 13.13 402.74 12.88C402.43 12.62 401.76 12.49 400.72 12.49C398.45 12.49 396.69 13.48 395.45 15.46C394.2 17.44 393.76 19.94 394.12 22.97C394.41 25.3 395.3 27.13 396.78 28.48C398.27 29.83 399.98 30.4 401.91 30.21C403.84 30.01 405.54 29.05 407.01 27.31C407.3 27 407.56 26.9 407.81 27C408.05 27.11 408.11 27.35 407.98 27.74C407.33 29.35 406.2 30.58 404.58 31.45C402.97 32.31 401.15 32.66 399.13 32.48C397.27 32.33 395.66 31.73 394.3 30.68C392.94 29.63 391.94 28.37 391.31 26.89Z" id="f1ty6lKs2F"></path></defs><g><g><g><g><use xlink:href="#cMzGtHYm3" opacity="1" fill="#2d1915" fill-opacity="1"></use><g><use xlink:href="#cMzGtHYm3" opacity="1" fill-opacity="0" stroke="#000000" stroke-width="1" stroke-opacity="0"></use></g></g><g><use xlink:href="#c9hKxgKeyp" opacity="1" fill="#2d1915" fill-opacity="1"></use><g><use xlink:href="#c9hKxgKeyp" opacity="1" fill-opacity="0" stroke="#000000" stroke-width="1" stroke-opacity="0"></use></g></g><g><use xlink:href="#g7SQXO3rEp" opacity="1" fill="#2d1915" fill-opacity="1"></use><g><use xlink:href="#g7SQXO3rEp" opacity="1" fill-opacity="0" stroke="#000000" stroke-width="1" stroke-opacity="0"></use></g></g><g><use xlink:href="#f7uZojcvt" opacity="1" fill="#2d1915" fill-opacity="1"></use><g><use xlink:href="#f7uZojcvt" opacity="1" fill-opacity="0" stroke="#000000" stroke-width="1" stroke-opacity="0"></use></g></g><g><use xlink:href="#d21DTKY4R0" opacity="1" fill="#2d1915" fill-opacity="1"></use><g><use xlink:href="#d21DTKY4R0" opacity="1" fill-opacity="0" stroke="#000000" stroke-width="1" stroke-opacity="0"></use></g></g></g><g><g><use xlink:href="#a1qDvLVlxe" opacity="1" fill="#2d1915" fill-opacity="1"></use><g><use xlink:href="#a1qDvLVlxe" opacity="1" fill-opacity="0" stroke="#000000" stroke-width="1" stroke-opacity="0"></use></g></g><g><use xlink:href="#bsJLZcFQ5" opacity="1" fill="#2d1915" fill-opacity="1"></use><g><use xlink:href="#bsJLZcFQ5" opacity="1" fill-opacity="0" stroke="#000000" stroke-width="1" stroke-opacity="0"></use></g></g><g><use xlink:href="#dtAfRu674" opacity="1" fill="#2d1915" fill-opacity="1"></use><g><use xlink:href="#dtAfRu674" opacity="1" fill-opacity="0" stroke="#000000" stroke-width="1" stroke-opacity="0"></use></g></g><g><use xlink:href="#a1J0c70GZf" opacity="1" fill="#2d1915" fill-opacity="1"></use><g><use xlink:href="#a1J0c70GZf" opacity="1" fill-opacity="0" stroke="#000000" stroke-width="1" stroke-opacity="0"></use></g></g><g><use xlink:href="#b2CadTeYA1" opacity="1" fill="#2d1915" fill-opacity="1"></use><g><use xlink:href="#b2CadTeYA1" opacity="1" fill-opacity="0" stroke="#000000" stroke-width="1" stroke-opacity="0"></use></g></g><g><use xlink:href="#h3MfUdlgbX" opacity="1" fill="#2d1915" fill-opacity="1"></use><g><use xlink:href="#h3MfUdlgbX" opacity="1" fill-opacity="0" stroke="#000000" stroke-width="1" stroke-opacity="0"></use></g></g><g><use xlink:href="#b68wozB2Bg" opacity="1" fill="#2d1915" fill-opacity="1"></use><g><use xlink:href="#b68wozB2Bg" opacity="1" fill-opacity="0" stroke="#000000" stroke-width="1" stroke-opacity="0"></use></g></g><g><use xlink:href="#d1x3Uq2ekR" opacity="1" fill="#2d1915" fill-opacity="1"></use><g><use xlink:href="#d1x3Uq2ekR" opacity="1" fill-opacity="0" stroke="#000000" stroke-width="1" stroke-opacity="0"></use></g></g><g><use xlink:href="#a48Vapysy" opacity="1" fill="#2d1915" fill-opacity="1"></use><g><use xlink:href="#a48Vapysy" opacity="1" fill-opacity="0" stroke="#000000" stroke-width="1" stroke-opacity="0"></use></g></g><g><use xlink:href="#c1f2A4qtaF" opacity="1" fill="#2d1915" fill-opacity="1"></use><g><use xlink:href="#c1f2A4qtaF" opacity="1" fill-opacity="0" stroke="#000000" stroke-width="1" stroke-opacity="0"></use></g></g><g><use xlink:href="#a6eiVO4r" opacity="1" fill="#2d1915" fill-opacity="1"></use><g><use xlink:href="#a6eiVO4r" opacity="1" fill-opacity="0" stroke="#000000" stroke-width="1" stroke-opacity="0"></use></g></g><g><use xlink:href="#a3btNxz9t" opacity="1" fill="#2d1915" fill-opacity="1"></use><g><use xlink:href="#a3btNxz9t" opacity="1" fill-opacity="0" stroke="#000000" stroke-width="1" stroke-opacity="0"></use></g></g><g><use xlink:href="#l8cUcZSi8" opacity="1" fill="#2d1915" fill-opacity="1"></use><g><use xlink:href="#l8cUcZSi8" opacity="1" fill-opacity="0" stroke="#000000" stroke-width="1" stroke-opacity="0"></use></g></g><g><use xlink:href="#axBcKXhKA" opacity="1" fill="#2d1915" fill-opacity="1"></use><g><use xlink:href="#axBcKXhKA" opacity="1" fill-opacity="0" stroke="#000000" stroke-width="1" stroke-opacity="0"></use></g></g><g><use xlink:href="#b6huJEwClL" opacity="1" fill="#2d1915" fill-opacity="1"></use><g><use xlink:href="#b6huJEwClL" opacity="1" fill-opacity="0" stroke="#000000" stroke-width="1" stroke-opacity="0"></use></g></g><g><use xlink:href="#f1ty6lKs2F" opacity="1" fill="#2d1915" fill-opacity="1"></use><g><use xlink:href="#f1ty6lKs2F" opacity="1" fill-opacity="0" stroke="#000000" stroke-width="1" stroke-opacity="0"></use></g></g></g></g></g></svg>