<?xml version="1.0" encoding="UTF-8" standalone="no"?>
<!DOCTYPE svg PUBLIC "-//W3C//DTD SVG 1.1//EN" "http://www.w3.org/Graphics/SVG/1.1/DTD/svg11.dtd">
<svg version="1.1" xmlns="http://www.w3.org/2000/svg" xmlns:xlink="http://www.w3.org/1999/xlink" preserveAspectRatio="xMidYMid meet" viewBox="0 0 312.67 64" width="312.67" height="64"><defs><path d="M21.09 46.69C21.09 51.52 25.01 55.44 29.85 55.44C34.68 55.44 38.6 51.52 38.6 46.69C38.6 41.85 34.68 37.94 29.85 37.94C25.01 37.94 21.09 41.85 21.09 46.69Z" id="a21rsLh2tn"></path><path d="M21.09 46.69C21.09 51.52 25.01 55.44 29.85 55.44C34.68 55.44 38.6 51.52 38.6 46.69C38.6 41.85 34.68 37.94 29.85 37.94C25.01 37.94 21.09 41.85 21.09 46.69Z" id="bkgpoQsui"></path><path d="M45.15 37.94C45.15 30.48 51.2 24.43 58.66 24.43C66.11 24.43 72.16 30.48 72.16 37.94C72.16 45.39 66.11 51.44 58.66 51.44C51.2 51.44 45.15 45.39 45.15 37.94Z" id="d5zuFbbyLz"></path><path d="M45.15 37.94C45.15 30.48 51.2 24.43 58.66 24.43C66.11 24.43 72.16 30.48 72.16 37.94C72.16 45.39 66.11 51.44 58.66 51.44C51.2 51.44 45.15 45.39 45.15 37.94Z" id="jfbfrpnjk"></path><path d="M34.5 44.07C34.5 37.67 39.69 32.48 46.09 32.48C52.49 32.48 57.68 37.67 57.68 44.07C57.68 50.47 52.49 55.66 46.09 55.66C39.69 55.66 34.5 50.47 34.5 44.07Z" id="boq7B5R5s"></path><path d="M34.5 44.07C34.5 37.67 39.69 32.48 46.09 32.48C52.49 32.48 57.68 37.67 57.68 44.07C57.68 50.47 52.49 55.66 46.09 55.66C39.69 55.66 34.5 50.47 34.5 44.07Z" id="aX9x3Rtn"></path><path d="M32.7 19.54C32.7 11.2 39.46 4.45 47.79 4.45C56.12 4.45 62.88 11.2 62.88 19.54C62.88 27.87 56.12 34.63 47.79 34.63C39.46 34.63 32.7 27.87 32.7 19.54Z" id="bR9UXuULi"></path><path d="M32.7 19.54C32.7 11.2 39.46 4.45 47.79 4.45C56.12 4.45 62.88 11.2 62.88 19.54C62.88 27.87 56.12 34.63 47.79 34.63C39.46 34.63 32.7 27.87 32.7 19.54Z" id="bojcqGwcq"></path><path d="M18.06 12.2C18.06 5.46 23.52 0 30.25 0C36.99 0 42.45 5.46 42.45 12.2C42.45 18.94 36.99 24.4 30.25 24.4C23.52 24.4 18.06 18.94 18.06 12.2Z" id="cwwleUCGW"></path><path d="M18.06 12.2C18.06 5.46 23.52 0 30.25 0C36.99 0 42.45 5.46 42.45 12.2C42.45 18.94 36.99 24.4 30.25 24.4C23.52 24.4 18.06 18.94 18.06 12.2Z" id="b1l778nVME"></path><path d="M9.41 21.28C9.41 25.02 12.44 28.05 16.17 28.05C19.91 28.05 22.94 25.02 22.94 21.28C22.94 17.54 19.91 14.51 16.17 14.51C12.44 14.51 9.41 17.54 9.41 21.28Z" id="aasLVSYDG"></path><path d="M9.41 21.28C9.41 25.02 12.44 28.05 16.17 28.05C19.91 28.05 22.94 25.02 22.94 21.28C22.94 17.54 19.91 14.51 16.17 14.51C12.44 14.51 9.41 17.54 9.41 21.28Z" id="c3EKgmXo0P"></path><path d="M42.12 32.01C42.12 39.13 36.36 44.9 29.24 44.9C22.12 44.9 16.35 39.13 16.35 32.01C16.35 24.9 22.12 19.13 29.24 19.13C36.36 19.13 42.12 24.9 42.12 32.01Z" id="cDLFzHXSI"></path><path d="M42.12 32.01C42.12 39.13 36.36 44.9 29.24 44.9C22.12 44.9 16.35 39.13 16.35 32.01C16.35 24.9 22.12 19.13 29.24 19.13C36.36 19.13 42.12 24.9 42.12 32.01Z" id="b6ecCRsXpp"></path><path d="M0.1 39.71C0.1 47.3 6.25 53.45 13.83 53.45C21.42 53.45 27.57 47.3 27.57 39.71C27.57 32.12 21.42 25.97 13.83 25.97C6.25 25.97 0.1 32.12 0.1 39.71Z" id="a1Ql7OVKLJ"></path><path d="M0.1 39.71C0.1 47.3 6.25 53.45 13.83 53.45C21.42 53.45 27.57 47.3 27.57 39.71C27.57 32.12 21.42 25.97 13.83 25.97C6.25 25.97 0.1 32.12 0.1 39.71Z" id="a1rHMQtuNd"></path><path d="M38.35 52.83C37.57 47.82 36.08 49.01 35.5 34.69C40.94 33.13 46.24 31.58 47.23 31.19C49.29 30.37 51.85 28.97 51.12 28.27C50.38 27.57 48.46 28.3 46.08 28.88C45 29.14 40.34 30.74 35.43 32.45C35.39 31.45 35.37 30.4 35.35 29.26C35.26 24.98 35.2 18.02 33.92 18.02C32.92 18.02 32.62 27.35 32.72 33.4C27.74 35.15 23.15 36.8 22.47 37.06C19.34 38.26 19.23 39.28 22.63 38.33C23.3 38.15 27.8 36.88 32.78 35.47C32.81 36.34 32.86 37.06 32.92 37.58C33.31 41.16 32.43 59.32 32.3 62.17C27.4 62.17 22.51 61.91 17.62 62.06C12.17 62.22 6.36 64.28 0.97 62.65C-0.21 62.3 -0.38 62.81 0.81 63.17C5.23 64.51 9.85 63.96 14.35 63.37C20.56 62.55 26.68 63.22 32.91 63.07C45.75 62.76 59.33 62.75 72.16 62.36C72.61 62.35 71.73 61.25 69.78 61.25C59.59 61.25 49.39 61.72 39.2 62.03C39.16 60.76 39.03 57.25 38.35 52.83Z" id="ab0cxNrlny"></path><path d="M38.35 52.83C37.57 47.82 36.08 49.01 35.5 34.69C40.94 33.13 46.24 31.58 47.23 31.19C49.29 30.37 51.85 28.97 51.12 28.27C50.38 27.57 48.46 28.3 46.08 28.88C45 29.14 40.34 30.74 35.43 32.45C35.39 31.45 35.37 30.4 35.35 29.26C35.26 24.98 35.2 18.02 33.92 18.02C32.92 18.02 32.62 27.35 32.72 33.4C27.74 35.15 23.15 36.8 22.47 37.06C19.34 38.26 19.23 39.28 22.63 38.33C23.3 38.15 27.8 36.88 32.78 35.47C32.81 36.34 32.86 37.06 32.92 37.58C33.31 41.16 32.43 59.32 32.3 62.17C27.4 62.17 22.51 61.91 17.62 62.06C12.17 62.22 6.36 64.28 0.97 62.65C-0.21 62.3 -0.38 62.81 0.81 63.17C5.23 64.51 9.85 63.96 14.35 63.37C20.56 62.55 26.68 63.22 32.91 63.07C45.75 62.76 59.33 62.75 72.16 62.36C72.61 62.35 71.73 61.25 69.78 61.25C59.59 61.25 49.39 61.72 39.2 62.03C39.16 60.76 39.03 57.25 38.35 52.83Z" id="f14jKgI44Y"></path><path d="M44 23.14C44.11 23.19 44.32 23.47 44.39 23.7C44.46 23.92 44.34 24.48 44.32 24.68C44.3 24.88 44.72 26.56 45.45 27.05C46.18 27.54 47.19 27.59 47.19 27.59C47.19 27.59 47.43 27.7 47.37 27.83C47.31 27.94 47.27 28.51 47.13 28.57C47.01 28.61 46.94 28.67 46.94 28.67C46.97 28.66 47.28 28.57 47.31 28.57C47.31 28.57 47.49 27.63 47.84 27.61C48.2 27.6 48.05 27.58 48.23 27.54C48.4 27.49 48.37 27.34 48.66 27.35C48.96 27.35 49.37 27.34 49.89 27.18C50.65 26.95 51.4 27.44 51.72 27.56C51.88 27.61 51.84 27.46 51.84 27.46C51.84 27.46 52.03 27.45 52.06 27.39C52.09 27.33 52.08 27.32 52.08 27.32C52.08 27.32 51.81 27.25 51.27 27C51 26.87 50.93 26.8 50.93 26.8C50.93 26.8 50.91 26.73 50.85 26.7C50.77 26.68 49.51 25.88 48.72 25.26C47.93 24.63 47.92 24.54 47.53 24.25C47.14 23.96 46.8 23.87 46.67 23.75C46.55 23.63 46.59 22.45 45.67 22.16C44.92 21.92 44.43 22.25 44.18 22.62C44.02 22.68 43.42 22.9 43.34 22.94C43.47 22.98 43.88 23.07 44 23.14Z" id="a1KujAxCra"></path><path d="M44 23.14C44.11 23.19 44.32 23.47 44.39 23.7C44.46 23.92 44.34 24.48 44.32 24.68C44.3 24.88 44.72 26.56 45.45 27.05C46.18 27.54 47.19 27.59 47.19 27.59C47.19 27.59 47.43 27.7 47.37 27.83C47.31 27.94 47.27 28.51 47.13 28.57C47.01 28.61 46.94 28.67 46.94 28.67C46.97 28.66 47.28 28.57 47.31 28.57C47.31 28.57 47.49 27.63 47.84 27.61C48.2 27.6 48.05 27.58 48.23 27.54C48.4 27.49 48.37 27.34 48.66 27.35C48.96 27.35 49.37 27.34 49.89 27.18C50.65 26.95 51.4 27.44 51.72 27.56C51.88 27.61 51.84 27.46 51.84 27.46C51.84 27.46 52.03 27.45 52.06 27.39C52.09 27.33 52.08 27.32 52.08 27.32C52.08 27.32 51.81 27.25 51.27 27C51 26.87 50.93 26.8 50.93 26.8C50.93 26.8 50.91 26.73 50.85 26.7C50.77 26.68 49.51 25.88 48.72 25.26C47.93 24.63 47.92 24.54 47.53 24.25C47.14 23.96 46.8 23.87 46.67 23.75C46.55 23.63 46.59 22.45 45.67 22.16C44.92 21.92 44.43 22.25 44.18 22.62C44.02 22.68 43.42 22.9 43.34 22.94C43.47 22.98 43.88 23.07 44 23.14Z" id="b32Gv7Jade"></path><path d="M104.63 49.54C104.03 49.42 103.73 49.29 103.73 49.14C103.76 49.02 104.78 48.96 106.78 48.96C106.9 48.96 107.08 48.98 107.32 49C107.38 49 107.42 49 107.45 49C108.23 49.03 108.71 48.89 108.89 48.56C109.1 48.17 109.2 46.41 109.2 43.27C109.2 42.49 109.2 41.9 109.2 41.48C109.2 37.36 109.16 35.1 109.07 34.71C109.01 34.47 108.84 34.3 108.57 34.18C108.27 34.03 106.06 33.97 101.92 34C97.78 34.03 95.13 34.12 93.97 34.27C93.61 34.33 93.37 34.3 93.25 34.2C93.13 34.09 92.92 33.74 92.62 33.15C92.35 32.58 92.24 32.26 92.29 32.18C92.33 32.11 92.64 32.12 93.21 32.2C94.61 32.41 95.77 32.54 96.7 32.59C97.63 32.63 99.73 32.65 103.02 32.65C107.35 32.68 109.77 32.62 110.28 32.47C110.6 32.38 110.87 32.08 111.08 31.58C111.17 31.37 111.22 31.22 111.22 31.13C111.22 30.86 110.8 30.85 109.96 31.08C109.22 31.32 108.73 31.41 108.51 31.35C108.28 31.29 108.17 31.07 108.17 30.68C108.17 29.85 107.82 29.21 107.12 28.78C106.42 28.34 105.62 28.28 104.72 28.58C103.88 28.82 103.32 28.92 103.04 28.89C102.76 28.86 102.61 28.65 102.61 28.26C102.61 27.7 102.28 27.29 101.61 27.05C100.93 26.81 100.25 26.81 99.57 27.05C98.88 27.29 98.51 27.7 98.45 28.26C98.36 29.07 97.73 29.58 96.57 29.78C95.94 29.87 95.56 29.81 95.45 29.61C95.33 29.4 95.3 28.83 95.36 27.9C95.59 25.22 95.43 22.12 94.86 18.63C94.74 17.97 94.74 17.63 94.86 17.6C94.98 17.57 95.55 17.76 96.56 18.18C98.24 18.87 99.57 19.22 100.55 19.23C101.54 19.25 102.37 18.93 103.06 18.27C103.42 17.91 103.69 17.75 103.87 17.78C104.05 17.81 104.54 18.14 105.35 18.76C106.03 19.3 106.45 19.65 106.6 19.79C106.81 20.03 106.76 20.24 106.47 20.42C106.05 20.66 105.76 21.68 105.61 23.49C105.46 25.3 105.55 26.54 105.88 27.23C105.89 27.26 105.95 27.41 106.06 27.68C106.52 27.68 106.77 27.68 106.82 27.68C106.91 27.68 107.02 27.68 107.14 27.68C108 27.74 108.55 27.62 108.79 27.32C109 26.96 109.11 25.44 109.11 22.75C109.11 22.33 109.11 22.02 109.11 21.81C109.11 19.06 109.09 17.46 109.04 17.02C109 16.57 108.81 16.27 108.48 16.12C108.18 15.97 106.04 15.91 102.05 15.94C98.06 15.97 95.49 16.06 94.32 16.21C93.97 16.27 93.73 16.26 93.63 16.17C93.52 16.08 93.32 15.73 93.02 15.14C92.76 14.6 92.62 14.27 92.62 14.15C92.62 14.03 92.83 14 93.25 14.06C95.01 14.39 98.3 14.57 103.1 14.6C103.46 14.6 103.96 14.6 104.58 14.6C107.45 14.63 109.15 14.59 109.67 14.49C110.19 14.38 110.69 14 111.17 13.34C111.32 13.14 111.44 12.97 111.53 12.85C111.86 12.37 112.08 12.12 112.2 12.09C112.32 12.06 112.57 12.21 112.96 12.54C114.84 14.03 115.8 14.97 115.83 15.36C115.83 15.69 115.32 15.87 114.31 15.9C114.22 15.9 114.08 15.9 113.9 15.9C113.21 15.93 112.81 16.06 112.69 16.3C112.48 16.63 112.36 18.2 112.33 21C112.33 21.66 112.33 22.17 112.33 22.53C112.3 26.26 112.21 28.37 112.07 28.84C111.98 29.17 111.93 29.47 111.93 29.74C111.96 30.25 112.11 30.38 112.38 30.14C112.47 30.05 112.58 30.05 112.72 30.12C112.85 30.2 113.14 30.43 113.59 30.82C115.26 32.34 116.1 33.25 116.1 33.55C116.1 33.82 115.58 33.97 114.53 34C113.84 34.03 113.4 34.07 113.19 34.13C112.98 34.19 112.8 34.34 112.65 34.58C112.53 34.73 112.45 37.31 112.42 42.33C112.39 46.3 112.35 48.68 112.29 49.45C112.23 50.23 112.05 50.83 111.75 51.24C111.51 51.6 110.92 51.97 109.96 52.36C108.47 53.02 107.72 53.04 107.72 52.41C107.72 51.75 107.45 51.17 106.89 50.66C106.34 50.15 105.59 49.78 104.63 49.54ZM95.09 48.33C95.03 48.12 95.03 47.68 95.09 46.99C95.33 43.88 95.18 40.46 94.64 36.73C94.64 36.7 94.62 36.64 94.6 36.55C94.51 36.07 94.52 35.82 94.64 35.79C94.76 35.76 95.22 35.91 96.03 36.24C96.27 36.32 96.46 36.4 96.61 36.46C96.74 36.51 97.4 36.78 98.58 37.27C99.58 37.29 100.13 37.31 100.24 37.31C101.2 37.31 101.82 37.27 102.12 37.18C102.42 37.09 102.8 36.82 103.24 36.37C103.57 36.01 103.83 35.85 104 35.9C104.18 35.94 104.68 36.28 105.48 36.91C106.35 37.56 106.83 37.98 106.92 38.16C107.04 38.34 106.89 38.51 106.47 38.65C106.14 38.8 105.95 39.22 105.89 39.91C105.83 40.6 105.84 42.1 105.93 44.43C105.93 44.57 105.95 45.28 105.98 46.54C105.76 46.73 105.64 46.83 105.62 46.85C104.9 47.36 104.22 47.61 103.58 47.59C102.94 47.58 102.62 47.3 102.62 46.76C102.62 46.28 102.47 45.96 102.19 45.8C101.91 45.63 101.33 45.55 100.47 45.55C99.51 45.55 98.91 45.63 98.67 45.8C98.43 45.96 98.33 46.37 98.36 47.03C98.36 47.1 98.36 47.68 98.36 47.75C97.52 48.46 96.75 48.82 96.03 48.82C95.82 48.83 95.66 48.8 95.54 48.74C95.3 48.68 95.15 48.54 95.09 48.33ZM102.12 38.7C101.94 38.58 101.4 38.52 100.49 38.52C99.57 38.52 99.03 38.58 98.85 38.7C98.46 38.94 98.27 39.83 98.27 41.37C98.27 42.9 98.46 43.78 98.85 43.99C99.03 44.11 99.58 44.17 100.49 44.19C101.4 44.2 101.94 44.15 102.12 44.03C102.54 43.79 102.75 42.9 102.75 41.37C102.75 39.83 102.54 38.94 102.12 38.7ZM102.03 20.56C101.82 20.44 101.3 20.38 100.46 20.4C99.63 20.41 99.12 20.5 98.94 20.65C98.55 20.88 98.36 21.69 98.36 23.06C98.36 24.44 98.55 25.25 98.94 25.48C99.12 25.63 99.63 25.72 100.46 25.73C101.3 25.75 101.82 25.69 102.03 25.57C102.45 25.34 102.66 24.5 102.66 23.06C102.66 21.63 102.45 20.79 102.03 20.56ZM126.49 38.66C128.2 43.22 130.5 46.6 133.39 48.78C134.02 49.29 134.02 49.65 133.39 49.86C132.88 50.04 132.39 50.38 131.91 50.89C131.44 51.39 131.12 51.9 130.97 52.41C130.82 52.83 130.49 52.77 129.99 52.23C127.33 49.3 125.39 44.36 124.16 37.4C123.81 35.25 123.51 34.17 123.27 34.17C123.06 34.14 122.82 34.77 122.55 36.06C121.68 39.91 120.56 43.08 119.19 45.55C117.82 48.03 115.96 50.24 113.63 52.18C113.1 52.63 112.79 52.87 112.72 52.9C112.64 52.93 112.51 52.89 112.34 52.77C112.19 52.62 112.14 52.46 112.2 52.3C112.26 52.13 112.47 51.86 112.83 51.47C116.56 47.26 118.85 41.64 119.68 34.62C119.92 32.74 120.09 30.29 120.18 27.27C120.27 24.26 120.24 22.59 120.09 22.26C120 22.11 119.91 21.99 119.82 21.9C119.46 21.66 118.86 22.23 118.03 23.6C117.19 24.97 116.31 26.21 115.38 27.32C114.46 28.42 113.87 28.93 113.63 28.84C113.48 28.72 113.43 28.6 113.48 28.46C113.52 28.33 113.74 27.87 114.13 27.09C116.43 22.58 117.99 17.52 118.83 11.91C118.89 11.46 118.97 11.19 119.06 11.1C119.12 11.01 119.93 11.19 121.5 11.64C123.07 12.08 123.86 12.37 123.89 12.49C123.92 12.58 123.86 12.7 123.69 12.85C123.53 13 123.36 13.1 123.18 13.16C122.85 13.31 122.59 13.53 122.39 13.83C122.2 14.13 121.94 14.76 121.61 15.71C121.55 15.89 121.46 16.16 121.34 16.52C121.22 16.88 121.11 17.2 121 17.48C120.9 17.77 120.82 17.98 120.76 18.13C120.34 19.15 120.29 19.75 120.6 19.93C120.91 20.1 122.18 20.21 124.39 20.24C124.62 20.24 125.77 20.24 127.84 20.24C128.13 20.1 128.3 20.03 128.33 20.01C128.6 19.89 129.03 19.57 129.63 19.03C130.11 18.55 130.37 18.31 130.44 18.31C130.52 18.31 131.11 18.85 132.18 19.92C133.26 21 133.8 21.57 133.8 21.63C133.8 21.69 133.68 21.78 133.44 21.9C133.2 22.02 133.02 22.08 132.9 22.08C132.6 22.08 131.87 22.94 130.7 24.67C128.31 28.32 126.94 30.14 126.58 30.14C126.46 30.14 126.38 30.12 126.34 30.07C126.29 30.03 126.27 29.95 126.27 29.83C126.27 29.71 126.3 29.54 126.36 29.33C126.42 29.13 126.51 28.83 126.63 28.44C127.07 27.21 127.43 26.09 127.7 25.08C128.24 23.29 128.43 22.24 128.28 21.94C128.13 21.64 127.39 21.49 126.04 21.49C125.88 21.49 124.59 21.49 124.43 21.49C124.25 21.7 124.06 21.9 123.85 22.08C123.85 22.17 123.85 22.62 123.85 23.42C124.48 30.53 125.36 35.61 126.49 38.66Z" id="a4w2ytBAR3"></path><path d="M158.12 48.31C157.81 48.3 157.2 48.48 156.31 48.87C151.71 50.78 146.18 52.1 139.73 52.81C138.41 52.96 137.71 52.98 137.62 52.86C137.53 52.8 137.49 52.74 137.49 52.68C137.49 52.5 138.28 52.26 139.86 51.96C145.3 50.89 149.7 49.54 153.08 47.93C154.21 47.39 154.83 46.97 154.92 46.65C155.01 46.34 154.65 45.85 153.84 45.2C151.81 43.61 150.02 41.66 148.47 39.33C147.78 38.34 147.31 37.78 147.05 37.65C146.8 37.51 146.08 37.43 144.88 37.4C142.07 37.4 140.15 37.49 139.1 37.67C138.77 37.73 138.56 37.72 138.45 37.63C138.35 37.54 138.15 37.22 137.85 36.69C137.52 36.06 137.34 35.7 137.31 35.61C137.31 35.52 137.4 35.49 137.58 35.52C140.06 36.03 145.57 36.28 154.11 36.28C154.18 36.28 154.56 36.28 155.23 36.28C155.42 36.09 155.52 35.99 155.54 35.97C155.96 35.55 155.92 34.1 155.41 31.62C155.35 31.35 155.33 31.19 155.36 31.13C155.39 31.01 156.01 31.03 157.2 31.18C158.96 31.42 159.96 31.42 160.18 31.18C160.41 30.94 160.58 29.76 160.7 27.64C161.02 21.1 160.89 15.82 160.29 11.82C160.17 11.2 160.16 10.85 160.25 10.79C160.31 10.73 161.22 10.82 162.98 11.06C164.74 11.3 165.65 11.45 165.71 11.51C165.95 11.75 165.77 12.05 165.18 12.41C164.58 12.76 164.28 13.36 164.28 14.2C164.28 14.94 164.44 15.39 164.75 15.52C165.06 15.65 166.12 15.72 167.91 15.72C169.61 15.72 170.63 15.66 170.98 15.54C171.32 15.42 171.84 14.94 172.52 14.11C172.94 13.57 173.2 13.31 173.31 13.32C173.41 13.34 173.81 13.63 174.5 14.2C174.67 14.35 174.9 14.53 175.17 14.73C176.12 15.54 176.67 16.04 176.8 16.24C176.94 16.43 176.87 16.65 176.6 16.88C176.57 16.91 176.54 16.95 176.51 16.97C175.94 16.98 171.35 17.02 170.78 17.02C170.45 17.02 169.97 17.02 169.34 17.02C166.6 17.05 165.04 17.15 164.68 17.33C164.38 17.48 164.25 17.93 164.28 18.68C164.28 18.86 164.28 19.01 164.28 19.12C164.28 20.14 164.42 20.73 164.71 20.89C164.99 21.06 166 21.14 167.73 21.14C167.99 21.14 170.07 21.1 170.33 21.1C170.87 20.71 171.33 20.26 171.72 19.75C171.99 19.39 172.19 19.17 172.32 19.08C172.46 18.99 172.58 18.96 172.68 18.99C172.79 19.02 172.96 19.14 173.2 19.35C174.12 20.12 174.63 20.56 174.72 20.65C175.65 21.45 175.94 21.95 175.62 22.13C175.32 22.31 173.52 22.41 170.24 22.44C169.94 22.44 169.54 22.44 169.03 22.44C166.46 22.47 165.01 22.59 164.68 22.8C164.41 22.95 164.28 23.44 164.28 24.28C164.28 24.46 164.28 24.6 164.28 24.72C164.28 25.89 164.44 26.56 164.75 26.74C165.06 26.92 166.24 27.01 168.27 27.01C170.15 27.01 171.27 26.95 171.63 26.83C171.99 26.71 172.49 26.23 173.15 25.4C173.51 24.89 173.78 24.6 173.96 24.54C174.11 24.54 174.67 24.96 175.66 25.8C176.76 26.73 177.39 27.28 177.54 27.48C177.69 27.67 177.63 27.88 177.36 28.08C177.15 28.23 175.04 28.31 171.02 28.31C167 28.31 164.92 28.38 164.77 28.53C164.44 28.83 164.29 29.55 164.33 30.68C164.33 30.82 164.37 31.89 164.37 32.03C163.89 32.51 163.27 32.84 162.49 33.03C161.71 33.23 161.11 33.18 160.7 32.88C160.34 32.61 160.04 32.61 159.8 32.88C159.56 33.15 159.44 33.64 159.44 34.36C159.44 34.42 159.44 34.52 159.44 34.67C159.44 35.39 159.65 35.81 160.07 35.92C160.49 36.04 161.97 36.1 164.51 36.1C165.04 36.1 165.46 36.1 165.76 36.1C166.31 36.1 170.68 36.06 171.23 36.06C171.67 35.79 172.21 35.25 172.84 34.45C173.2 33.97 173.45 33.68 173.6 33.57C173.75 33.47 173.88 33.43 173.98 33.46C174.09 33.49 174.3 33.63 174.63 33.86C175.41 34.49 176.01 34.99 176.44 35.37C176.88 35.74 177.21 36.05 177.43 36.28C177.65 36.52 177.77 36.7 177.77 36.82C177.77 36.94 177.72 37.05 177.63 37.13C177.62 37.15 177.54 37.22 177.41 37.36C175.07 37.39 173.77 37.4 173.51 37.4C173.39 37.4 173.26 37.4 173.11 37.4C170.87 37.43 169.58 37.54 169.25 37.72C169.01 37.84 168.66 38.28 168.18 39.06C166.77 41.27 165.3 43 163.74 44.26C162.67 45.18 162.22 45.81 162.4 46.14C162.58 46.47 163.58 46.86 165.4 47.3C168.98 48.2 172.87 48.81 177.05 49.14C177.41 49.17 177.69 49.2 177.9 49.23C178.71 49.38 178.71 49.63 177.9 49.99C177.06 50.35 176.39 51.05 175.88 52.1C175.64 52.64 175.51 52.93 175.48 52.99C175.42 53.11 174.79 53.08 173.6 52.91C168.25 51.95 163.7 50.62 159.93 48.92C159.04 48.53 158.43 48.33 158.12 48.31ZM143.13 34.06C143.22 33.99 143.34 33.91 143.49 33.84C143.64 33.76 143.88 33.64 144.21 33.46C145.67 32.71 146.94 31.85 148.02 30.86C149.09 29.87 149.7 29.04 149.85 28.35C149.88 28.2 149.88 28.1 149.85 28.04C149.76 27.68 148.81 27.78 146.99 28.35C146.66 28.44 146.05 28.61 145.17 28.87C144.29 29.12 143.69 29.29 143.36 29.38C141.86 29.8 140.89 30.23 140.45 30.68C140.18 30.95 139.98 31.02 139.86 30.9C139.74 30.79 139.37 30.16 138.74 29.02C138.2 28.01 137.96 27.44 138 27.32C138.05 27.2 138.53 27.11 139.46 27.05C142.89 26.81 145.78 26.57 148.11 26.33C149.54 26.19 150.43 26.04 150.77 25.89C151.12 25.74 151.36 25.33 151.51 24.68C151.84 23.48 151.64 22.77 150.93 22.53C150.69 22.47 149.33 22.45 146.85 22.48C144.37 22.51 142.77 22.57 142.06 22.66C141.46 22.72 141.09 22.71 140.96 22.64C140.83 22.57 140.59 22.21 140.27 21.59C140.06 21.2 139.92 20.93 139.86 20.78C139.8 20.57 139.89 20.5 140.13 20.56C140.16 20.56 140.25 20.57 140.4 20.6C140.55 20.63 140.76 20.66 141.03 20.69C141.3 20.72 141.53 20.75 141.74 20.78C143.51 21.02 145.48 21.15 147.68 21.18C149.88 21.21 151.11 21.12 151.38 20.91C151.8 20.64 151.98 20 151.94 18.99C151.89 17.97 151.66 17.36 151.24 17.15C150.97 17 149.37 16.95 146.43 16.99C143.49 17.04 141.54 17.14 140.58 17.28C140.4 17.31 140.19 17.33 139.95 17.33C139.86 17.3 139.65 16.98 139.3 16.37C138.96 15.75 138.79 15.39 138.79 15.27C138.79 15.18 139.1 15.16 139.73 15.22C141.13 15.46 143.34 15.65 146.34 15.78C149.34 15.92 150.99 15.91 151.29 15.76C151.92 15.46 151.9 13.87 151.24 10.97C151.24 10.94 151.24 10.91 151.24 10.88C151.24 10.79 152.21 10.86 154.16 11.1C155.68 11.31 156.51 11.48 156.66 11.6C156.81 11.71 156.54 12.03 155.86 12.54C155.65 12.68 155.52 12.99 155.48 13.45C155.43 13.92 155.41 15.1 155.41 17.02C155.41 21.05 155.13 23.97 154.58 25.77C154.03 27.58 152.93 29.17 151.29 30.55C150.24 31.44 148.69 32.38 146.63 33.35C144.57 34.32 143.4 34.67 143.13 34.4C143.07 34.34 143.04 34.29 143.02 34.24C143.01 34.2 143.04 34.14 143.13 34.06ZM163.7 37.67C163.68 37.65 163.61 37.58 163.47 37.44C159.39 37.42 157.12 37.4 156.66 37.4C152.99 37.4 150.85 37.42 150.23 37.47C149.62 37.51 149.28 37.65 149.23 37.89C149.11 38.4 149.76 39.27 151.2 40.51C152.63 41.75 154.24 42.85 156.03 43.81C156.9 44.22 157.48 44.47 157.78 44.55C158.08 44.62 158.41 44.57 158.77 44.39C159.84 43.88 161.04 42.73 162.35 40.94C163.67 39.15 164.12 38.06 163.7 37.67Z" id="aayhztjQR"></path><path d="M211.2 22.62C213.32 22.62 214.61 22.56 215.06 22.44C215.51 22.32 216.01 21.88 216.58 21.14C216.76 20.9 216.89 20.72 216.98 20.6C217.01 20.54 217.09 20.45 217.21 20.33C217.6 19.82 217.92 19.61 218.19 19.7C218.43 19.76 219.37 20.5 221.02 21.9C221.52 22.32 221.9 22.65 222.14 22.88C222.52 23.18 222.54 23.44 222.18 23.65C222 23.8 219.28 23.88 214.03 23.92C211.13 23.92 209.44 23.93 208.96 23.96C206.72 23.99 205.54 24.18 205.42 24.54C205.36 24.69 205.59 25.23 206.1 26.15C207.98 29.74 210.45 33.09 213.51 36.21C216.57 39.33 219.64 41.64 222.72 43.14C223.49 43.52 223.51 43.82 222.76 44.03C222.31 44.18 221.84 44.48 221.33 44.93C220.82 45.37 220.45 45.85 220.21 46.36C220.03 46.78 219.83 46.96 219.63 46.9C219.42 46.84 218.82 46.41 217.83 45.6C212.82 41.57 208.87 36.07 206.01 29.11C205.65 28.28 205.36 27.68 205.15 27.32C204.8 26.66 204.53 26.65 204.35 27.28C204.23 27.6 204.18 30.6 204.19 36.26C204.21 41.92 204.27 45.79 204.39 47.88C204.39 48.39 204.41 48.92 204.44 49.47C204.47 50.03 204.49 50.46 204.5 50.77C204.52 51.09 204.53 51.26 204.53 51.29C204.53 51.62 204.09 52.03 203.23 52.52C202.36 53.01 201.72 53.23 201.3 53.17C201.27 53.17 201.17 53.14 200.99 53.08C200.57 52.96 200.32 52.75 200.25 52.45C200.17 52.15 200.18 51.35 200.27 50.03C200.48 46.63 200.58 42.22 200.58 36.82C200.58 36.19 200.54 31.21 200.54 30.59C200.21 30.32 199.96 30.25 199.8 30.39C199.64 30.52 199.15 31.19 198.34 32.38C194.31 38.44 189.4 43.33 183.6 47.03C182.71 47.6 182.11 47.87 181.81 47.84C181.42 47.78 181.78 47.3 182.89 46.4C185.25 44.46 187.6 41.96 189.94 38.9C192.29 35.84 194.31 32.63 196.01 29.29C196.97 27.38 197.54 26.08 197.72 25.39C197.9 24.71 197.81 24.26 197.45 24.05C197.27 23.9 195.24 23.85 191.38 23.89C187.51 23.94 185.08 24.03 184.1 24.18C183.74 24.24 183.51 24.23 183.4 24.14C183.3 24.05 183.11 23.71 182.84 23.11C182.57 22.54 182.44 22.21 182.44 22.12C182.44 22.03 182.62 22.02 182.98 22.08C184.8 22.44 188.95 22.66 195.43 22.75C197.7 22.78 199.05 22.77 199.49 22.73C199.92 22.68 200.23 22.53 200.41 22.26C200.61 21.9 200.67 20.32 200.56 17.53C200.46 14.74 200.25 12.67 199.96 11.33C199.9 11.09 199.88 10.94 199.91 10.88C200 10.79 200.97 10.86 202.82 11.1C204.65 11.37 205.59 11.51 205.65 11.51C205.68 11.54 205.69 11.57 205.69 11.6C205.66 11.89 205.35 12.25 204.75 12.67C204.48 12.85 204.33 13.13 204.28 13.52C204.24 13.91 204.2 15.19 204.17 17.38C204.17 19.91 204.19 21.34 204.24 21.65C204.28 21.97 204.54 22.29 205.02 22.62C205.35 22.62 206.99 22.62 209.95 22.62C210.43 22.62 210.85 22.62 211.2 22.62Z" id="bG3Cikwq"></path><path d="M226.63 19.19C226.69 19.12 227.07 19.14 227.75 19.26C229.55 19.53 231.97 19.67 235.01 19.7C237.37 19.76 238.75 19.74 239.16 19.64C239.56 19.53 240.09 19.03 240.75 18.14C241.11 17.63 241.34 17.34 241.44 17.26C241.55 17.19 241.72 17.26 241.96 17.46C243.51 18.78 244.35 19.5 244.47 19.61C245.06 20.21 245.08 20.59 244.51 20.73C244.06 20.88 241.61 20.97 237.16 21C232.09 21 229.04 21.09 228.02 21.27C227.84 21.3 227.71 21.27 227.62 21.18C227.53 21.09 227.31 20.75 226.95 20.15C226.68 19.59 226.57 19.26 226.63 19.19ZM231.88 52.1C231.43 52.45 230.89 52.69 230.26 52.81C229.64 52.93 229.2 52.89 228.96 52.68C228.81 52.53 228.72 52.3 228.69 51.98C228.66 51.67 228.69 50.95 228.78 49.81C228.87 48.8 228.93 47.3 228.94 45.33C228.96 43.36 228.93 41.96 228.87 41.12C228.72 38.58 228.53 36.89 228.29 36.06C228.26 36.03 228.26 36 228.29 35.97C228.29 35.79 228.95 35.98 230.26 36.55C230.38 36.61 230.58 36.69 230.85 36.8C231.11 36.9 231.29 36.97 231.36 37C231.44 37.03 231.57 37.08 231.76 37.15C231.96 37.23 232.09 37.27 232.17 37.27C232.24 37.27 232.35 37.29 232.5 37.33C232.65 37.38 232.79 37.4 232.91 37.4C233.02 37.4 233.16 37.42 233.31 37.44C233.46 37.47 233.64 37.49 233.85 37.49C234.05 37.49 234.26 37.49 234.47 37.49C234.68 37.49 234.95 37.49 235.28 37.49C236.83 37.49 237.76 37.45 238.06 37.38C238.36 37.3 238.77 37 239.31 36.46C239.79 35.95 240.11 35.71 240.28 35.72C240.44 35.74 240.98 36.12 241.91 36.86C243.08 37.79 243.67 38.33 243.7 38.48C243.7 38.6 243.49 38.75 243.08 38.92C242.57 39.13 242.27 39.53 242.18 40.11C242.09 40.69 242.09 42.12 242.18 44.39C242.18 44.75 242.19 45.38 242.22 46.29C242.25 47.2 242.28 47.84 242.31 48.2C242.32 48.39 242.39 49.89 242.4 50.08C241.54 50.71 240.84 51.08 240.3 51.2C239.7 51.35 239.31 51.36 239.11 51.22C238.92 51.09 238.82 50.75 238.82 50.21C238.82 49.5 238.67 49.08 238.37 48.96C238.07 48.84 237.1 48.78 235.46 48.78C235.21 48.78 233.2 48.78 232.95 48.78C232.62 49.02 232.41 49.25 232.32 49.47C232.23 49.7 232.19 50.17 232.19 50.88C232.19 50.95 232.21 51.26 232.23 51.83C232.02 51.99 231.9 52.08 231.88 52.1ZM229.5 25.04C232.4 25.48 234.47 25.66 235.73 25.55C236.98 25.45 237.91 25.01 238.51 24.23C238.95 23.69 239.25 23.4 239.4 23.36C239.55 23.31 239.82 23.47 240.21 23.83C241.25 24.75 241.82 25.25 241.91 25.31C242.63 25.99 242.79 26.43 242.4 26.61C242.11 26.76 240.28 26.84 236.94 26.87C233.21 26.9 230.88 26.99 229.95 27.14C229.77 27.17 229.62 27.12 229.5 26.96C229.05 26.43 228.78 25.99 228.69 25.66C228.54 25.13 228.81 24.92 229.5 25.04ZM229.5 30.9C231.05 31.14 232.65 31.29 234.29 31.35C235.94 31.41 236.91 31.37 237.21 31.22C237.65 31.01 238.18 30.5 238.77 29.7C239.07 29.28 239.3 29.09 239.45 29.13C239.6 29.18 240.06 29.56 240.84 30.28C240.93 30.37 241.07 30.5 241.28 30.68C241.37 30.77 241.45 30.84 241.51 30.9C242.37 31.68 242.73 32.16 242.58 32.34C242.37 32.58 240.81 32.71 237.88 32.74C237.88 32.74 237.86 32.74 237.83 32.74L237.79 32.74L237.74 32.74L237.7 32.74L237.65 32.74L237.61 32.74L237.52 32.74L237.48 32.74L237.43 32.74L237.39 32.74L237.34 32.74L237.3 32.74L237.25 32.74L237.21 32.74L237.16 32.74L237.12 32.74L237.07 32.74L237.03 32.74L236.98 32.74L236.94 32.74C236.91 32.74 236.89 32.74 236.89 32.74C233.19 32.77 230.87 32.86 229.95 33.01C229.77 33.04 229.62 32.98 229.5 32.83C229.05 32.29 228.78 31.86 228.69 31.53C228.54 30.99 228.81 30.79 229.5 30.9ZM229.68 13.39C230.96 13.6 232.44 13.75 234.09 13.83C235.75 13.92 236.74 13.91 237.07 13.79C237.52 13.67 238.07 13.13 238.73 12.18C239.09 11.67 239.31 11.4 239.4 11.37C239.49 11.34 239.82 11.6 240.39 12.13C241.46 13.06 242.01 13.54 242.04 13.57C242.85 14.28 243.07 14.73 242.72 14.91C242.39 15.09 240.53 15.19 237.16 15.22C233.4 15.25 231.05 15.34 230.13 15.49C229.95 15.52 229.8 15.46 229.68 15.31C229.23 14.78 228.96 14.34 228.87 14.01C228.72 13.48 228.99 13.27 229.68 13.39ZM238.91 43.09C238.91 42.88 238.91 42.58 238.91 42.2C238.91 40.4 238.8 39.37 238.57 39.08C238.35 38.8 237.55 38.66 236.18 38.66C235.91 38.66 235.7 38.66 235.55 38.66C235.4 38.66 235.19 38.66 234.92 38.66C233.55 38.66 232.75 38.8 232.53 39.08C232.3 39.37 232.19 40.4 232.19 42.2C232.19 42.58 232.19 42.88 232.19 43.09C232.19 43.3 232.19 43.6 232.19 43.99C232.19 44.08 232.19 44.14 232.19 44.17C232.19 45.87 232.31 46.86 232.55 47.12C232.79 47.36 233.55 47.48 234.83 47.48C235.13 47.48 235.37 47.48 235.55 47.48C237.16 47.48 238.06 47.42 238.24 47.3C238.57 47.15 238.76 46.88 238.82 46.5C238.88 46.11 238.91 44.97 238.91 43.09ZM249.08 19.5C250.9 16.56 252.14 13.97 252.8 11.73C252.92 11.37 253.01 11.19 253.07 11.19C253.13 11.16 253.94 11.33 255.51 11.71C257.08 12.08 257.89 12.3 257.95 12.36C258.1 12.51 257.95 12.67 257.5 12.85C257.26 12.97 257.11 13.13 257.05 13.34C256.99 13.58 256.99 13.78 257.03 13.92C257.08 14.07 257.26 14.4 257.59 14.91C258.64 16.55 260.03 18.17 261.78 19.75C263.53 21.33 265.39 22.68 267.36 23.78C267.84 24.05 268.15 24.25 268.3 24.38C268.45 24.52 268.49 24.65 268.43 24.77C268.37 24.89 268.19 25.03 267.9 25.21C267.06 25.72 266.45 26.39 266.06 27.23C265.94 27.53 265.85 27.69 265.79 27.72C265.7 27.81 265.34 27.57 264.71 27.01C261.37 24.05 258.83 20.57 257.1 16.57C256.71 15.67 256.52 15.19 256.52 15.13C256.52 15.01 256.43 14.9 256.25 14.8C256.07 14.69 255.92 14.66 255.8 14.69C255.56 14.75 255.22 15.15 254.77 15.9C251.96 20.79 248.15 24.89 243.34 28.17C242.6 28.65 242.16 28.83 242.04 28.71C241.95 28.59 242.33 28.08 243.16 27.19C245.28 25.01 247.26 22.45 249.08 19.5ZM245.41 51.6C252.75 48.71 258.46 44.33 262.52 38.48C262.97 37.82 263.24 37.49 263.33 37.49C263.44 37.49 264.18 37.89 265.54 38.7C266.9 39.51 267.6 39.94 267.63 40C267.63 40.12 267.52 40.22 267.31 40.29C267.1 40.37 266.9 40.39 266.69 40.36C266.48 40.33 266.22 40.44 265.9 40.69C265.59 40.95 264.94 41.58 263.95 42.6C258.88 47.7 252.44 51.14 244.64 52.9C244.2 52.99 243.93 53.04 243.84 53.04C243.66 53.07 243.54 53.01 243.48 52.86C243.42 52.65 243.47 52.48 243.64 52.36C243.8 52.25 244.39 51.99 245.41 51.6ZM246.26 41.79C250.92 39.1 254.86 35.74 258.08 31.71C258.68 30.94 259.03 30.49 259.14 30.39C259.24 30.29 259.32 30.25 259.38 30.28C259.53 30.34 260.2 30.73 261.38 31.47C262.56 32.2 263.16 32.59 263.19 32.65C263.22 32.68 263.24 32.71 263.24 32.74C263.21 32.95 262.97 33.06 262.52 33.06C262.04 33.06 261.35 33.48 260.46 34.31C258.28 36.34 255.83 38.12 253.11 39.64C251.88 40.36 250.38 41.11 248.61 41.91C246.83 42.7 245.87 43.03 245.72 42.91C245.51 42.85 245.41 42.66 245.41 42.33C245.41 42.27 245.69 42.09 246.26 41.79ZM255.31 24.32C255.78 23.72 256.07 23.42 256.16 23.42C256.25 23.42 256.9 23.8 258.11 24.57C259.32 25.33 259.94 25.74 259.97 25.8C260 25.92 259.94 26.01 259.81 26.09C259.67 26.16 259.5 26.2 259.29 26.2C258.82 26.2 258.07 26.62 257.05 27.45C255.08 29.1 252.78 30.65 250.16 32.11C247.53 33.58 246.05 34.14 245.72 33.82C245.48 33.58 245.81 33.16 246.7 32.56C249.99 30.32 252.86 27.57 255.31 24.32Z" id="a17cTl6w0f"></path><path d="M274.34 42.46C274.71 39.03 274.9 33.19 274.9 24.95C274.9 20.41 274.9 18.12 274.9 18.09C274.93 16.12 275.08 15.11 275.35 15.05C275.44 15.08 276.2 15.33 276.29 15.36C277.37 15.69 278.45 15.65 279.54 15.25C280.63 14.84 282.58 13.76 285.39 12C286.37 11.37 286.89 11.09 286.95 11.15C287.13 11.24 287.78 11.77 288.9 12.76C290.02 13.75 290.58 14.27 290.58 14.33C290.58 14.57 290.24 14.66 289.55 14.6C288.75 14.51 287.79 14.61 286.68 14.91C283.85 15.69 281.74 16.22 280.37 16.52C279.29 16.76 278.67 17.01 278.51 17.26C278.34 17.52 278.26 18.37 278.26 19.84C278.26 19.96 278.26 20.14 278.26 20.37C278.26 21.63 278.4 22.36 278.69 22.57C278.97 22.78 279.97 22.88 281.67 22.88C281.94 22.88 282.15 22.88 282.29 22.88C284.21 22.88 285.34 22.84 285.7 22.75C286 22.66 286.43 22.32 287 21.72C287.09 21.63 287.85 20.95 287.94 20.87C288.15 20.99 288.79 21.48 289.87 22.35C290.94 23.21 291.54 23.7 291.66 23.82C291.69 23.88 291.64 23.97 291.52 24.09C291.4 24.21 291.19 24.35 290.9 24.5C290.39 24.77 290.1 25.41 290.02 26.45C289.95 27.48 290 29.99 290.18 33.99C290.27 36.09 290.28 37.25 290.22 37.49C290.16 37.64 289.91 37.82 289.46 38.03C287.46 39.04 286.46 38.89 286.46 37.58C286.46 36.83 286.29 36.4 285.94 36.28C285.6 36.16 284.4 36.1 282.34 36.1C282.16 36.1 281.89 36.1 281.53 36.1C279.8 36.1 278.78 36.19 278.49 36.37C278.22 36.55 278.02 37.13 277.9 38.12C277.87 38.3 277.86 38.44 277.86 38.56C277.17 44.15 275.56 48.66 273.02 52.09C272.81 52.39 272.63 52.62 272.48 52.79C272.33 52.95 272.21 53.06 272.1 53.12C272 53.18 271.91 53.2 271.83 53.17C271.76 53.14 271.69 53.06 271.63 52.94C271.54 52.86 271.65 52.47 271.95 51.78C273.17 49 273.97 45.9 274.34 42.46ZM286.55 29.56C286.55 27.23 286.55 26.04 286.55 25.98C286.49 25.02 286.21 24.45 285.7 24.27C285.49 24.21 284.38 24.18 282.38 24.18C282.11 24.18 281.74 24.18 281.26 24.18C279.71 24.16 278.81 24.31 278.55 24.66C278.3 25 278.19 26.2 278.22 28.26C278.22 28.89 278.22 29.38 278.22 29.74C278.25 31.77 278.26 32.83 278.26 32.92C278.29 33.94 278.55 34.53 279.02 34.71C279.23 34.77 280.26 34.83 282.12 34.89C282.44 34.9 285.02 34.97 285.34 34.98C285.49 34.98 285.68 34.92 285.92 34.8C286.25 34.65 286.44 34.37 286.48 33.95C286.53 33.53 286.55 32.07 286.55 29.56ZM302.86 26.29C305.07 26.29 306.35 26.19 306.71 25.98C306.92 25.86 307.34 25.39 307.97 24.59C308.2 24.23 308.38 23.98 308.48 23.85C308.58 23.71 308.71 23.64 308.84 23.62C308.97 23.61 309.08 23.62 309.15 23.67C309.23 23.71 309.38 23.84 309.62 24.05C309.83 24.23 310.01 24.38 310.16 24.5C311.86 25.93 312.7 26.8 312.67 27.1C312.61 27.4 311.74 27.56 310.07 27.59C308.88 27.62 308.14 27.66 307.85 27.72C307.57 27.79 307.37 27.96 307.25 28.26C307.16 28.44 307.11 31.05 307.11 36.08C307.11 41.11 307.14 44.47 307.2 46.14C307.2 46.5 307.22 47.14 307.25 48.06C307.28 48.99 307.31 49.63 307.34 49.99C307.35 50.18 307.42 51.72 307.43 51.92C306.95 52.31 306.37 52.64 305.68 52.93C304.99 53.21 304.41 53.29 303.93 53.17C303.49 53.08 303.23 52.88 303.17 52.57C303.11 52.25 303.13 51.41 303.22 50.04C303.42 46.51 303.53 41.88 303.53 36.15C303.53 32.09 303.51 29.85 303.48 29.43C303.39 28.35 303.1 27.76 302.59 27.64C302.5 27.61 301.69 27.59 300.17 27.59C298.56 27.62 297.64 27.73 297.41 27.93C297.19 28.12 297.03 28.92 296.94 30.32C296.64 35.31 295.73 39.56 294.19 43.07C292.65 46.58 290.4 49.57 287.45 52.05C286.94 52.44 286.63 52.66 286.53 52.72C286.42 52.78 286.3 52.75 286.15 52.63C285.97 52.45 286.15 52.02 286.68 51.33C290.06 47.12 292.19 41.93 293.09 35.74C293.48 32.97 293.66 29.11 293.63 24.18C293.6 19.26 293.37 16 292.96 14.42C292.96 14.36 292.96 14.31 292.96 14.28C292.96 14.13 293.67 14.28 295.11 14.73C296.39 15.12 297.24 15.32 297.66 15.33C298.08 15.35 298.72 15.18 299.59 14.82C302.66 13.54 305.05 12.35 306.75 11.28C306.96 11.13 307.11 11.06 307.2 11.06C307.29 11.06 308 11.66 309.33 12.87C310.66 14.08 311.32 14.71 311.32 14.77C311.32 15.01 310.99 15.1 310.34 15.04C309.47 14.95 308.91 14.92 308.66 14.95C308.4 14.98 307.67 15.13 306.44 15.4C302.68 16.18 300.2 16.66 299 16.83C297.99 16.98 297.41 17.22 297.28 17.55C297.14 17.88 297.06 19.18 297.03 21.45C297.03 23.75 297.05 25.05 297.1 25.35C297.14 25.65 297.4 25.96 297.88 26.29C298.15 26.29 299.51 26.29 301.96 26.29C302.32 26.29 302.62 26.29 302.86 26.29Z" id="a66ZTS5t2"></path></defs><g><g><g><g><g><use xlink:href="#a21rsLh2tn" opacity="1" fill="#1a5544" fill-opacity="1"></use><g><use xlink:href="#a21rsLh2tn" opacity="1" fill-opacity="0" stroke="#000000" stroke-width="1" stroke-opacity="0"></use></g></g><g><use xlink:href="#bkgpoQsui" opacity="1" fill="#000000" fill-opacity="0"></use><g><use xlink:href="#bkgpoQsui" opacity="1" fill-opacity="0" stroke="#000000" stroke-width="1" stroke-opacity="0"></use></g></g><g><use xlink:href="#d5zuFbbyLz" opacity="1" fill="#304f31" fill-opacity="1"></use><g><use xlink:href="#d5zuFbbyLz" opacity="1" fill-opacity="0" stroke="#000000" stroke-width="1" stroke-opacity="0"></use></g></g><g><use xlink:href="#jfbfrpnjk" opacity="1" fill="#000000" fill-opacity="0"></use><g><use xlink:href="#jfbfrpnjk" opacity="1" fill-opacity="0" stroke="#000000" stroke-width="1" stroke-opacity="0"></use></g></g><g><use xlink:href="#boq7B5R5s" opacity="1" fill="#4e6326" fill-opacity="1"></use><g><use xlink:href="#boq7B5R5s" opacity="1" fill-opacity="0" stroke="#000000" stroke-width="1" stroke-opacity="0"></use></g></g><g><use xlink:href="#aX9x3Rtn" opacity="1" fill="#000000" fill-opacity="0"></use><g><use xlink:href="#aX9x3Rtn" opacity="1" fill-opacity="0" stroke="#000000" stroke-width="1" stroke-opacity="0"></use></g></g><g><use xlink:href="#bR9UXuULi" opacity="1" fill="#5d7233" fill-opacity="1"></use><g><use xlink:href="#bR9UXuULi" opacity="1" fill-opacity="0" stroke="#000000" stroke-width="1" stroke-opacity="0"></use></g></g><g><use xlink:href="#bojcqGwcq" opacity="1" fill="#000000" fill-opacity="0"></use><g><use xlink:href="#bojcqGwcq" opacity="1" fill-opacity="0" stroke="#000000" stroke-width="1" stroke-opacity="0"></use></g></g><g><use xlink:href="#cwwleUCGW" opacity="1" fill="#304f31" fill-opacity="1"></use><g><use xlink:href="#cwwleUCGW" opacity="1" fill-opacity="0" stroke="#000000" stroke-width="1" stroke-opacity="0"></use></g></g><g><use xlink:href="#b1l778nVME" opacity="1" fill="#000000" fill-opacity="0"></use><g><use xlink:href="#b1l778nVME" opacity="1" fill-opacity="0" stroke="#000000" stroke-width="1" stroke-opacity="0"></use></g></g><g><use xlink:href="#aasLVSYDG" opacity="1" fill="#1a5544" fill-opacity="1"></use><g><use xlink:href="#aasLVSYDG" opacity="1" fill-opacity="0" stroke="#000000" stroke-width="1" stroke-opacity="0"></use></g></g><g><use xlink:href="#c3EKgmXo0P" opacity="1" fill="#000000" fill-opacity="0"></use><g><use xlink:href="#c3EKgmXo0P" opacity="1" fill-opacity="0" stroke="#000000" stroke-width="1" stroke-opacity="0"></use></g></g><g><use xlink:href="#cDLFzHXSI" opacity="1" fill="#7e8246" fill-opacity="1"></use><g><use xlink:href="#cDLFzHXSI" opacity="1" fill-opacity="0" stroke="#000000" stroke-width="1" stroke-opacity="0"></use></g></g><g><use xlink:href="#b6ecCRsXpp" opacity="1" fill="#000000" fill-opacity="0"></use><g><use xlink:href="#b6ecCRsXpp" opacity="1" fill-opacity="0" stroke="#000000" stroke-width="1" stroke-opacity="0"></use></g></g><g><use xlink:href="#a1Ql7OVKLJ" opacity="1" fill="#4e6326" fill-opacity="1"></use><g><use xlink:href="#a1Ql7OVKLJ" opacity="1" fill-opacity="0" stroke="#000000" stroke-width="1" stroke-opacity="0"></use></g></g><g><use xlink:href="#a1rHMQtuNd" opacity="1" fill="#000000" fill-opacity="0"></use><g><use xlink:href="#a1rHMQtuNd" opacity="1" fill-opacity="0" stroke="#000000" stroke-width="1" stroke-opacity="0"></use></g></g><g><use xlink:href="#ab0cxNrlny" opacity="1" fill="#2d1915" fill-opacity="1"></use><g><use xlink:href="#ab0cxNrlny" opacity="1" fill-opacity="0" stroke="#000000" stroke-width="1" stroke-opacity="0"></use></g></g><g><use xlink:href="#f14jKgI44Y" opacity="1" fill="#000000" fill-opacity="0"></use><g><use xlink:href="#f14jKgI44Y" opacity="1" fill-opacity="0" stroke="#000000" stroke-width="1" stroke-opacity="0"></use></g></g><g><use xlink:href="#a1KujAxCra" opacity="1" fill="#ffffff" fill-opacity="1"></use><g><use xlink:href="#a1KujAxCra" opacity="1" fill-opacity="0" stroke="#000000" stroke-width="1" stroke-opacity="0"></use></g></g><g><use xlink:href="#b32Gv7Jade" opacity="1" fill="#000000" fill-opacity="0"></use><g><use xlink:href="#b32Gv7Jade" opacity="1" fill-opacity="0" stroke="#000000" stroke-width="1" stroke-opacity="0"></use></g></g></g><g><g><use xlink:href="#a4w2ytBAR3" opacity="1" fill="#2d1915" fill-opacity="1"></use><g><use xlink:href="#a4w2ytBAR3" opacity="1" fill-opacity="0" stroke="#000000" stroke-width="1" stroke-opacity="0"></use></g></g><g><use xlink:href="#aayhztjQR" opacity="1" fill="#2d1915" fill-opacity="1"></use><g><use xlink:href="#aayhztjQR" opacity="1" fill-opacity="0" stroke="#000000" stroke-width="1" stroke-opacity="0"></use></g></g><g><use xlink:href="#bG3Cikwq" opacity="1" fill="#2d1915" fill-opacity="1"></use><g><use xlink:href="#bG3Cikwq" opacity="1" fill-opacity="0" stroke="#000000" stroke-width="1" stroke-opacity="0"></use></g></g><g><use xlink:href="#a17cTl6w0f" opacity="1" fill="#2d1915" fill-opacity="1"></use><g><use xlink:href="#a17cTl6w0f" opacity="1" fill-opacity="0" stroke="#000000" stroke-width="1" stroke-opacity="0"></use></g></g><g><use xlink:href="#a66ZTS5t2" opacity="1" fill="#2d1915" fill-opacity="1"></use><g><use xlink:href="#a66ZTS5t2" opacity="1" fill-opacity="0" stroke="#000000" stroke-width="1" stroke-opacity="0"></use></g></g></g></g></g></g></svg>