<?xml version="1.0" encoding="iso-8859-1"?>
<!-- Generator: Adobe Illustrator 16.0.3, SVG Export Plug-In . SVG Version: 6.00 Build 0)  -->
<!DOCTYPE svg PUBLIC "-//W3C//DTD SVG 1.1//EN" "http://www.w3.org/Graphics/SVG/1.1/DTD/svg11.dtd">
<svg version="1.1" xmlns="http://www.w3.org/2000/svg" xmlns:xlink="http://www.w3.org/1999/xlink" x="0px" y="0px" width="344px"
	 height="364px" viewBox="0 0 344 364" style="enable-background:new 0 0 344 364;" xml:space="preserve">
<g id="&#x5716;&#x5C64;_5">
	<circle style="fill:#1A5544;" cx="153.206" cy="187.726" r="27.519"/>
	<path style="fill:#304F31;" d="M286.254,160.206c0,23.449-19.01,42.459-42.46,42.459c-23.447,0-42.461-19.01-42.461-42.459
		c0-23.447,19.014-42.457,42.461-42.457C267.244,117.749,286.254,136.758,286.254,160.206z"/>
	<path style="fill:#4E6326;" d="M240.722,179.497c0,20.125-16.314,36.444-36.441,36.444c-20.129,0-36.444-16.319-36.444-36.444
		c0-20.124,16.315-36.442,36.444-36.442C224.407,143.055,240.722,159.373,240.722,179.497z"/>
	<path style="fill:#5D7233;" d="M257.071,102.354c0,26.203-21.243,47.44-47.446,47.44c-26.197,0-47.439-21.237-47.439-47.44
		c0-26.201,21.242-47.442,47.439-47.442C235.828,54.912,257.071,76.153,257.071,102.354z"/>
	<path style="fill:#304F31;" d="M192.842,79.291c0,21.184-17.171,38.355-38.356,38.355c-21.181,0-38.353-17.171-38.353-38.355
		c0-21.181,17.172-38.352,38.353-38.352C175.671,40.939,192.842,58.11,192.842,79.291z"/>
	<circle style="fill:#1A5544;" cx="110.217" cy="107.843" r="21.27"/>
	<path style="fill:#7E8246;" d="M110.779,141.583c0-22.373,18.14-40.515,40.518-40.515c22.373,0,40.513,18.143,40.513,40.515
		c0,22.377-18.14,40.515-40.513,40.515C128.919,182.098,110.779,163.96,110.779,141.583z"/>
	<circle style="fill:#4E6326;" cx="102.86" cy="165.781" r="43.193"/>
</g>
<g id="&#x5716;&#x5C64;_2_&#x62F7;&#x8C9D;_2">
	<g>
		<path style="fill:#2D1915;" d="M81.501,293.921c-0.553-0.509-1.307-0.882-2.262-1.12c-0.598-0.119-0.896-0.254-0.896-0.403
			c0.029-0.119,1.045-0.18,3.046-0.18c0.119,0,0.298,0.016,0.538,0.045c0.06,0,0.104,0,0.134,0c0.776,0.03,1.254-0.118,1.434-0.447
			c0.209-0.389,0.314-2.15,0.314-5.287c0-0.776,0-1.373,0-1.792c0-4.122-0.045-6.376-0.135-6.765
			c-0.06-0.239-0.224-0.418-0.493-0.538c-0.299-0.148-2.517-0.208-6.653-0.179c-4.137,0.03-6.788,0.119-7.952,0.269
			c-0.358,0.061-0.598,0.038-0.717-0.067c-0.12-0.104-0.329-0.455-0.627-1.053c-0.269-0.567-0.381-0.889-0.336-0.963
			s0.351-0.067,0.918,0.022c1.403,0.209,2.568,0.336,3.495,0.381c0.925,0.045,3.031,0.066,6.317,0.066
			c4.33,0.03,6.75-0.029,7.258-0.179c0.328-0.09,0.597-0.388,0.806-0.896c0.09-0.208,0.135-0.358,0.135-0.447
			c0-0.27-0.419-0.284-1.254-0.045c-0.747,0.239-1.232,0.329-1.456,0.269c-0.224-0.06-0.336-0.283-0.336-0.672
			c0-0.836-0.351-1.471-1.053-1.904c-0.702-0.433-1.501-0.5-2.397-0.201c-0.836,0.239-1.396,0.344-1.68,0.313
			c-0.284-0.029-0.426-0.239-0.426-0.627c0-0.567-0.336-0.971-1.008-1.21c-0.672-0.239-1.352-0.239-2.039,0
			c-0.688,0.239-1.061,0.643-1.12,1.21c-0.089,0.806-0.717,1.314-1.882,1.522c-0.627,0.09-1.001,0.03-1.12-0.179
			c-0.12-0.209-0.15-0.776-0.09-1.702c0.239-2.688,0.074-5.779-0.493-9.274c-0.12-0.656-0.12-1,0-1.03
			c0.119-0.029,0.687,0.164,1.702,0.582c1.672,0.688,3.002,1.038,3.987,1.053c0.986,0.016,1.822-0.306,2.509-0.963
			c0.358-0.358,0.627-0.522,0.806-0.493c0.179,0.03,0.672,0.359,1.479,0.986c0.687,0.537,1.104,0.881,1.254,1.03
			c0.208,0.239,0.164,0.448-0.134,0.627c-0.419,0.239-0.702,1.263-0.852,3.069c-0.149,1.808-0.06,3.054,0.269,3.74l0.179,0.448
			h0.762c0.089,0,0.194,0,0.313,0c0.866,0.061,1.418-0.06,1.658-0.358c0.208-0.358,0.313-1.882,0.313-4.569c0-0.418,0-0.731,0-0.941
			c0-2.747-0.022-4.346-0.067-4.793c-0.045-0.448-0.232-0.747-0.56-0.896c-0.299-0.149-2.442-0.209-6.429-0.179
			c-3.987,0.029-6.563,0.119-7.728,0.269c-0.358,0.06-0.59,0.045-0.694-0.045c-0.105-0.09-0.307-0.433-0.605-1.03
			c-0.269-0.538-0.403-0.866-0.403-0.985s0.208-0.149,0.627-0.09c1.762,0.329,5.047,0.508,9.856,0.537c0.358,0,0.852,0,1.479,0
			c2.867,0.03,4.562-0.007,5.085-0.111c0.522-0.104,1.023-0.485,1.501-1.143c0.149-0.209,0.269-0.373,0.358-0.493
			c0.328-0.478,0.552-0.731,0.672-0.762c0.119-0.029,0.373,0.12,0.762,0.448c1.882,1.494,2.837,2.435,2.867,2.822
			c0,0.329-0.508,0.509-1.523,0.538c-0.09,0-0.224,0-0.403,0c-0.688,0.03-1.091,0.164-1.21,0.403
			c-0.209,0.328-0.329,1.896-0.358,4.704c0,0.657,0,1.164,0,1.522c-0.03,3.734-0.12,5.84-0.269,6.317
			c-0.09,0.329-0.134,0.627-0.134,0.896c0.029,0.509,0.179,0.644,0.448,0.403c0.09-0.089,0.202-0.097,0.336-0.022
			c0.135,0.075,0.426,0.307,0.874,0.695c1.672,1.522,2.509,2.435,2.509,2.732c0,0.269-0.523,0.419-1.568,0.448
			c-0.688,0.03-1.135,0.074-1.344,0.134c-0.209,0.061-0.389,0.21-0.538,0.448c-0.12,0.15-0.195,2.733-0.224,7.751
			c-0.03,3.973-0.075,6.347-0.134,7.123c-0.061,0.776-0.24,1.374-0.538,1.792c-0.24,0.358-0.837,0.731-1.792,1.12
			c-1.494,0.656-2.24,0.672-2.24,0.045C82.331,295.011,82.054,294.428,81.501,293.921z M70.145,291.994
			c-0.239-0.06-0.389-0.193-0.448-0.403c-0.061-0.208-0.061-0.656,0-1.344c0.238-3.106,0.089-6.525-0.448-10.26
			c0-0.029-0.016-0.09-0.045-0.179c-0.089-0.478-0.075-0.731,0.045-0.762c0.119-0.029,0.583,0.119,1.389,0.448
			c0.239,0.089,0.433,0.164,0.583,0.224l1.971,0.807l1.658,0.045c0.956,0,1.583-0.045,1.882-0.135
			c0.298-0.09,0.672-0.358,1.12-0.807c0.328-0.358,0.582-0.515,0.761-0.47c0.179,0.044,0.672,0.38,1.479,1.008
			c0.866,0.657,1.344,1.075,1.434,1.254c0.119,0.18-0.03,0.344-0.448,0.493c-0.329,0.149-0.523,0.567-0.583,1.254
			c-0.06,0.688-0.045,2.195,0.045,4.525l0.045,2.105l-0.359,0.313c-0.717,0.509-1.396,0.755-2.038,0.739
			c-0.643-0.015-0.963-0.291-0.963-0.828c0-0.478-0.142-0.799-0.426-0.964c-0.284-0.164-0.859-0.246-1.725-0.246
			c-0.956,0-1.553,0.082-1.792,0.246c-0.24,0.165-0.344,0.575-0.313,1.232v0.717c-0.837,0.717-1.613,1.075-2.33,1.075
			C70.428,292.084,70.264,292.055,70.145,291.994z M77.357,284.624c0-1.537-0.209-2.426-0.627-2.665
			c-0.179-0.119-0.725-0.18-1.635-0.18c-0.912,0-1.456,0.061-1.635,0.18c-0.389,0.239-0.583,1.128-0.583,2.665
			c0,1.539,0.194,2.413,0.583,2.621c0.179,0.12,0.724,0.188,1.635,0.202c0.911,0.015,1.456-0.037,1.635-0.157
			C77.148,287.052,77.357,286.163,77.357,284.624z M77.268,266.323c0-1.434-0.209-2.27-0.627-2.509
			c-0.209-0.119-0.732-0.172-1.568-0.157c-0.836,0.016-1.344,0.098-1.523,0.247c-0.388,0.239-0.582,1.046-0.582,2.419
			c0,1.374,0.194,2.181,0.582,2.419c0.179,0.15,0.687,0.232,1.523,0.247c0.836,0.015,1.359-0.037,1.568-0.157
			C77.059,268.594,77.268,267.757,77.268,266.323z M98.459,266.682c0.06,5.585,0.941,10.663,2.643,15.232
			c1.703,4.569,4.002,7.945,6.899,10.125c0.627,0.508,0.627,0.866,0,1.075c-0.508,0.18-1.001,0.522-1.479,1.03
			c-0.478,0.508-0.792,1.016-0.94,1.523c-0.15,0.418-0.479,0.358-0.986-0.18c-2.659-2.927-4.6-7.869-5.824-14.829
			c-0.358-2.15-0.657-3.226-0.896-3.226c-0.209-0.029-0.448,0.598-0.717,1.882c-0.867,3.853-1.987,7.02-3.36,9.498
			c-1.375,2.479-3.226,4.688-5.556,6.631c-0.538,0.447-0.844,0.687-0.918,0.717c-0.075,0.029-0.202-0.016-0.381-0.135
			c-0.149-0.149-0.194-0.307-0.134-0.471c0.06-0.164,0.269-0.44,0.627-0.828c3.733-4.212,6.018-9.826,6.854-16.846
			c0.239-1.882,0.403-4.33,0.493-7.348c0.09-3.016,0.06-4.688-0.089-5.018c-0.09-0.149-0.179-0.269-0.269-0.358
			c-0.358-0.238-0.956,0.329-1.792,1.702c-0.836,1.375-1.718,2.614-2.643,3.719c-0.926,1.105-1.509,1.613-1.748,1.523
			c-0.15-0.119-0.202-0.246-0.157-0.381s0.261-0.59,0.65-1.366c2.299-4.51,3.867-9.572,4.704-15.188
			c0.059-0.448,0.134-0.717,0.224-0.807c0.06-0.09,0.874,0.09,2.442,0.537c1.568,0.448,2.367,0.732,2.397,0.852
			c0.029,0.09-0.038,0.209-0.202,0.358c-0.165,0.149-0.336,0.254-0.515,0.313c-0.329,0.15-0.59,0.374-0.784,0.672
			c-0.195,0.299-0.456,0.927-0.784,1.882c-0.06,0.18-0.15,0.448-0.269,0.807c-0.12,0.358-0.232,0.68-0.336,0.963
			c-0.105,0.284-0.187,0.501-0.247,0.65c-0.418,1.016-0.47,1.612-0.157,1.792c0.313,0.179,1.575,0.284,3.786,0.313h3.45l0.493-0.225
			c0.269-0.119,0.702-0.447,1.299-0.985c0.478-0.478,0.746-0.717,0.807-0.717c0.089,0,0.672,0.538,1.747,1.613
			s1.613,1.643,1.613,1.702c0,0.061-0.12,0.149-0.358,0.269c-0.239,0.12-0.418,0.18-0.538,0.18c-0.299,0-1.03,0.866-2.195,2.598
			c-2.39,3.645-3.763,5.466-4.122,5.466c-0.12,0-0.202-0.022-0.247-0.066c-0.045-0.045-0.067-0.127-0.067-0.247
			c0-0.119,0.029-0.283,0.089-0.492c0.06-0.209,0.149-0.508,0.269-0.896c0.448-1.225,0.806-2.345,1.075-3.36
			c0.538-1.792,0.731-2.837,0.582-3.136c-0.149-0.298-0.896-0.448-2.24-0.448h-1.613c-0.179,0.21-0.374,0.403-0.583,0.583V266.682z"
			/>
		<path style="fill:#2D1915;" d="M134.542,292.174c-0.896-0.389-1.501-0.59-1.814-0.605c-0.314-0.015-0.918,0.173-1.814,0.561
			c-4.6,1.911-10.125,3.226-16.577,3.942c-1.314,0.149-2.016,0.164-2.105,0.045c-0.09-0.061-0.135-0.12-0.135-0.18
			c0-0.179,0.791-0.418,2.375-0.717c5.437-1.075,9.841-2.419,13.216-4.032c1.135-0.537,1.748-0.963,1.838-1.276
			s-0.27-0.799-1.076-1.456c-2.031-1.583-3.822-3.539-5.375-5.869c-0.688-0.985-1.158-1.546-1.412-1.68
			c-0.254-0.135-0.979-0.217-2.172-0.247c-2.809,0-4.735,0.09-5.78,0.27c-0.329,0.06-0.545,0.045-0.65-0.045
			c-0.105-0.09-0.307-0.403-0.605-0.941c-0.329-0.627-0.508-0.985-0.538-1.075c0-0.089,0.09-0.119,0.269-0.089
			c2.479,0.508,7.989,0.761,16.532,0.761h1.12l0.313-0.313c0.418-0.418,0.373-1.866-0.135-4.346
			c-0.061-0.269-0.074-0.433-0.045-0.492c0.029-0.119,0.643-0.104,1.838,0.045c1.762,0.239,2.754,0.239,2.979,0
			s0.396-1.419,0.516-3.54c0.328-6.541,0.193-11.812-0.403-15.814c-0.12-0.627-0.135-0.971-0.045-1.03
			c0.06-0.06,0.97,0.03,2.733,0.269c1.762,0.239,2.672,0.389,2.732,0.448c0.238,0.239,0.06,0.537-0.537,0.896
			c-0.599,0.358-0.896,0.957-0.896,1.792c0,0.747,0.156,1.188,0.471,1.322c0.313,0.134,1.365,0.201,3.158,0.201
			c1.702,0,2.725-0.06,3.068-0.179s0.858-0.598,1.546-1.434c0.418-0.538,0.679-0.799,0.784-0.784c0.104,0.016,0.5,0.307,1.188,0.873
			c0.179,0.15,0.403,0.329,0.672,0.538c0.955,0.807,1.501,1.307,1.635,1.501c0.135,0.194,0.067,0.411-0.201,0.649
			c-0.03,0.03-0.061,0.061-0.09,0.09l-5.734,0.045c-0.329,0-0.807,0-1.434,0c-2.748,0.029-4.301,0.134-4.66,0.313
			c-0.299,0.149-0.433,0.598-0.402,1.344c0,0.18,0,0.329,0,0.448c0,1.016,0.141,1.605,0.426,1.77
			c0.283,0.164,1.291,0.246,3.023,0.246l2.599-0.045c0.538-0.388,1-0.836,1.389-1.344c0.27-0.358,0.471-0.582,0.605-0.672
			c0.134-0.09,0.253-0.119,0.358-0.09c0.104,0.03,0.275,0.15,0.515,0.358c0.926,0.777,1.434,1.21,1.523,1.3
			c0.926,0.806,1.225,1.299,0.896,1.479c-0.3,0.179-2.092,0.284-5.377,0.313c-0.299,0-0.702,0-1.209,0
			c-2.569,0.029-4.018,0.149-4.347,0.358c-0.268,0.149-0.402,0.643-0.402,1.479c0,0.179,0,0.328,0,0.447
			c0,1.165,0.156,1.837,0.471,2.017c0.313,0.179,1.484,0.269,3.517,0.269c1.882,0,3.002-0.06,3.36-0.179s0.865-0.598,1.522-1.435
			c0.358-0.507,0.628-0.791,0.807-0.851c0.149,0,0.717,0.418,1.702,1.254c1.105,0.927,1.732,1.486,1.882,1.681
			s0.09,0.396-0.179,0.604c-0.21,0.149-2.323,0.224-6.34,0.224c-4.018,0-6.101,0.075-6.25,0.225
			c-0.328,0.299-0.478,1.016-0.447,2.15l0.045,1.344c-0.479,0.479-1.105,0.814-1.882,1.008c-0.777,0.195-1.374,0.143-1.792-0.156
			c-0.359-0.269-0.658-0.269-0.896,0c-0.239,0.269-0.358,0.762-0.358,1.479c0,0.06,0,0.164,0,0.313c0,0.717,0.209,1.136,0.628,1.254
			c0.418,0.12,1.896,0.18,4.435,0.18c0.538,0,0.956,0,1.255,0l5.466-0.045c0.447-0.269,0.985-0.807,1.612-1.612
			c0.358-0.478,0.612-0.77,0.762-0.874s0.276-0.142,0.381-0.112c0.104,0.03,0.32,0.165,0.649,0.403
			c0.776,0.627,1.382,1.128,1.814,1.501c0.433,0.374,0.762,0.68,0.986,0.918c0.224,0.24,0.336,0.419,0.336,0.538
			c0,0.12-0.045,0.224-0.135,0.313l-0.224,0.224l-3.898,0.045c-0.119,0-0.254,0-0.403,0c-2.239,0.03-3.524,0.135-3.853,0.314
			c-0.239,0.119-0.598,0.567-1.075,1.344c-1.404,2.211-2.883,3.942-4.435,5.196c-1.076,0.927-1.523,1.554-1.345,1.882
			c0.179,0.329,1.18,0.717,3.001,1.165c3.585,0.896,7.467,1.509,11.649,1.837c0.358,0.03,0.642,0.061,0.851,0.09
			c0.807,0.149,0.807,0.403,0,0.762c-0.836,0.358-1.509,1.06-2.016,2.105c-0.239,0.537-0.374,0.836-0.403,0.896
			c-0.061,0.119-0.688,0.09-1.882-0.089C142.859,295.204,138.306,293.876,134.542,292.174z M117.63,277.501
			c-0.016-0.045,0.021-0.104,0.111-0.179s0.209-0.149,0.358-0.225c0.149-0.074,0.388-0.201,0.717-0.381
			c1.464-0.746,2.733-1.612,3.808-2.599c1.076-0.985,1.688-1.821,1.838-2.509c0.029-0.148,0.029-0.253,0-0.313
			c-0.09-0.358-1.047-0.253-2.867,0.313c-0.33,0.09-0.934,0.262-1.814,0.516c-0.882,0.254-1.486,0.426-1.814,0.515
			c-1.494,0.419-2.464,0.852-2.913,1.3c-0.269,0.269-0.463,0.344-0.583,0.224c-0.12-0.119-0.493-0.746-1.12-1.882
			c-0.538-1.015-0.784-1.582-0.739-1.702c0.044-0.119,0.53-0.208,1.456-0.269c3.434-0.239,6.317-0.478,8.646-0.717
			c1.434-0.149,2.322-0.298,2.666-0.448c0.344-0.149,0.59-0.552,0.739-1.21c0.328-1.193,0.134-1.91-0.583-2.15
			c-0.238-0.06-1.598-0.074-4.076-0.044c-2.479,0.029-4.077,0.089-4.794,0.179c-0.598,0.061-0.963,0.053-1.098-0.022
			c-0.134-0.074-0.366-0.426-0.694-1.053c-0.209-0.388-0.344-0.656-0.403-0.807c-0.06-0.208,0.03-0.283,0.269-0.224
			c0.029,0,0.119,0.016,0.269,0.045c0.149,0.03,0.358,0.06,0.627,0.089c0.269,0.03,0.507,0.061,0.717,0.09
			c1.762,0.239,3.74,0.374,5.936,0.403c2.195,0.03,3.428-0.06,3.697-0.269c0.418-0.269,0.604-0.911,0.56-1.927
			c-0.045-1.015-0.276-1.627-0.694-1.837c-0.27-0.148-1.875-0.201-4.816-0.156s-4.891,0.142-5.847,0.291
			c-0.179,0.03-0.388,0.045-0.627,0.045c-0.09-0.029-0.307-0.351-0.65-0.964c-0.344-0.611-0.515-0.978-0.515-1.098
			c0-0.089,0.314-0.104,0.941-0.044c1.404,0.239,3.606,0.425,6.608,0.56s4.652,0.127,4.951-0.022
			c0.627-0.298,0.611-1.896-0.045-4.794c0-0.029,0-0.06,0-0.089c0-0.09,0.971-0.016,2.912,0.224
			c1.523,0.209,2.359,0.374,2.509,0.493s-0.12,0.433-0.807,0.94c-0.21,0.149-0.336,0.456-0.381,0.918
			c-0.045,0.464-0.067,1.651-0.067,3.563c0,4.031-0.276,6.951-0.828,8.758c-0.553,1.808-1.65,3.398-3.293,4.771
			c-1.047,0.896-2.599,1.83-4.66,2.801c-2.061,0.971-3.225,1.321-3.494,1.053C117.681,277.599,117.644,277.546,117.63,277.501z
			 M136.961,284.199c1.313-1.792,1.763-2.883,1.345-3.271l-0.225-0.225l-6.81-0.045c-3.674,0-5.817,0.022-6.429,0.067
			c-0.613,0.045-0.949,0.188-1.008,0.426c-0.12,0.508,0.537,1.382,1.971,2.621s3.047,2.337,4.838,3.293
			c0.867,0.418,1.449,0.665,1.748,0.739c0.298,0.074,0.627,0.022,0.985-0.157C134.452,287.141,135.646,285.991,136.961,284.199z"/>
		<path style="fill:#2D1915;" d="M184.558,265.875c0.299,0,0.717,0,1.255,0c2.12,0,3.404-0.06,3.853-0.179s0.956-0.553,1.523-1.3
			c0.179-0.238,0.313-0.418,0.403-0.537c0.029-0.06,0.104-0.149,0.224-0.27c0.388-0.507,0.717-0.717,0.985-0.627
			c0.239,0.061,1.18,0.792,2.823,2.195c0.507,0.419,0.88,0.747,1.12,0.985c0.388,0.299,0.402,0.554,0.044,0.762
			c-0.179,0.15-2.896,0.239-8.153,0.27c-2.897,0-4.585,0.015-5.063,0.044c-2.24,0.03-3.42,0.225-3.539,0.583
			c-0.061,0.149,0.163,0.688,0.672,1.612c1.882,3.584,4.353,6.938,7.414,10.059s6.131,5.429,9.207,6.922
			c0.776,0.388,0.791,0.687,0.045,0.896c-0.448,0.149-0.926,0.448-1.434,0.896c-0.509,0.447-0.882,0.926-1.12,1.434
			c-0.18,0.418-0.374,0.598-0.582,0.537c-0.21-0.06-0.807-0.492-1.793-1.299c-5.018-4.032-8.96-9.527-11.827-16.487
			c-0.358-0.836-0.643-1.434-0.852-1.792c-0.358-0.656-0.627-0.672-0.806-0.045c-0.12,0.329-0.173,3.323-0.157,8.983
			c0.015,5.66,0.082,9.535,0.202,11.625c0,0.509,0.015,1.038,0.044,1.591c0.03,0.553,0.052,0.985,0.067,1.299
			c0.015,0.314,0.022,0.485,0.022,0.516c0,0.328-0.434,0.739-1.299,1.232c-0.867,0.492-1.509,0.709-1.927,0.649
			c-0.03,0-0.135-0.03-0.313-0.09c-0.419-0.119-0.665-0.329-0.739-0.627c-0.075-0.299-0.067-1.105,0.022-2.419
			c0.209-3.405,0.313-7.811,0.313-13.217l-0.045-6.228c-0.329-0.269-0.575-0.336-0.739-0.201c-0.164,0.134-0.649,0.799-1.456,1.993
			c-4.032,6.063-8.945,10.947-14.739,14.65c-0.896,0.567-1.494,0.836-1.792,0.807c-0.389-0.06-0.03-0.538,1.075-1.434
			c2.359-1.941,4.711-4.442,7.056-7.505c2.345-3.061,4.368-6.265,6.071-9.609c0.955-1.911,1.522-3.211,1.702-3.898
			c0.179-0.687,0.09-1.134-0.269-1.344c-0.18-0.148-2.203-0.201-6.071-0.156s-6.294,0.142-7.279,0.291
			c-0.358,0.06-0.591,0.045-0.695-0.045s-0.291-0.433-0.56-1.03c-0.269-0.567-0.403-0.896-0.403-0.985
			c0-0.09,0.18-0.104,0.538-0.045c1.821,0.358,5.973,0.582,12.454,0.672c2.27,0.03,3.621,0.022,4.055-0.022
			c0.433-0.045,0.739-0.202,0.919-0.471c0.208-0.358,0.261-1.934,0.156-4.727c-0.104-2.792-0.307-4.86-0.604-6.205
			c-0.061-0.238-0.075-0.388-0.045-0.447c0.09-0.09,1.06-0.016,2.912,0.224c1.821,0.269,2.762,0.403,2.822,0.403
			c0.029,0.03,0.045,0.06,0.045,0.09c-0.03,0.299-0.344,0.657-0.94,1.075c-0.27,0.179-0.426,0.463-0.471,0.851
			c-0.045,0.389-0.083,1.673-0.112,3.854c0,2.539,0.022,3.965,0.067,4.278s0.306,0.635,0.784,0.963H184.558z"/>
		<path style="fill:#2D1915;" d="M201.556,263.411c-0.27-0.567-0.374-0.889-0.313-0.963c0.06-0.074,0.433-0.052,1.119,0.066
			c1.793,0.27,4.212,0.419,7.258,0.448c2.359,0.061,3.741,0.038,4.145-0.067c0.403-0.104,0.934-0.604,1.591-1.5
			c0.358-0.508,0.589-0.799,0.694-0.874c0.104-0.074,0.275-0.007,0.515,0.201c1.553,1.315,2.39,2.032,2.509,2.15
			c0.598,0.599,0.612,0.972,0.045,1.12c-0.447,0.15-2.897,0.239-7.347,0.27c-5.078,0-8.125,0.089-9.14,0.269
			c-0.18,0.03-0.313,0-0.403-0.09S201.914,264.009,201.556,263.411z M206.842,295.086l-0.358,0.269
			c-0.448,0.358-0.985,0.597-1.612,0.717c-0.628,0.119-1.061,0.074-1.3-0.135c-0.149-0.149-0.239-0.381-0.269-0.694
			c-0.03-0.313,0-1.038,0.09-2.173c0.089-1.015,0.141-2.509,0.156-4.48c0.015-1.971-0.008-3.374-0.067-4.211
			c-0.149-2.538-0.344-4.226-0.582-5.063c-0.03-0.029-0.03-0.06,0-0.09c0-0.179,0.656,0.016,1.972,0.583
			c0.118,0.06,0.313,0.142,0.582,0.246c0.269,0.105,0.44,0.172,0.516,0.201c0.074,0.03,0.208,0.083,0.402,0.157
			c0.194,0.075,0.329,0.112,0.403,0.112s0.187,0.022,0.336,0.067c0.149,0.044,0.284,0.066,0.403,0.066s0.254,0.016,0.403,0.045
			c0.149,0.03,0.328,0.045,0.538,0.045c0.208,0,0.418,0,0.627,0s0.478,0,0.807,0c1.553,0,2.479-0.037,2.777-0.112
			c0.298-0.074,0.717-0.381,1.255-0.918c0.477-0.508,0.798-0.754,0.963-0.739c0.164,0.016,0.709,0.396,1.635,1.143
			c1.165,0.926,1.763,1.464,1.792,1.612c0,0.12-0.209,0.27-0.627,0.448c-0.508,0.209-0.807,0.604-0.896,1.188
			c-0.09,0.582-0.09,2.009,0,4.278c0,0.358,0.015,0.993,0.045,1.904c0.029,0.911,0.059,1.546,0.089,1.904l0.09,1.881
			c-0.866,0.628-1.568,1.001-2.105,1.12c-0.598,0.149-0.993,0.157-1.188,0.022c-0.194-0.134-0.291-0.47-0.291-1.008
			c0-0.717-0.149-1.135-0.448-1.255c-0.299-0.118-1.27-0.179-2.912-0.179h-2.509c-0.329,0.239-0.537,0.471-0.627,0.694
			s-0.135,0.694-0.135,1.411L206.842,295.086z M203.303,268.922c-0.15-0.538,0.119-0.746,0.807-0.628
			c2.896,0.448,4.973,0.621,6.227,0.516c1.255-0.104,2.181-0.545,2.778-1.321c0.448-0.538,0.746-0.829,0.896-0.874
			s0.418,0.112,0.807,0.471c1.045,0.926,1.613,1.419,1.702,1.479c0.717,0.688,0.881,1.12,0.493,1.299
			c-0.299,0.15-2.121,0.239-5.466,0.269c-3.733,0.03-6.063,0.12-6.989,0.27c-0.179,0.029-0.328-0.029-0.447-0.18
			C203.661,269.684,203.393,269.251,203.303,268.922z M203.303,274.791c-0.15-0.538,0.119-0.747,0.807-0.628
			c1.553,0.239,3.15,0.389,4.793,0.448c1.643,0.061,2.613,0.016,2.912-0.135c0.448-0.208,0.971-0.717,1.568-1.522
			c0.298-0.418,0.522-0.605,0.672-0.561s0.612,0.426,1.389,1.143c0.09,0.09,0.239,0.224,0.448,0.403
			c0.09,0.09,0.164,0.164,0.225,0.224c0.865,0.777,1.224,1.255,1.075,1.434c-0.21,0.239-1.777,0.374-4.704,0.403h-0.045h-0.045
			h-0.045h-0.045h-0.045h-0.045h-0.089h-0.045h-0.045h-0.045h-0.045h-0.045h-0.045h-0.045h-0.044h-0.045h-0.045h-0.045h-0.045
			h-0.045h-0.045c-3.703,0.03-6.019,0.12-6.944,0.269c-0.179,0.03-0.328-0.029-0.447-0.179
			C203.661,275.552,203.393,275.119,203.303,274.791z M203.481,257.273c-0.149-0.538,0.119-0.746,0.807-0.627
			c1.284,0.209,2.756,0.358,4.413,0.447c1.657,0.09,2.65,0.075,2.979-0.045c0.448-0.118,1-0.656,1.657-1.612
			c0.358-0.508,0.583-0.776,0.672-0.807c0.09-0.029,0.418,0.225,0.986,0.762c1.075,0.926,1.627,1.404,1.657,1.434
			c0.807,0.717,1.03,1.165,0.672,1.344c-0.329,0.18-2.181,0.284-5.555,0.314c-3.764,0.029-6.108,0.119-7.034,0.269
			c-0.18,0.03-0.329-0.029-0.448-0.18C203.84,258.035,203.571,257.603,203.481,257.273z M213.428,289.754
			c0.06-0.388,0.09-1.523,0.09-3.404c0-0.209,0-0.508,0-0.896c0-1.792-0.112-2.829-0.336-3.113
			c-0.225-0.284-1.023-0.426-2.397-0.426c-0.269,0-0.478,0-0.627,0s-0.358,0-0.627,0c-1.374,0-2.173,0.142-2.397,0.426
			c-0.224,0.284-0.336,1.321-0.336,3.113c0,0.389,0,0.688,0,0.896s0,0.508,0,0.896c0,0.09,0,0.15,0,0.18
			c0,1.702,0.119,2.688,0.358,2.957c0.239,0.239,1.001,0.358,2.285,0.358c0.298,0,0.537,0,0.717,0c1.613,0,2.509-0.06,2.688-0.18
			C213.174,290.411,213.367,290.143,213.428,289.754z M217.773,270.445c2.12-2.181,4.092-4.741,5.914-7.684
			c1.821-2.941,3.061-5.533,3.718-7.773c0.119-0.358,0.209-0.537,0.27-0.537c0.06-0.029,0.873,0.142,2.441,0.515
			c1.568,0.374,2.382,0.591,2.441,0.649c0.149,0.15,0,0.314-0.448,0.493c-0.239,0.12-0.388,0.284-0.447,0.493
			c-0.061,0.239-0.067,0.433-0.022,0.582c0.045,0.15,0.23,0.479,0.56,0.985c1.045,1.644,2.441,3.256,4.189,4.839
			c1.747,1.584,3.606,2.928,5.577,4.032c0.478,0.269,0.791,0.471,0.941,0.604c0.148,0.135,0.193,0.262,0.134,0.381
			c-0.06,0.12-0.239,0.269-0.537,0.448c-0.837,0.508-1.449,1.181-1.837,2.016c-0.12,0.3-0.21,0.464-0.269,0.493
			c-0.09,0.09-0.448-0.149-1.075-0.717c-3.346-2.957-5.885-6.436-7.616-10.438c-0.389-0.896-0.583-1.374-0.583-1.434
			c0-0.119-0.09-0.231-0.269-0.336c-0.18-0.104-0.329-0.142-0.448-0.112c-0.239,0.061-0.582,0.464-1.03,1.21
			c-2.808,4.898-6.616,8.99-11.425,12.275c-0.746,0.478-1.18,0.657-1.299,0.537C216.563,271.849,216.937,271.341,217.773,270.445z
			 M218.244,295.623c0.163-0.119,0.754-0.374,1.77-0.762c7.348-2.896,13.052-7.272,17.114-13.127
			c0.447-0.656,0.717-0.985,0.806-0.985c0.119,0,0.858,0.403,2.218,1.21s2.054,1.239,2.083,1.299c0,0.12-0.104,0.217-0.313,0.291
			c-0.209,0.075-0.418,0.098-0.627,0.067c-0.209-0.029-0.471,0.083-0.784,0.336c-0.313,0.254-0.963,0.89-1.948,1.904
			c-5.078,5.107-11.515,8.542-19.31,10.305c-0.448,0.089-0.717,0.134-0.807,0.134c-0.179,0.029-0.299-0.03-0.358-0.179
			C218.026,295.906,218.079,295.742,218.244,295.623z M220.014,285.588c0-0.06,0.283-0.239,0.851-0.538
			c4.66-2.688,8.603-6.048,11.828-10.08c0.597-0.776,0.947-1.217,1.053-1.321c0.104-0.104,0.187-0.142,0.246-0.112
			c0.149,0.061,0.813,0.456,1.994,1.188c1.18,0.732,1.784,1.128,1.814,1.187c0.029,0.03,0.045,0.061,0.045,0.09
			c-0.03,0.21-0.27,0.313-0.717,0.313c-0.479,0-1.165,0.419-2.062,1.255c-2.181,2.031-4.63,3.808-7.347,5.331
			c-1.226,0.717-2.727,1.472-4.503,2.263c-1.777,0.792-2.74,1.128-2.89,1.008C220.118,286.11,220.014,285.917,220.014,285.588z
			 M221.313,275.821c3.285-2.24,6.152-4.988,8.602-8.244c0.478-0.597,0.762-0.896,0.852-0.896s0.739,0.381,1.949,1.143
			c1.209,0.762,1.829,1.172,1.859,1.231c0.029,0.12-0.022,0.218-0.157,0.292s-0.307,0.111-0.516,0.111
			c-0.478,0-1.225,0.419-2.239,1.255c-1.972,1.643-4.271,3.196-6.899,4.659c-2.629,1.464-4.107,2.031-4.436,1.702
			C220.088,276.837,220.417,276.419,221.313,275.821z"/>
		<path style="fill:#2D1915;" d="M246.554,295.041c1.225-2.778,2.023-5.884,2.396-9.319c0.373-3.434,0.561-9.273,0.561-17.517
			c0-4.54,0-6.825,0-6.854c0.029-1.972,0.179-2.986,0.448-3.047l0.94,0.313c1.075,0.329,2.157,0.291,3.248-0.112
			c1.09-0.402,3.039-1.485,5.847-3.248c0.985-0.627,1.508-0.91,1.568-0.851c0.179,0.09,0.828,0.627,1.948,1.612
			c1.12,0.986,1.681,1.509,1.681,1.568c0,0.239-0.344,0.329-1.031,0.269c-0.806-0.089-1.763,0.016-2.867,0.313
			c-2.838,0.777-4.943,1.315-6.316,1.613c-1.075,0.239-1.695,0.485-1.859,0.739c-0.165,0.254-0.246,1.113-0.246,2.576
			c0,0.119,0,0.299,0,0.537c0,1.255,0.141,1.987,0.425,2.195c0.284,0.21,1.277,0.313,2.979,0.313c0.269,0,0.478,0,0.627,0
			c1.911,0,3.047-0.044,3.405-0.134c0.298-0.09,0.731-0.433,1.299-1.03l0.941-0.852c0.208,0.12,0.852,0.612,1.927,1.479
			s1.672,1.359,1.792,1.479c0.029,0.06-0.016,0.149-0.135,0.269c-0.12,0.12-0.329,0.254-0.627,0.403
			c-0.509,0.269-0.8,0.918-0.874,1.949c-0.075,1.03-0.022,3.547,0.157,7.549c0.089,2.091,0.104,3.256,0.045,3.494
			c-0.061,0.15-0.314,0.329-0.762,0.538c-2.002,1.016-3.002,0.866-3.002-0.448c0-0.746-0.172-1.18-0.516-1.3
			c-0.344-0.118-1.545-0.179-3.606-0.179c-0.179,0-0.447,0-0.806,0c-1.733,0-2.749,0.09-3.047,0.269
			c-0.269,0.18-0.464,0.762-0.582,1.747c-0.03,0.18-0.045,0.329-0.045,0.448c-0.688,5.586-2.301,10.096-4.839,13.53
			c-0.209,0.298-0.389,0.529-0.538,0.694c-0.149,0.164-0.276,0.275-0.38,0.336c-0.105,0.06-0.195,0.074-0.27,0.045
			c-0.074-0.03-0.142-0.105-0.201-0.225C246.15,296.116,246.255,295.728,246.554,295.041z M261.092,277.21
			c0.045-0.418,0.067-1.882,0.067-4.391c0-2.33,0-3.523,0-3.584c-0.061-0.956-0.344-1.523-0.852-1.702
			c-0.209-0.06-1.314-0.09-3.315-0.09c-0.269,0-0.643,0-1.12,0c-1.553-0.029-2.457,0.127-2.71,0.471
			c-0.254,0.343-0.366,1.545-0.336,3.606c0,0.627,0,1.119,0,1.478c0.029,2.032,0.045,3.092,0.045,3.182
			c0.029,1.016,0.283,1.612,0.761,1.792c0.209,0.06,1.239,0.119,3.092,0.179l3.226,0.09c0.149,0,0.343-0.06,0.582-0.179
			C260.86,277.912,261.047,277.629,261.092,277.21z M276.57,269.549c0.239,0,0.538,0,0.896,0c2.21,0,3.494-0.104,3.853-0.313
			c0.209-0.119,0.627-0.583,1.255-1.389c0.238-0.358,0.41-0.605,0.515-0.739c0.104-0.135,0.225-0.209,0.358-0.225
			c0.135-0.015,0.239,0,0.313,0.045s0.231,0.173,0.471,0.381c0.209,0.18,0.388,0.329,0.538,0.448c1.702,1.434,2.538,2.3,2.509,2.599
			c-0.061,0.299-0.927,0.463-2.599,0.492c-1.195,0.03-1.935,0.075-2.218,0.135c-0.284,0.061-0.486,0.239-0.604,0.538
			c-0.09,0.179-0.135,2.785-0.135,7.817c0,5.033,0.029,8.386,0.09,10.058c0,0.358,0.015,1.001,0.045,1.927
			c0.029,0.926,0.06,1.568,0.089,1.927l0.09,1.926c-0.478,0.388-1.061,0.725-1.747,1.009c-0.688,0.283-1.27,0.365-1.747,0.246
			c-0.448-0.09-0.702-0.291-0.762-0.604c-0.061-0.314-0.045-1.158,0.045-2.531c0.208-3.524,0.313-8.154,0.313-13.889
			c0-4.062-0.016-6.302-0.045-6.721c-0.09-1.075-0.389-1.672-0.896-1.792c-0.089-0.029-0.896-0.045-2.419-0.045
			c-1.612,0.03-2.531,0.143-2.755,0.337c-0.225,0.194-0.381,0.993-0.471,2.396c-0.299,4.988-1.218,9.236-2.755,12.746
			c-1.539,3.51-3.786,6.503-6.743,8.982c-0.508,0.388-0.813,0.611-0.918,0.672c-0.105,0.06-0.232,0.029-0.381-0.09
			c-0.18-0.179,0-0.612,0.537-1.299c3.375-4.211,5.511-9.408,6.407-15.591c0.388-2.777,0.566-6.631,0.537-11.559
			c-0.03-4.929-0.254-8.184-0.672-9.767c0-0.06,0-0.104,0-0.135c0-0.149,0.717,0,2.15,0.448c1.284,0.389,2.135,0.59,2.554,0.604
			c0.418,0.016,1.06-0.156,1.927-0.515c3.075-1.284,5.466-2.465,7.168-3.54c0.209-0.148,0.358-0.224,0.448-0.224
			c0.089,0,0.799,0.604,2.128,1.814c1.328,1.21,1.993,1.845,1.993,1.904c0,0.239-0.329,0.329-0.985,0.269
			c-0.866-0.09-1.427-0.119-1.68-0.09c-0.255,0.03-0.993,0.18-2.218,0.448c-3.764,0.777-6.243,1.255-7.438,1.434
			c-1.016,0.149-1.59,0.389-1.725,0.717c-0.135,0.329-0.217,1.628-0.246,3.897c0,2.301,0.022,3.6,0.067,3.898
			c0.044,0.299,0.306,0.612,0.783,0.94H276.57z"/>
	</g>
	<path style="fill:#2D1915;" d="M278.753,233.524c-32.015,0-64.11,1.455-96.155,2.429c-0.09-3.981-0.533-15.023-2.67-28.915
		c-2.423-15.749-7.118-12.004-8.937-57.041c17.104-4.899,33.768-9.767,36.857-10.999c6.475-2.581,14.538-6.971,12.235-9.181
		c-2.303-2.209-8.355,0.106-15.826,1.914c-3.392,0.821-18.07,5.836-33.512,11.232c-0.096-3.132-0.179-6.46-0.246-10.021
		c-0.265-13.465-0.453-35.365-4.494-35.365c-3.118,0-4.095,29.344-3.763,48.366c-15.657,5.511-30.107,10.687-32.228,11.501
		c-9.84,3.779-10.177,6.98,0.485,4.012c2.119-0.59,16.262-4.554,31.927-9.016c0.11,2.732,0.254,5.026,0.437,6.651
		c1.239,11.268-1.521,68.365-1.964,77.305c-15.39-0.016-30.763-0.81-46.14-0.353c-17.139,0.508-35.406,6.987-52.346,1.874
		c-3.725-1.123-4.24,0.506-0.511,1.632c13.906,4.198,28.424,2.482,42.582,0.611c19.518-2.581,38.773-0.477,58.352-0.942
		c40.384-0.968,83.072-0.985,123.416-2.215C287.674,236.963,284.911,233.524,278.753,233.524z"/>
	<g>
		<path style="fill:#2D1915;" d="M71.341,322.462c-0.746-0.382-1.361-0.861-1.847-1.439c-0.485-0.578-0.873-1.234-1.162-1.969
			c-0.29-0.734-0.457-1.488-0.503-2.264c-0.046-0.774,0.026-1.546,0.217-2.315c0.19-0.769,0.491-1.471,0.902-2.106
			c0.41-0.636,0.962-1.191,1.656-1.665c0.694-0.475,1.485-0.804,2.376-0.989c0.833-0.161,1.7-0.188,2.602-0.078
			c0.902,0.11,1.694,0.339,2.376,0.686c0.173,0.081,0.271,0.145,0.295,0.19c0.035,0.069,0.058,0.544,0.069,1.423
			c0,0.046,0,0.092,0,0.139c0.023,0.774,0.011,1.196-0.035,1.266c-0.035,0.035-0.179,0.052-0.434,0.052
			c-0.277,0-0.439-0.028-0.486-0.086c-0.046-0.059-0.121-0.348-0.225-0.867c-0.162-0.798-0.313-1.289-0.451-1.475
			c-0.139-0.185-0.485-0.335-1.041-0.451c-0.879-0.208-1.708-0.173-2.489,0.104c-0.781,0.277-1.431,0.729-1.951,1.353
			s-0.905,1.417-1.153,2.376c-0.249,0.96-0.31,1.989-0.182,3.087c0.208,1.77,0.855,3.088,1.942,3.955s2.439,1.139,4.059,0.814
			c0.185-0.034,0.306-0.058,0.364-0.069c0.289-0.08,0.474-0.242,0.555-0.485c0.092-0.289,0.11-1.289,0.052-3
			c0-0.047,0-0.104,0-0.174c-0.012-0.497-0.069-0.786-0.173-0.867c-0.081-0.081-0.417-0.145-1.006-0.19
			c-0.451-0.035-0.708-0.069-0.771-0.104c-0.064-0.034-0.096-0.139-0.096-0.313l0.018-0.277l2.463-0.017
			c1.584,0,2.417,0.022,2.498,0.069c0.046,0.022,0.069,0.104,0.069,0.242c0,0.162-0.021,0.261-0.061,0.295
			c-0.041,0.035-0.17,0.063-0.39,0.087c-0.127,0.012-0.197,0.018-0.208,0.018c-0.243,0.034-0.393,0.145-0.451,0.329
			c-0.081,0.243-0.127,1.267-0.139,3.07v1.179c-0.428,0.336-1.133,0.622-2.116,0.858c-0.983,0.237-1.873,0.327-2.671,0.27
			C72.911,323.063,72.087,322.843,71.341,322.462z"/>
		<path style="fill:#2D1915;" d="M85.973,322.565c-0.503-0.277-0.911-0.621-1.223-1.031c-0.313-0.411-0.567-0.87-0.763-1.379
			c-0.197-0.509-0.298-1.029-0.304-1.562c-0.006-0.531,0.041-1.061,0.139-1.587c0.098-0.525,0.286-1.017,0.564-1.474
			c0.277-0.457,0.604-0.853,0.98-1.188c0.375-0.335,0.835-0.587,1.378-0.754c0.543-0.168,1.133-0.223,1.769-0.165
			c1.434,0.127,2.532,0.795,3.295,2.003c0.763,1.209,0.977,2.593,0.642,4.154c-0.254,1.145-0.83,2.046-1.726,2.705
			s-1.911,0.925-3.043,0.798C87.045,323.017,86.476,322.843,85.973,322.565z M90.482,320.528c0.387-1.035,0.459-2.258,0.217-3.669
			c-0.093-0.555-0.269-1.043-0.529-1.465c-0.26-0.422-0.555-0.734-0.885-0.937s-0.685-0.318-1.066-0.348
			c-0.382-0.028-0.74,0.038-1.076,0.2s-0.642,0.434-0.919,0.814c-0.277,0.382-0.48,0.845-0.607,1.388
			c-0.231,1.203-0.263,2.264-0.096,3.183s0.538,1.628,1.11,2.125c0.572,0.497,1.246,0.665,2.021,0.503
			C89.485,322.161,90.094,321.563,90.482,320.528z"/>
		<path style="fill:#2D1915;" d="M96.641,327.231c0-0.128,0.018-0.203,0.052-0.226c0.023-0.035,0.214-0.087,0.572-0.156
			c0.058-0.012,0.142-0.021,0.251-0.026s0.182-0.015,0.217-0.025c0.208-0.035,0.347-0.18,0.416-0.434
			c0.081-0.347,0.122-1.77,0.122-4.267c0-0.566,0-1.012,0-1.336c0-0.3,0-0.717,0-1.248c0-2.162-0.032-3.426-0.095-3.79
			c-0.064-0.364-0.281-0.558-0.65-0.581c-0.116,0-0.203-0.006-0.26-0.018c-0.301-0.034-0.48-0.069-0.538-0.104
			c-0.058-0.035-0.087-0.122-0.087-0.261c0-0.127,0.058-0.225,0.173-0.295c0.116-0.069,0.515-0.236,1.197-0.503
			c0.798-0.312,1.266-0.471,1.405-0.477c0.139-0.006,0.22,0.142,0.243,0.442c0.035,0.335,0.106,0.523,0.217,0.563
			c0.109,0.041,0.309-0.055,0.598-0.286c0.613-0.462,1.243-0.731,1.891-0.807c0.647-0.075,1.231,0.032,1.751,0.321
			c0.521,0.289,0.986,0.708,1.396,1.257c0.41,0.55,0.679,1.212,0.806,1.986s0.122,1.607-0.017,2.497
			c-0.301,1.585-1.067,2.686-2.298,3.305c-1.231,0.618-2.431,0.5-3.599-0.356c-0.254-0.185-0.416-0.242-0.486-0.173
			c-0.081,0.115-0.121,0.85-0.121,2.202c0,0.116,0,0.267,0,0.451c0,0.035,0,0.058,0,0.069c0.011,0.913,0.063,1.445,0.156,1.596
			c0.081,0.115,0.323,0.202,0.728,0.26c0.093,0.012,0.167,0.023,0.226,0.035c0.393,0.046,0.619,0.098,0.676,0.156
			c0.023,0.046,0.032,0.127,0.026,0.242c-0.006,0.116-0.021,0.191-0.043,0.226c-0.046,0.047-0.858,0.069-2.437,0.069
			c-1.578,0-2.391-0.022-2.437-0.069C96.658,327.439,96.641,327.358,96.641,327.231z M103.986,321.092
			c0.341-0.497,0.561-1.072,0.659-1.726c0.098-0.653,0.118-1.313,0.061-1.978c-0.058-0.665-0.24-1.263-0.546-1.795
			c-0.307-0.532-0.703-0.891-1.188-1.075c-0.462-0.174-1.032-0.156-1.708,0.052c-0.676,0.208-1.125,0.509-1.344,0.902l-0.069,0.139
			v5.394l0.087,0.174c0.104,0.196,0.327,0.387,0.668,0.572c0.341,0.185,0.685,0.306,1.032,0.364
			c0.104,0.012,0.286,0.008,0.546-0.009c0.26-0.018,0.442-0.038,0.546-0.061C103.226,321.906,103.645,321.589,103.986,321.092z"/>
		<path style="fill:#2D1915;" d="M110.457,322.565c0-0.161,0.012-0.254,0.035-0.277l0.087-0.018c0.046-0.011,0.11-0.022,0.191-0.034
			c0.081-0.012,0.162-0.023,0.243-0.035c0.451-0.058,0.708-0.139,0.771-0.242c0.063-0.104,0.107-0.486,0.13-1.145
			c0.023-0.926,0.029-2.902,0.017-5.932c-0.011-3.029-0.029-4.573-0.052-4.631c-0.069-0.15-0.376-0.254-0.919-0.313
			c-0.301-0.022-0.477-0.052-0.529-0.087c-0.052-0.034-0.078-0.121-0.078-0.26s0.058-0.234,0.173-0.286s0.561-0.188,1.335-0.407
			c0.116-0.035,0.278-0.081,0.486-0.139h0.017h0.018l0.017-0.018h0.018h0.017c0.555-0.162,0.885-0.202,0.989-0.122
			c0.081,0.081,0.116,0.423,0.104,1.023c-0.012,0.22-0.017,0.394-0.017,0.521c-0.012,0.439-0.018,0.798-0.018,1.075
			c-0.046,2.081,0,3.237,0.139,3.469c0.081,0.139,0.271,0.087,0.572-0.156c0.948-0.751,1.902-1.13,2.862-1.136
			s1.63,0.361,2.012,1.102c0.208,0.393,0.333,0.795,0.373,1.205s0.072,1.483,0.096,3.218c0,1.098,0.005,1.676,0.017,1.734
			c0.012,0.809,0.081,1.271,0.209,1.387c0.057,0.035,0.266,0.081,0.624,0.139c0.255,0.047,0.407,0.087,0.46,0.122
			c0.052,0.034,0.078,0.121,0.078,0.26c0,0.128-0.018,0.197-0.053,0.208c-0.069,0.059-0.797,0.087-2.186,0.087
			c-1.329,0-2.046-0.018-2.15-0.052c-0.058-0.023-0.087-0.104-0.087-0.243s0.029-0.226,0.087-0.26
			c0.058-0.035,0.219-0.075,0.485-0.122c0.058-0.011,0.133-0.022,0.226-0.034c0.347-0.035,0.546-0.153,0.598-0.355
			s0.078-0.899,0.078-2.09c0-0.324,0-0.578,0-0.764c0-1.549-0.012-2.474-0.034-2.774c-0.023-0.301-0.099-0.578-0.227-0.833
			c-0.289-0.531-0.829-0.771-1.621-0.72s-1.523,0.379-2.194,0.98c-0.173,0.162-0.272,0.323-0.295,0.485s-0.041,0.792-0.052,1.891
			c0,1.04,0,1.677,0,1.907c0,1.191,0.075,1.879,0.225,2.064c0.07,0.104,0.283,0.185,0.642,0.242c0.3,0.047,0.462,0.076,0.485,0.087
			c0.023,0.012,0.035,0.099,0.035,0.261s-0.012,0.26-0.035,0.294c-0.035,0.023-0.763,0.035-2.185,0.035
			c-1.422,0-2.151-0.012-2.186-0.035C110.468,322.82,110.457,322.728,110.457,322.565z"/>
		<path style="fill:#2D1915;" d="M126.77,322.236c-0.612-0.485-1.056-1.069-1.327-1.752c-0.271-0.682-0.401-1.419-0.39-2.211
			c0.011-0.792,0.165-1.529,0.46-2.212c0.295-0.682,0.757-1.271,1.387-1.769c0.631-0.497,1.373-0.786,2.229-0.867
			c0.833-0.081,1.59,0.078,2.272,0.477c0.683,0.399,1.177,0.963,1.483,1.691c0.306,0.729,0.367,1.503,0.182,2.324
			c0,0.012,0,0.028,0,0.052c-0.012,0.104-0.147,0.165-0.408,0.182c-0.26,0.018-1.141,0.026-2.645,0.026
			c-1.885,0-2.896,0.023-3.035,0.069c-0.058,0.023-0.109,0.093-0.156,0.208c-0.046,0.128-0.034,0.373,0.035,0.737
			s0.162,0.696,0.277,0.997c0.277,0.683,0.729,1.188,1.354,1.518c0.624,0.33,1.297,0.431,2.02,0.304s1.355-0.462,1.899-1.006
			c0.185-0.185,0.315-0.277,0.391-0.277s0.171,0.063,0.286,0.19c-0.324,0.729-0.867,1.292-1.631,1.691
			c-0.763,0.398-1.59,0.558-2.48,0.477C128.116,323.005,127.382,322.722,126.77,322.236z M131.53,316.001
			c-0.145-0.792-0.541-1.344-1.188-1.656c-0.613-0.289-1.223-0.289-1.83,0s-1.061,0.798-1.361,1.526
			c-0.162,0.382-0.258,0.72-0.286,1.015c-0.029,0.295,0.021,0.466,0.147,0.512s0.766,0.075,1.916,0.087s1.807-0.006,1.969-0.053
			C131.464,317.271,131.675,316.793,131.53,316.001z"/>
		<path style="fill:#2D1915;" d="M137.533,322.565c0-0.161,0.012-0.254,0.034-0.277l0.07-0.018c0.046-0.011,0.109-0.022,0.19-0.034
			s0.162-0.023,0.243-0.035c0.035,0,0.086-0.005,0.156-0.017c0.381-0.047,0.604-0.202,0.668-0.469
			c0.063-0.266,0.095-1.173,0.095-2.723c0-0.243,0-0.428,0-0.556c0-0.925,0-1.468,0-1.63c-0.012-0.867-0.093-1.37-0.243-1.509
			c-0.08-0.069-0.329-0.127-0.746-0.174c-0.601-0.069-0.791-0.271-0.572-0.606c0.012-0.035,0.445-0.22,1.301-0.556
			c0.855-0.335,1.313-0.503,1.371-0.503c0.058,0,0.118,0.032,0.182,0.096s0.096,0.124,0.096,0.183c0,0.092,0.02,0.323,0.061,0.693
			s0.066,0.584,0.078,0.642c0.023,0.069,0.046,0.128,0.069,0.174c0.093,0.15,0.289,0.012,0.59-0.417
			c0.427-0.612,0.916-1.031,1.466-1.257c0.549-0.226,1.066-0.223,1.551,0.009c0.289,0.127,0.473,0.283,0.547,0.468
			c0.076,0.186,0.066,0.423-0.025,0.711c-0.127,0.37-0.393,0.587-0.799,0.65c-0.404,0.064-0.791-0.049-1.161-0.338
			c-0.22-0.15-0.394-0.223-0.521-0.217s-0.289,0.107-0.485,0.304c-0.544,0.544-0.913,1.196-1.11,1.96
			c-0.046,0.185-0.063,1-0.052,2.445c0.011,1.445,0.04,2.208,0.087,2.289c0.058,0.104,0.146,0.174,0.269,0.208
			c0.122,0.035,0.448,0.099,0.979,0.191l0.277,0.034l0.018,0.261c0,0.139-0.012,0.231-0.034,0.277
			c-0.023,0.034-0.789,0.052-2.298,0.052c-1.51,0-2.281-0.012-2.316-0.035C137.545,322.82,137.533,322.728,137.533,322.565z"/>
		<path style="fill:#2D1915;" d="M158.487,316.998c-0.104-0.369-0.249-0.878-0.434-1.525c-0.231-0.798-0.425-1.478-0.581-2.038
			s-0.295-1.018-0.416-1.37s-0.217-0.63-0.286-0.833c-0.069-0.202-0.147-0.347-0.234-0.434s-0.159-0.139-0.217-0.156
			c-0.058-0.017-0.156-0.025-0.295-0.025c-0.104,0-0.185-0.006-0.242-0.018c-0.359-0.034-0.564-0.066-0.616-0.096
			c-0.052-0.028-0.078-0.13-0.078-0.303l0.018-0.313l2.566-0.018c1.619,0,2.48,0.029,2.585,0.087
			c0.034,0.012,0.052,0.093,0.052,0.243c0,0.162-0.026,0.26-0.078,0.294c-0.052,0.035-0.24,0.07-0.563,0.104
			c-0.301,0.023-0.475,0.041-0.521,0.052c-0.313,0.047-0.479,0.156-0.503,0.33c-0.023,0.162,0.109,0.774,0.398,1.838
			c0.497,1.885,0.845,3.186,1.041,3.902c0.474,1.758,0.769,2.694,0.885,2.81c0.08,0.081,0.179,0,0.295-0.242
			c0.069-0.15,0.517-1.523,1.344-4.119c0.826-2.596,1.246-3.939,1.258-4.032c0.011-0.186-0.035-0.307-0.139-0.364
			c-0.104-0.058-0.405-0.116-0.902-0.174c-0.394-0.046-0.618-0.084-0.677-0.112c-0.058-0.029-0.086-0.124-0.086-0.286
			c0-0.14,0.017-0.22,0.052-0.243c0.104-0.058,0.954-0.087,2.55-0.087c1.606,0,2.462,0.029,2.566,0.087
			c0.035,0.012,0.052,0.093,0.052,0.243c0,0.162-0.028,0.257-0.086,0.286c-0.059,0.028-0.295,0.072-0.712,0.13
			c-0.566,0.058-0.896,0.139-0.988,0.242c-0.093,0.104-0.069,0.364,0.069,0.781c1.237,3.919,1.972,6.224,2.203,6.911
			c0.23,0.688,0.387,1.032,0.468,1.032c0.058,0,0.099-0.018,0.121-0.053c0.081-0.104,0.503-1.589,1.267-4.457
			c0.081-0.301,0.19-0.699,0.329-1.196c0.208-0.774,0.37-1.382,0.486-1.821c0.115-0.439,0.164-0.757,0.147-0.954
			c-0.018-0.196-0.064-0.314-0.14-0.355c-0.075-0.04-0.233-0.072-0.477-0.096c-0.139-0.011-0.243-0.022-0.313-0.034
			c-0.381-0.058-0.596-0.099-0.642-0.122c-0.046-0.022-0.069-0.121-0.069-0.294l0.018-0.313l2.15-0.018
			c1.342,0,2.064,0.023,2.168,0.069c0.046,0.023,0.069,0.11,0.069,0.261c0,0.162-0.025,0.26-0.078,0.294
			c-0.052,0.035-0.229,0.07-0.528,0.104c-0.439,0.046-0.726,0.099-0.858,0.156c-0.134,0.058-0.229,0.168-0.286,0.329
			c-0.07,0.128-0.613,2.11-1.631,5.949c-0.174,0.659-0.398,1.497-0.677,2.515c-0.531,1.978-0.844,3.07-0.937,3.278
			c-0.058,0.149-0.139,0.208-0.242,0.173c-0.059-0.012-0.104-0.017-0.139-0.017c-0.22,0-0.351-0.012-0.391-0.035
			c-0.041-0.023-0.09-0.133-0.147-0.329c-0.59-1.862-1.237-3.859-1.942-5.992c-0.705-2.134-1.087-3.235-1.145-3.305
			c-0.012-0.011-0.023-0.028-0.035-0.052c-0.081-0.093-0.15-0.098-0.208-0.018c-0.127,0.186-0.711,1.96-1.751,5.325
			c-0.845,2.729-1.313,4.196-1.405,4.405h-0.347c-0.231,0-0.364-0.018-0.399-0.053C160.181,322.906,159.608,320.93,158.487,316.998z
			"/>
		<path style="fill:#2D1915;" d="M177.967,322.565c-0.503-0.277-0.91-0.621-1.223-1.031c-0.313-0.411-0.566-0.87-0.764-1.379
			c-0.196-0.509-0.298-1.029-0.303-1.562c-0.006-0.531,0.04-1.061,0.139-1.587c0.098-0.525,0.286-1.017,0.563-1.474
			s0.604-0.853,0.979-1.188c0.376-0.335,0.836-0.587,1.379-0.754c0.544-0.168,1.133-0.223,1.77-0.165
			c1.434,0.127,2.532,0.795,3.295,2.003c0.764,1.209,0.977,2.593,0.642,4.154c-0.254,1.145-0.829,2.046-1.726,2.705
			s-1.911,0.925-3.044,0.798C179.039,323.017,178.47,322.843,177.967,322.565z M182.476,320.528c0.388-1.035,0.46-2.258,0.217-3.669
			c-0.092-0.555-0.269-1.043-0.528-1.465c-0.261-0.422-0.556-0.734-0.885-0.937s-0.685-0.318-1.066-0.348
			c-0.382-0.028-0.74,0.038-1.075,0.2c-0.336,0.162-0.642,0.434-0.92,0.814c-0.277,0.382-0.479,0.845-0.606,1.388
			c-0.231,1.203-0.264,2.264-0.096,3.183s0.538,1.628,1.11,2.125s1.245,0.665,2.021,0.503
			C181.479,322.161,182.089,321.563,182.476,320.528z"/>
		<path style="fill:#2D1915;" d="M191.297,322.565c-0.503-0.277-0.91-0.621-1.223-1.031c-0.313-0.411-0.566-0.87-0.764-1.379
			c-0.196-0.509-0.298-1.029-0.303-1.562c-0.006-0.531,0.04-1.061,0.139-1.587c0.098-0.525,0.286-1.017,0.563-1.474
			s0.604-0.853,0.979-1.188c0.376-0.335,0.836-0.587,1.379-0.754c0.544-0.168,1.133-0.223,1.77-0.165
			c1.434,0.127,2.532,0.795,3.295,2.003c0.764,1.209,0.977,2.593,0.642,4.154c-0.254,1.145-0.829,2.046-1.726,2.705
			s-1.911,0.925-3.044,0.798C192.369,323.017,191.8,322.843,191.297,322.565z M195.806,320.528c0.388-1.035,0.46-2.258,0.217-3.669
			c-0.092-0.555-0.269-1.043-0.528-1.465c-0.261-0.422-0.556-0.734-0.885-0.937s-0.685-0.318-1.066-0.348
			c-0.382-0.028-0.74,0.038-1.075,0.2c-0.336,0.162-0.642,0.434-0.92,0.814c-0.277,0.382-0.479,0.845-0.606,1.388
			c-0.231,1.203-0.264,2.264-0.096,3.183s0.538,1.628,1.11,2.125s1.245,0.665,2.021,0.503
			C194.809,322.161,195.419,321.563,195.806,320.528z"/>
		<path style="fill:#2D1915;" d="M208.33,314.016c0.011,0.012,0.022,0.023,0.034,0.034c0.277,0.197,0.457,0.267,0.538,0.208
			c0.08-0.092,0.121-0.722,0.121-1.89c0-0.069,0-0.122,0-0.156c0-0.104,0-0.243,0-0.417c0-0.947-0.041-1.485-0.121-1.612
			c-0.069-0.115-0.284-0.185-0.642-0.208c-0.069-0.012-0.128-0.018-0.174-0.018c-0.336-0.023-0.532-0.052-0.59-0.087
			c-0.058-0.034-0.087-0.127-0.087-0.277s0.044-0.245,0.131-0.286c0.086-0.04,0.552-0.176,1.396-0.407
			c0.115-0.035,0.277-0.081,0.486-0.139c0.046-0.012,0.086-0.023,0.121-0.035c0.555-0.15,0.878-0.185,0.971-0.104
			c0.081,0.081,0.116,0.423,0.104,1.023c-0.012,0.22-0.018,0.394-0.018,0.521c-0.034,1.411-0.046,3.706-0.034,6.886
			c0.011,3.18,0.04,4.798,0.086,4.855c0.059,0.093,0.14,0.156,0.243,0.191c0.104,0.034,0.341,0.075,0.711,0.121
			c0.277,0.035,0.439,0.069,0.486,0.104c0.046,0.034,0.069,0.121,0.069,0.26c0,0.15-0.053,0.24-0.156,0.269
			c-0.104,0.029-0.556,0.066-1.354,0.113c-0.797,0.058-1.248,0.078-1.353,0.061c-0.104-0.018-0.162-0.119-0.173-0.304
			c-0.035-0.347-0.096-0.546-0.183-0.599c-0.087-0.052-0.263,0.026-0.529,0.234c-0.497,0.416-1.081,0.659-1.751,0.729
			c-0.706,0.069-1.351-0.034-1.935-0.313c-0.584-0.277-1.046-0.667-1.387-1.17c-0.342-0.503-0.613-1.069-0.815-1.7
			c-0.202-0.63-0.274-1.283-0.217-1.96c0.058-0.676,0.193-1.312,0.407-1.907s0.561-1.119,1.041-1.57
			c0.479-0.45,1.043-0.763,1.691-0.937C206.561,313.252,207.521,313.414,208.33,314.016z M208.416,321.595
			c0.255-0.196,0.428-0.394,0.521-0.59c0.035-0.093,0.058-0.974,0.069-2.645s0-2.587-0.034-2.749
			c-0.059-0.301-0.321-0.578-0.789-0.833c-0.469-0.254-0.939-0.382-1.414-0.382c-0.821,0-1.472,0.31-1.951,0.929
			c-0.479,0.618-0.748,1.494-0.807,2.627c-0.081,1.469,0.229,2.599,0.929,3.391c0.699,0.792,1.581,1.015,2.645,0.668
			C207.885,321.93,208.162,321.791,208.416,321.595z"/>
		<path style="fill:#2D1915;" d="M224.975,321.083c-1.104-1.243-1.656-2.818-1.656-4.727c0-1.468,0.358-2.76,1.075-3.876
			c0.717-1.115,1.69-1.925,2.922-2.428s2.57-0.622,4.016-0.355c0.428,0.081,0.898,0.217,1.413,0.407s0.795,0.338,0.842,0.442
			c0.022,0.034,0.034,0.497,0.034,1.388c0,0.89-0.006,1.353-0.018,1.387c-0.023,0.023-0.19,0.035-0.503,0.035
			c-0.312,0-0.474-0.012-0.485-0.035c-0.023-0.022-0.087-0.335-0.19-0.937c-0.15-0.751-0.252-1.193-0.304-1.326
			s-0.188-0.246-0.407-0.339c-0.879-0.347-1.737-0.428-2.576-0.242c-0.838,0.185-1.596,0.639-2.271,1.361
			c-0.677,0.723-1.131,1.587-1.361,2.593c-0.301,1.272-0.339,2.439-0.113,3.503c0.226,1.064,0.609,1.958,1.153,2.68
			c0.543,0.723,1.258,1.226,2.142,1.509c0.885,0.284,1.836,0.281,2.854-0.008c0.382-0.104,0.615-0.226,0.702-0.364
			s0.199-0.572,0.339-1.301c0.115-0.59,0.196-0.92,0.242-0.989s0.208-0.104,0.485-0.104c0.243,0,0.394,0.023,0.451,0.069
			c0.035,0.058,0.046,0.503,0.035,1.335c0,0.775-0.012,1.214-0.035,1.318s-0.127,0.202-0.312,0.295
			c-1.203,0.59-2.567,0.838-4.094,0.746C227.538,323.005,226.078,322.326,224.975,321.083z"/>
		<path style="fill:#2D1915;" d="M237.897,322.323c0.011-0.035,0.202-0.075,0.572-0.122c0.462-0.058,0.729-0.139,0.798-0.242
			c0.069-0.104,0.115-0.463,0.139-1.075c0.023-0.891,0.028-2.871,0.018-5.94c-0.012-3.07-0.029-4.634-0.053-4.691
			c-0.069-0.15-0.375-0.254-0.919-0.313c-0.301-0.022-0.477-0.052-0.529-0.087c-0.052-0.034-0.077-0.121-0.077-0.26
			s0.058-0.234,0.173-0.286s0.572-0.188,1.37-0.407c0.74-0.197,1.128-0.301,1.162-0.313c0.289-0.046,0.457,0.029,0.503,0.226
			c0.023,0.093,0.018,0.642-0.018,1.647c-0.012,0.509-0.017,2.252-0.017,5.229c0,2.977,0.005,4.761,0.017,5.35
			c0.023,0.521,0.072,0.83,0.147,0.929c0.075,0.098,0.344,0.176,0.807,0.233c0.301,0.047,0.506,0.131,0.616,0.252
			c0.109,0.121,0.095,0.251-0.044,0.39c-0.046,0.035-0.826,0.05-2.341,0.044c-1.516-0.006-2.29-0.026-2.324-0.061
			c-0.035-0.035-0.052-0.115-0.052-0.243C237.846,322.456,237.862,322.369,237.897,322.323z"/>
		<path style="fill:#2D1915;" d="M246.51,322.565c0-0.161,0.012-0.254,0.035-0.277l0.537-0.087c0.035,0,0.087-0.005,0.156-0.017
			c0.404-0.047,0.639-0.205,0.702-0.478c0.063-0.271,0.096-1.182,0.096-2.731c0-0.231,0-0.41,0-0.538c0-1.04,0-1.647,0-1.82
			c-0.023-0.786-0.121-1.249-0.295-1.388c-0.093-0.069-0.382-0.121-0.867-0.156c-0.243-0.012-0.382-0.031-0.416-0.061
			c-0.035-0.028-0.052-0.118-0.052-0.269s0.046-0.249,0.139-0.295c0.092-0.046,0.537-0.214,1.335-0.503
			c0.786-0.277,1.22-0.428,1.301-0.451c0.15-0.035,0.289-0.006,0.416,0.087l0.018,4.075c0,0.289,0,0.677,0,1.162
			c0,1.653,0.023,2.616,0.069,2.888c0.046,0.272,0.22,0.425,0.521,0.46c0.104,0.012,0.185,0.023,0.243,0.034
			c0.069,0.012,0.141,0.023,0.217,0.035c0.074,0.012,0.136,0.023,0.182,0.034l0.069,0.018c0.023,0.023,0.035,0.116,0.035,0.277
			c0,0.162-0.012,0.255-0.035,0.277c-0.034,0.023-0.763,0.035-2.186,0.035c-1.422,0-2.15-0.012-2.185-0.035
			C246.521,322.82,246.51,322.728,246.51,322.565z M247.646,310.469c-0.145-0.307-0.153-0.618-0.025-0.937
			c0.127-0.318,0.364-0.541,0.711-0.668c0.404-0.139,0.786-0.09,1.145,0.147s0.538,0.558,0.538,0.963
			c0,0.393-0.171,0.711-0.512,0.953c-0.342,0.243-0.709,0.302-1.102,0.174C248.042,310.986,247.79,310.775,247.646,310.469z"/>
		<path style="fill:#2D1915;" d="M255.122,322.323c0.012-0.023,0.186-0.063,0.521-0.122c0.035,0,0.081-0.005,0.139-0.017
			c0.394-0.047,0.622-0.205,0.686-0.478c0.063-0.271,0.096-1.182,0.096-2.731c0-0.243,0-0.428,0-0.555c0-0.902,0-1.434,0-1.596
			c-0.012-0.879-0.093-1.388-0.243-1.526c-0.081-0.069-0.33-0.127-0.746-0.174c-0.602-0.069-0.792-0.271-0.572-0.606
			c0.012-0.035,0.445-0.22,1.301-0.556c0.855-0.335,1.313-0.503,1.37-0.503c0.046,0,0.104,0.029,0.174,0.087
			c0.069,0.059,0.104,0.11,0.104,0.156c0,0.162,0.006,0.307,0.018,0.434c0.069,0.647,0.271,0.844,0.607,0.59
			c0.474-0.382,0.901-0.665,1.283-0.85c0.901-0.439,1.717-0.566,2.445-0.382s1.226,0.647,1.491,1.388
			c0.128,0.358,0.202,0.723,0.226,1.093s0.046,1.358,0.069,2.966c0,1.087,0.006,1.664,0.018,1.734
			c0.012,0.809,0.087,1.271,0.226,1.387c0.046,0.035,0.254,0.081,0.624,0.139c0.267,0.047,0.419,0.084,0.46,0.113
			c0.04,0.028,0.061,0.112,0.061,0.251s-0.018,0.22-0.052,0.243c-0.081,0.046-0.804,0.069-2.168,0.069c-0.15,0-0.353,0-0.607,0
			c-0.81,0-1.283-0.009-1.422-0.026c-0.139-0.017-0.202-0.089-0.19-0.217c0-0.034,0-0.058,0-0.069c0-0.149,0.017-0.236,0.052-0.26
			c0.034-0.023,0.202-0.058,0.503-0.104c0.046-0.011,0.115-0.022,0.208-0.034c0.289-0.035,0.474-0.11,0.555-0.226
			c0.093-0.174,0.139-0.867,0.139-2.081c0-0.301,0-0.538,0-0.711c0-0.821-0.006-1.454-0.017-1.899
			c-0.012-0.445-0.035-0.844-0.069-1.196c-0.035-0.354-0.096-0.607-0.183-0.764s-0.188-0.28-0.304-0.373
			c-0.115-0.092-0.277-0.167-0.485-0.226c-0.475-0.127-1.075-0.049-1.804,0.234s-1.191,0.622-1.388,1.015l-0.087,0.174v2.81
			c0,1.099,0.006,1.688,0.018,1.769c0.012,0.798,0.081,1.255,0.208,1.37c0.058,0.035,0.267,0.081,0.625,0.139
			c0.254,0.047,0.407,0.087,0.459,0.122c0.053,0.034,0.078,0.121,0.078,0.26c0,0.128-0.018,0.197-0.052,0.208
			c-0.069,0.059-0.798,0.087-2.186,0.087c-1.422,0-2.15-0.018-2.186-0.052c-0.034-0.035-0.052-0.115-0.052-0.243
			C255.07,322.456,255.088,322.369,255.122,322.323z"/>
		<path style="fill:#2D1915;" d="M269.441,322.565c0-0.161,0.012-0.254,0.035-0.277l0.537-0.087c0.035,0,0.087-0.005,0.156-0.017
			c0.404-0.047,0.639-0.205,0.702-0.478c0.063-0.271,0.096-1.182,0.096-2.731c0-0.231,0-0.41,0-0.538c0-1.04,0-1.647,0-1.82
			c-0.023-0.786-0.121-1.249-0.295-1.388c-0.093-0.069-0.382-0.121-0.867-0.156c-0.243-0.012-0.382-0.031-0.416-0.061
			c-0.035-0.028-0.052-0.118-0.052-0.269s0.046-0.249,0.139-0.295c0.092-0.046,0.537-0.214,1.335-0.503
			c0.786-0.277,1.22-0.428,1.301-0.451c0.15-0.035,0.289-0.006,0.416,0.087l0.018,4.075c0,0.289,0,0.677,0,1.162
			c0,1.653,0.023,2.616,0.069,2.888c0.046,0.272,0.22,0.425,0.521,0.46c0.104,0.012,0.185,0.023,0.243,0.034
			c0.069,0.012,0.141,0.023,0.217,0.035c0.074,0.012,0.136,0.023,0.182,0.034l0.069,0.018c0.023,0.023,0.035,0.116,0.035,0.277
			c0,0.162-0.012,0.255-0.035,0.277c-0.034,0.023-0.763,0.035-2.186,0.035c-1.422,0-2.15-0.012-2.185-0.035
			C269.453,322.82,269.441,322.728,269.441,322.565z M270.577,310.469c-0.145-0.307-0.153-0.618-0.025-0.937
			c0.127-0.318,0.364-0.541,0.711-0.668c0.404-0.139,0.786-0.09,1.145,0.147s0.538,0.558,0.538,0.963
			c0,0.393-0.171,0.711-0.512,0.953c-0.342,0.243-0.709,0.302-1.102,0.174C270.974,310.986,270.722,310.775,270.577,310.469z"/>
		<path style="fill:#2D1915;" d="M279.814,322.279c-0.607-0.468-1.052-1.031-1.335-1.69c-0.284-0.659-0.432-1.373-0.442-2.143
			c-0.012-0.769,0.112-1.494,0.373-2.176c0.26-0.683,0.685-1.284,1.274-1.805c0.59-0.52,1.295-0.85,2.116-0.988
			c0.89-0.161,1.72-0.055,2.488,0.321s1.286,0.916,1.553,1.621c0.139,0.37,0.115,0.668-0.069,0.894
			c-0.186,0.226-0.469,0.304-0.851,0.234c-0.266-0.058-0.45-0.159-0.555-0.304s-0.231-0.488-0.382-1.032
			c-0.127-0.474-0.26-0.769-0.398-0.885c-0.139-0.115-0.439-0.173-0.902-0.173c-1.018,0-1.804,0.442-2.358,1.326
			c-0.555,0.885-0.752,2.004-0.59,3.356c0.127,1.041,0.523,1.861,1.188,2.463c0.664,0.602,1.428,0.858,2.289,0.771
			s1.622-0.518,2.28-1.292c0.128-0.139,0.246-0.185,0.356-0.139c0.109,0.046,0.136,0.156,0.077,0.329
			c-0.289,0.718-0.795,1.27-1.518,1.656c-0.723,0.388-1.534,0.541-2.437,0.46C281.142,323.017,280.422,322.748,279.814,322.279z"/>
	</g>
</g>
<g id="&#x767D;&#x9CE5;_&#x62F7;&#x8C9D;_3">
	<path style="fill:#FFFFFF;" d="M198.292,112.068l-2.663,0.98c0,0,1.712,0.434,2.068,0.625c0.35,0.189,1.031,1.059,1.248,1.767
		c0.218,0.706-0.163,2.474-0.229,3.099c-0.07,0.626,1.262,5.901,3.547,7.452c2.283,1.549,5.466,1.685,5.466,1.685
		s0.764,0.354,0.576,0.745c-0.177,0.369-0.324,2.162-0.755,2.326c-0.384,0.146-0.608,0.344-0.608,0.344l1.188-0.347
		c0,0,0.552-2.932,1.664-2.986c1.116-0.056,0.653-0.109,1.2-0.245c0.541-0.136,0.461-0.625,1.385-0.598
		c0.922,0.028,2.201-0.016,3.854-0.52c2.392-0.73,4.731,0.822,5.74,1.182c0.494,0.176,0.385-0.309,0.385-0.309
		s0.595-0.039,0.683-0.207c0.105-0.203,0.074-0.245,0.074-0.245s-0.86-0.218-2.548-1.005c-0.869-0.405-1.067-0.625-1.067-0.625
		s-0.068-0.229-0.25-0.292c-0.248-0.085-4.206-2.575-6.694-4.552c-2.486-1.978-2.509-2.244-3.732-3.163
		c-1.226-0.918-2.325-1.183-2.713-1.57c-0.39-0.387-0.273-4.082-3.168-5.016C200.605,109.839,199.055,110.9,198.292,112.068z"/>
</g>
</svg>
