<?xml version="1.0" encoding="UTF-8" standalone="no"?>
<!DOCTYPE svg PUBLIC "-//W3C//DTD SVG 1.1//EN" "http://www.w3.org/Graphics/SVG/1.1/DTD/svg11.dtd">
<svg version="1.1" xmlns="http://www.w3.org/2000/svg" xmlns:xlink="http://www.w3.org/1999/xlink" preserveAspectRatio="xMidYMid meet" viewBox="0 0 187.2 166.08" width="187.2" height="166.08"><defs><path d="M77.35 98.3C64.83 98.3 54.67 108.45 54.67 120.98C54.67 133.5 64.83 143.66 77.35 143.66C89.88 143.66 100.04 133.5 100.04 120.98C100.04 108.45 89.88 98.3 77.35 98.3Z" id="dzuiQBRQT"></path><path d="M152.02 133.29C132.69 133.29 117.02 117.62 117.02 98.3C117.02 78.97 132.69 63.3 152.02 63.3C171.34 63.3 187.01 78.97 187.01 98.3C187.01 117.62 171.34 133.29 152.02 133.29Z" id="a54afVkIn"></path><path d="M119.45 144.23C102.86 144.23 89.41 130.78 89.41 114.2C89.41 97.61 102.86 84.16 119.45 84.16C136.04 84.16 149.48 97.61 149.48 114.2C149.48 130.78 136.04 144.23 119.45 144.23Z" id="a1dfGMMZji"></path><path d="M123.85 89.72C102.26 89.72 84.76 72.21 84.76 50.62C84.76 29.02 102.26 11.52 123.85 11.52C145.45 11.52 162.96 29.02 162.96 50.62C162.96 72.21 145.45 89.72 123.85 89.72Z" id="b4QZjx2C"></path><path d="M78.41 63.22C60.95 63.22 46.8 49.07 46.8 31.61C46.8 14.15 60.95 0 78.41 0C95.87 0 110.02 14.15 110.02 31.61C110.02 49.07 95.87 63.22 78.41 63.22Z" id="cXNveQC2O"></path><path d="M41.92 37.61C32.24 37.61 24.39 45.46 24.39 55.14C24.39 64.82 32.24 72.67 41.92 72.67C51.61 72.67 59.45 64.82 59.45 55.14C59.45 45.46 51.61 37.61 41.92 37.61Z" id="a1fYswdZEl"></path><path d="M75.78 49.56C94.22 49.56 109.17 64.51 109.17 82.95C109.17 101.39 94.22 116.34 75.78 116.34C57.34 116.34 42.39 101.39 42.39 82.95C42.39 64.51 57.34 49.56 75.78 49.56Z" id="b3IvHyMPo"></path><path d="M35.86 67.29C16.2 67.29 0.26 83.23 0.26 102.89C0.26 122.55 16.2 138.49 35.86 138.49C55.52 138.49 71.46 122.55 71.46 102.89C71.46 83.23 55.52 67.29 35.86 67.29Z" id="kca1P2Y5Z"></path><path d="M101.58 160.73C101.5 157.44 101.14 148.34 99.38 136.89C97.38 123.91 93.51 127 92.01 89.88C106.11 85.85 119.84 81.83 122.39 80.82C127.73 78.69 134.37 75.07 132.47 73.25C130.57 71.43 125.59 73.34 119.43 74.83C116.63 75.51 104.54 79.64 91.81 84.09C91.73 81.5 91.66 78.76 91.61 75.83C91.39 64.73 91.23 46.68 87.9 46.68C85.33 46.68 84.53 70.86 84.8 86.54C71.9 91.08 59.99 95.35 58.24 96.02C50.13 99.14 49.85 101.77 58.64 99.33C60.39 98.84 72.04 95.57 84.95 91.9C85.04 94.15 85.16 96.04 85.31 97.38C86.33 106.66 84.06 153.72 83.7 161.09C71.01 161.08 58.34 160.42 45.67 160.8C31.54 161.22 16.49 166.56 2.53 162.34C-0.54 161.42 -0.97 162.76 2.1 163.69C13.57 167.15 25.53 165.74 37.2 164.19C53.29 162.07 69.15 163.8 85.29 163.42C118.57 162.62 153.76 162.6 187.01 161.59C188.18 161.56 185.9 158.72 180.83 158.72C154.44 158.72 127.99 159.92 101.58 160.73Z" id="cj7djzpPk"></path><path d="M112.32 59.43C112.32 59.43 113.73 59.79 114.02 59.95C114.31 60.1 114.87 60.82 115.05 61.4C115.23 61.98 114.92 63.44 114.86 63.96C114.81 64.47 115.9 68.82 117.79 70.1C119.67 71.37 122.29 71.49 122.29 71.49C122.29 71.49 122.92 71.78 122.77 72.1C122.62 72.4 122.5 73.88 122.14 74.02C121.83 74.14 121.64 74.3 121.64 74.3C121.74 74.27 122.52 74.04 122.62 74.02C122.62 74.02 123.08 71.6 123.99 71.55C124.91 71.51 124.53 71.46 124.98 71.35C125.43 71.24 125.36 70.84 126.12 70.86C126.88 70.88 127.94 70.85 129.3 70.43C131.27 69.83 133.2 71.11 134.03 71.4C134.44 71.55 134.35 71.15 134.35 71.15C134.35 71.15 134.84 71.12 134.91 70.98C135 70.81 134.97 70.78 134.97 70.78C134.97 70.78 134.26 70.6 132.87 69.95C132.16 69.62 131.99 69.43 131.99 69.43C131.99 69.43 131.94 69.25 131.79 69.19C131.58 69.12 128.32 67.07 126.27 65.44C124.22 63.81 124.2 63.59 123.19 62.84C122.18 62.08 121.28 61.86 120.96 61.54C120.64 61.22 120.73 58.18 118.35 57.41C116.42 56.79 115.14 57.66 114.51 58.62C114.07 58.78 112.54 59.35 112.32 59.43Z" id="f1zBsJv2Nc"></path></defs><g><g><g><g><use xlink:href="#dzuiQBRQT" opacity="1" fill="#1a5544" fill-opacity="1"></use><g><use xlink:href="#dzuiQBRQT" opacity="1" fill-opacity="0" stroke="#000000" stroke-width="1" stroke-opacity="0"></use></g></g><g><use xlink:href="#a54afVkIn" opacity="1" fill="#304f31" fill-opacity="1"></use><g><use xlink:href="#a54afVkIn" opacity="1" fill-opacity="0" stroke="#000000" stroke-width="1" stroke-opacity="0"></use></g></g><g><use xlink:href="#a1dfGMMZji" opacity="1" fill="#4e6326" fill-opacity="1"></use><g><use xlink:href="#a1dfGMMZji" opacity="1" fill-opacity="0" stroke="#000000" stroke-width="1" stroke-opacity="0"></use></g></g><g><use xlink:href="#b4QZjx2C" opacity="1" fill="#5d7233" fill-opacity="1"></use><g><use xlink:href="#b4QZjx2C" opacity="1" fill-opacity="0" stroke="#000000" stroke-width="1" stroke-opacity="0"></use></g></g><g><use xlink:href="#cXNveQC2O" opacity="1" fill="#304f31" fill-opacity="1"></use><g><use xlink:href="#cXNveQC2O" opacity="1" fill-opacity="0" stroke="#000000" stroke-width="1" stroke-opacity="0"></use></g></g><g><use xlink:href="#a1fYswdZEl" opacity="1" fill="#1a5544" fill-opacity="1"></use><g><use xlink:href="#a1fYswdZEl" opacity="1" fill-opacity="0" stroke="#000000" stroke-width="1" stroke-opacity="0"></use></g></g><g><use xlink:href="#b3IvHyMPo" opacity="1" fill="#7e8246" fill-opacity="1"></use><g><use xlink:href="#b3IvHyMPo" opacity="1" fill-opacity="0" stroke="#000000" stroke-width="1" stroke-opacity="0"></use></g></g><g><use xlink:href="#kca1P2Y5Z" opacity="1" fill="#4e6326" fill-opacity="1"></use><g><use xlink:href="#kca1P2Y5Z" opacity="1" fill-opacity="0" stroke="#000000" stroke-width="1" stroke-opacity="0"></use></g></g><g><use xlink:href="#cj7djzpPk" opacity="1" fill="#2d1915" fill-opacity="1"></use><g><use xlink:href="#cj7djzpPk" opacity="1" fill-opacity="0" stroke="#000000" stroke-width="1" stroke-opacity="0"></use></g></g><g><use xlink:href="#f1zBsJv2Nc" opacity="1" fill="#ffffff" fill-opacity="1"></use><g><use xlink:href="#f1zBsJv2Nc" opacity="1" fill-opacity="0" stroke="#000000" stroke-width="1" stroke-opacity="0"></use></g></g></g></g></g></svg>